<mxfile host="app.diagrams.net" modified="2020-09-21T09:15:08.202Z" agent="5.0 (Windows NT 10.0; Win64; x64) AppleWebKit/537.36 (KHTML, like Gecko) Chrome/85.0.4183.102 Safari/537.36" etag="S1dtMRZ2bWENBJ_93dOY" version="13.7.3" type="github">
  <diagram id="e9iKoqwtLVAFPN2mLdKT" name="Page-1">
    <mxGraphModel dx="1102" dy="614" grid="1" gridSize="10" guides="1" tooltips="1" connect="1" arrows="1" fold="1" page="1" pageScale="1" pageWidth="850" pageHeight="1100" math="0" shadow="0">
      <root>
        <mxCell id="0" />
        <mxCell id="1" parent="0" />
        <mxCell id="F33HFdGH5LWjVPQ8mf4D-1" value="" style="shape=image;verticalLabelPosition=bottom;labelBackgroundColor=#ffffff;verticalAlign=top;aspect=fixed;imageAspect=0;image=data:image/png,iVBORw0KGgoAAAANSUhEUgAABLAAAAOACAYAAAAq/IrsAAAABmJLR0QA/wD/AP+gvaeTAAAgAElEQVR4nOzdeZhcZZn+8ft5z6m19ySdfV9JSAJZ2AIIIQmrIDiKguuo6Pgb93HBZRQcUVR0XEZFxw1hRCOIggSS7iSyqwRkDRAgQELIvnV6qa465zy/PzooSxKS7q56TlXdn+vqKzFLna8h6a566j3vKyAiIqID0pXw0VXb1O0XGp3zGgVRg8DVApqKIA2ApkWQgUoDoEmB1kWQrAApQJoATQKo2ftwToCGFx87AnwB6l5yuZf+2lfaAyDY108IsAuAAoBCugHthCAHlS5AcwC6VJFzol0KyQHoAnS3iuxxqnugskdF2zRyu1SD9qTv7UF31x45E219/OMjIiIiIuozsQ4gIiIqFV2FBLZlB+V9aXYIhghkcAQZJJABgDYqpFGgTQAa9368+P1a03BbCmAHgO0vfquKHQJsh+gOhdvuoDsU0fYI/uakhy3Y2rFVzkdom01ERERElYQDLCIiKmu6Ej6QGRqEGCWCoVGEkSIySESbVTEUwCAImqEYDGCAdW+ViABs6fnQDQq3VaCbVLDRRdiiqhtCpxtT2e71Mg9d1rFEREREFH8cYBERUWzpnajLd9SOcZ6OVAmHimK0KIapyAgAw/d+DAHgbEupD7YB2ABgvQjWK3SDRFivgvWh0xdS0v2czEfOOpKIiIiIbHGARUREZrS1bmBBwjEOOiYCxohiLICxAEYDGAOumKIeGyFYq4pnBPKMSrRWIjzrQ9ZiZ9cG3q5IREREVPk4wCIioqLRlfC7o9QYD5igkTdBRCdCMRGiEwAZi/1vVk50sPKiWKeQteL06QhY4yBPBAjXpFz3czJ/35veExEREVF54QCLiIj6RBfD625OjfPVmxyFOsE5TFLViYBMRM9qqoRxIlWvPARroXgCiicVskY0WuMnvCdkfscm6zgiIiIiOngcYBER0UHRO1FX6MxOcS6aouqmQnQKRA+DyiQAKes+okO0E8AjAl0dqTwqTh/11XtUFnZstg4jIiIiolfjAIuIiF5GW5oaAslNU8gMJzpdVaYCehiAkdZtRCWwHYJHJNLHInEPi0arfT/9gMzftcs6jIiIiKiacYBFRFSldCXShSA71blouqpMh+p0FTlcejZPJ6KXEOBZVTwEkQdE9IEA0UOpU7rXikCt24iIiIiqAQdYRERVQFeiNgjTsxQyC5DZItEcqBwGwLduIypf0gbog6J4MII8BA/3J+o7H5K5KFiXEREREVUaDrCIiCqMrmxsDMLcLEBmq2KOOMyCYjIAZ91GVAW6ATwowL2R6CoV/97ktvbH5XyE1mFERERE5YwDLCKiMqYr6wYFYX4W1M2BYLYAsxUYD35+J4qTdgD3A1glwL2BF61Kz+9+yjqKiIiIqJzwBQ4RUZnQJUgFqcwcAPOgmKfAHAFGW3cRUS8ItiLCPXD6N0S4y49y98pp6LDOIiIiIoorDrCIiGJKl9Q2h4lonoqeCOA4AHMApIyziKg4AgAPiuBuRPhLIPqX9MLcWusoIiIiorjgAIuIKAZUIfmVtdMkio4HME+gxwGYbN1FRKY2QXC3Km6Hyu2JnZ0PcS8tIiIiqlYcYBERGVCFFFqzR4roIgCvQ88KqwHGWUQUb7sB3AHF7QrckfC7Vsl8BNZRRERERKXAARYRUYnoyszIQqQLEcmp4rAQimbrJiIqax2A3A2NbofgNj+f+5uciW7rKCIiIqJi4ACLiKhIdClqwkT2JA11EUROBXSadRMRVbROQO4CtFWdLE/c3vl3uQSRdRQRERFRf+AAi4ioH3W31MxwiE6H4HQAJwBIWjcRUdXaAWCFiiyPwnB5+tTuJ62DiIiIiHqLAywioj7QW+sHhH5hESCLFHoagJHWTURE+6LAOgdphepyr+C1yJntW62biIiIiA4WB1hERIdAL4ErnJCdI4hOB+QMAEcD8Ky7iIgOUQTgPkBuBfQWf0fX33jCIREREcUZB1hERK9Bb60fECYKp0WKs0RwKjdfJ6IKtEMFtzrVJV7eX8bVWURERBQ3HGAREb2CKqSwIjtLNDqLq6yIqAr9Y3WWqi5J3NX1N24GT0RERNY4wCIiAqBLkAqSNfMF4bkKORvAcOsmIqKY2CzQmyDuRi/T2Srz0GUdRERERNWHAywiqlo9G7Dnz1DIGwCcDqDOuomIKOY6ASxT1ZsSBf8m3mpIREREpcIBFhFVFV2WHV4Q/RcRnAfgRAC+dRMRUZmKILgHihujMLwxdVr+cesgIiIiqlwcYBFRxXvJ0OrNAI4H4KybiIgqjzwG4HeRynWpRR0PW9cQERFRZeEAi4gqEodWRESmnoDKdQpcn1zU+XfrGCIiIip/HGARUcXQW+sHFPzgAoG+BRxaERHFgiieUsH16uR3yVM677PuISIiovLEARYRlTVdglSYzJ6h0HcDOANA0jiJiIj2Q4BnFPidOvfr5CkdD1r3EBERUfngAIuIylKhNXOcKC5UwYUABlj3EBHRoZLVkOjXoeLa9MLcWusaIiIiijcOsIiobGhLZnQg+i6IXAjFYdY9RETULxTAX1Xx64S4xbKwY7N1EBEREcUPB1hEFGu6ColwZ+Y8FXwAwMngvlZERJUsBLRVgGu9fO4GORNt1kFEREQUDxxgEVEsda1Mj/VDdxGg7wUwxLqHiIhKrkuB3wv0l/6duRVyCSLrICIiIrLDARYRxYYuhhcOyp6lUfRvgJwGrrYiIiIACqwTyFWhhFelF3Q/bd1DREREpccBFhGZ0+WZEQH0fVB5H4CR1j1ERBRbCuAOFf1FwuWuk/lotw4iIiKi0uAAi4jMFFrT8wH5MICzAfjWPUREVFbaBXKdSvQL/5TcHSJQ6yAiIiIqHg6wiKikdCX8MMy8SYFPAphj3UNERBXhCQD/68P/pSzcs906hoiIiPofB1hEVBJ6J+oK3Zn3QvExAcZY9xARUUXqVuA6gf44sTB3h3UMERER9R8OsIioqHRZdnjg9CMAPgCg0bqHiIiqhTym0B8ngsTVcnrbDusaIiIi6hsOsIioKLpbamaI6H8I9AIASeseIiKqWl0K+Z1Ar0ws7LrHOoaIiIh6hwMsIupXhZb0yRBcDMip4OcYIiKKl1Wi+n2vkPutnIlu6xgiIiI6eHxxSUT9orA8dSrUfQHAidYtREREr2EzRP7XL+CHcnrnRusYIiIiem0cYBFRr6lCwtbsmSr6BQDHWvcQEREdooIqrgPwveSirr9YxxAREdH+cYBFRL0SrMieqZFeCmCudQsREVE/uFeg3/N25BbL+chbxxAREdHLcYBFRIeksCx9Ejy5DIrjrVuIiIiK4AUIvudH6Stl0c7d1jFERETUgwMsIjoo+dbsUQJcBugi6xYiIqLikzao/sSP8D05rWu9dQ0REVG14wCLiA4otyI1xYvc1wCcC37OICKi6pNXyLWq8q3Uoo6HrWOIiIiqFV+MEtE+6ZLa5jAZXqLA+wH41j1ERETGFKq3QHBFYmFupXUMERFRteEAi4heRu9GJuhKfwIqFwOote4hIiKKoVUCucxb0PlHEah1DBERUTXgAIuIAACqkMKK9LtF5SsAhlv3EBERlYGHRPAV746u6+USRNYxRERElYwDLCJCfkXmGInwHQDHWrcQERGVH3lMVL/i7ez6rZyP0LqGiIioEnGARVTFdGXN0DDUyxT6bgDOuoeIiKjMPamiX0243DUyH4F1DBERUSXhAIuoCukqJIJdmY8A+AKARuseIiKiSiLAMxHk8sSOzl/K+chb9xAREVUCDrCIqkxhWeZ4OPwIwAzrFiIiokomwDNQvcS7K3cN98giIiLqGw6wiKqE3tHQFOa7v64q7wP/7RMREZWQrBbVL3oLu37PUwuJiIh6hy9iiapAsDz9DlW5AsBg6xYiIqIqtgoSfT6xoHuZdQgREVG54QCLqILllqcmeHA/hmKBdQsRERH9w+0QfDaxoOtu6xAiIqJywQEWUQXSS+AKJ2Q+LMBXAWSte4iIiGif/hTBfT61sOMh6xAiIqK44wCLqMLklqUmec79DMCJ1i1ERET0miKB/NIL8AU5vXOjdQwREVFccYBFVCH0ErjghMzHAHwFQMa6h4iIiA5JO0Qv9zO5b8s8dFnHEBERxQ0HWEQVILc8NcFTdzWA46xbiIiIqPcUWAfVSxN35X4plyCy7iEiIooLDrCIyly+Nf1egfw3gDrrFiIiIuo3f4fqJxKLcn+2DiEiIooDDrCIypS21g0MJPgJFG+0biGiCiYO8Or3/XMuAUSF/f/esA1QLiAh6qMbQi/6dHp+91PWIURERJY4wCIqQ4XlqVOh7pcAhlm3EFGJuQzg10C8OsCvB7xawKsBvFpIovEf34dXA/iNEJcEvCwgiZ4fEwf4DT2P5TcCAMRv2Duoqun5dcUUtgMaAFEeGnb0/Fiwa+/PdQBRvufnw3Yg6oaGXT0/H3YBUScQ7IaGnUDY2fNrgj1A1AkN9vT8uqCtuP1ENroh8k0/0/lV7o9FRETVigMsojKiS5AKEpnLIfgo+O+XqMwJkGyGJAYCiQFAYsDe7zcBe39M9v44EgMhflPP913SOjzeNAKCXdBgF1DYBQQ7e4ZeL35/77ea3woUtgP5bdD8ln8O0YhiTIHnnODj/oKuG6xbiIiISo0vgInKRNfS9Djfk8UA5lq3ENEBuBSQHAJJDesZUKVGAMlmIDUckhzysp+D+Na19CItAPnt0MI2IL8FyG+FFrb3fNu9AchvBro3QLs3AYUd1rVU9fTW0NMP87ZCIiKqJhxgEZWBoDV7rkJ/AaDRuoWo6iUGQNKjgfRoSHoUkBmz93+P6vk2MdC6kIotykG7NwLdG4H8pr3ffwGa2wB0r4d2PQfkN3H/Lyq2PFS+6dd0XsbbComIqBpwgEUUY7oKiWB35utQfAz890pUGuIg6TFAzRRIzVQgPRaSeXFgNbpnnyii1xLle1Zu5dYDuXXQ3HNA7nlobj3Q9Sw0t65nry+iPlJgnYN81F/Y+QfrFiIiomLiC2KimNKlmVGBh8UAjrVuIapI4kGyk4CawyDZKZDaqUB2CqRmcs9G6UTFpEHPEKtzLbTraaDzaWjXWqBrLbTrGSDqti6kciP4vR/Kh+XUzhesU4iIiIqBAyyiGCosS58ET34HRbN1C1HF8OogDUdBGo6FNM6DNBwFeHXWVUSvphHQ/Ty08ylo5xqg43Foxxpox2M9e3ER7d8uFflU4pTOn4lArWOIiIj6EwdYRDGTX575kCi+DaDIZ9kTVbjUCEjT6yANx0Aaj4PUTAPEs64i6ptgF7TzSWj7aqBz71Cr43Fo17PWZRQvfw4RfSC9sHuNdQgREVF/4QCLKCZ0CVJhIvsjFf1X6xaisiQOUjcH0nwmZOAZkLqZ1kVEpRO0QdsfhrY/CrQ/BN3zMLRjNRB2WJeRnS4ovuz7XVfIfHDDNSIiKnscYBHFgC7PjAgUvwdwtHULUVnxaiEDF0IGnQ438Awgybtuif5Bo559tdofhu55ELr7b9C2+4Bwj3UZldYD6uR9yVM677MOISIi6gsOsIiM5VdkjpEINwAYZt1CVBZcCjLoTLihF0AGngq4pHURUfnQCNrxOLTtXmD3X6Ftf4O2PwZwu6RKFwDyNb+x879kLgrWMURERL3BARaRoaAl8y8quBoAjzwjeg1SNwsy4r1wQ94E+PXWOUSVI78Zur0V0Y7l0B2tQH6bdREVz30RwnemFuZXW4cQEREdKg6wiIwUWjP/AeAbAJx1C1FsuRTckPMhIy+C1M+1riGqAgrd8xB0283Qzdf3bBJPlSangs8m7uj6nlyCyDqGiIjoYHGARVRiuhheODDzfVV80LqFKLb8ergRF8GN/hCQHGJdQ1S1tP1h6ObfQTf9Dpp7zjqH+tcKX/Q9soD/YYmIqDxwgEVUQroStUGYXgzIGdYtRLHk18ON/ijcqH/nbYJEsaLQHSsRrf8BdPtSQLlwp0LsFuhH/YW5q6xDiIiIXgsHWEQloq01QwJEtwCYZd1CFDsuCTfi/XDjPgMkBlrXENEBaOeT0PU/RLTxGiDssM6h/iD4va/++2Xhnu3WKURERPvDARZRCXStTI/1Q1kGYJJ1C1HcSNPr4KZ8F1IzxTqFiA5F9yZEay9FtPFqrsiqAAqsE+CtiYVd91i3EBER7QsHWERF1t2SnOrEawEwwrqFKFb8eniTvwUZdiH45YiofOmeBxE9eTF0523WKdR3AQRf8E/p+oYI1DqGiIjopfiKgaiI8q3ZowR6CwDeE0X0ElJ/FNz0qyCZsdYpRNQvFNG6/0H09BeBqNs6hvpMb/Xz/jvlzPat1iVEREQv4gCLqEgKy9OnQOUPAOqsW4jixI14H9yUbwPiW6cQUT/TPQ8ieuQd0M6nrFOo7zZA9MLEgtzt1iFEREQAB1hERRGsyJ6jkS4GkLJuIYoNcXATvwI3+mPWJURUTPnNCO8/E9rxmHUJ9V0I6KX+nbnL5BJwozMiIjLFARZRP9s7vPodgKR1C1GcuCnfhRt5kXUGEZVCYTvC+8+Atj9iXUL9Qpf6SLyNpxQSEZElZx1AVEk4vCLaNzfhyxxeEVWTxEC4mb8B/HrrEuoXclqI4G/drTUzrUuIiKh6cYBF1E84vCLaN2l+PdzYT1pnEFGJSWY8vMO+b51B/USB8Q7R3UFL5nzrFiIiqk68hZCoHwTLs2er6nXg8Iro5ZJD4B97H5AYYF1CREbCe0+Att1vnUH9RwF8w9/R9Xk5H6F1DBERVQ+uwCLqo6A1+3oOr4j2zY27mMMroirnxnzCOoH6lwD4TDAg/Se9o6HJOoaIiKoHV2AR9UFhefoUqNwCDq+IXi01HP68RwHHwziJqlqUQ3DbUCDKW5dQPxPFU2HknZc6jbv1ExFR8XEFFlEv5VdkjoG6G8DhFdE+uaFv5fCKiACXhtTNsq6gIlDBROeF9wTLs2dYtxARUeXjAIuoF7pbk9NEcROgPF6JaD9k6AXWCUQUF5mx1gVUPLWqemO+Nft+6xAiIqpsHGARHSJtyYx28JZC0WzdQhRXkp0IqT3cOoOIiErDF+iPC62Zy1W5RQkRERUHB1hEh0CX1DaHwHIAI61biOJMmk60TiCiOCnssC6g0vhMYXnmWl2JtHUIERFVHg6wiA6StjQ1BMlwmQomWrcQxZ00coBFRP+k7Y9aJ1CJCPCWIMy06K31PIKWiIj6FQdYRAdBF8MLJHc1gCOtW4jKQu106wIiignteBzofsE6g0rrhMAv3JNbnppgHUJERJWDAyyigxAOzHwfwNnWHUTlQjLjrROIKCZ007XWCWRjsqfu7nxLlkdQEhFRv+AAi+g15Fuz/66KD1p3EJWNZDPgZa0riCgOgjZEL/zCuoLsDBbRFYXlmXnWIUREVP44wCI6gGBF9hyBfte6g6isOO7dS0Q9onXfBfLbrDPIViMUywrL06dYhxARUXnjAItoP7pbamZopL8G4Fm3EJUT4eorIgKg7asRPfff1hkUDzVQuTlYnuV2DERE1GscYBHtg66sGeokWgKgxrqFqNxo0G6dQETWwk5Ej74TiHLWJRQfaVW9PlieucA6hIiIypNvHUAUN7oKiWBXtBjASOsWorJU2G5dQESWNET4yLug7autS+iVMmPbXPO529yAkwKkhvvwGxMKQFzSR1SItLA7QLAtQvcG1dw6D+2PZaKdtw9EfnN/rUZPqOLqfGu2Lrmw8yf99JhERFQlOMAieoVgV+abAE607iAqW1EOKOwAEgOsS4io5BTREx+DbrvZOoRe1HDMVm/aTzokM2EoxNUDqH/pT8tLv58e+aof33u7RgQNcwj3dGr3xm7seTCKtv6xXrctbejFKjtPoFfml2eSyQVd/3Oov5mIiKqXvPYvIaoeQUvmQhX8n3UHUbnzZt0IGbDQOoOISinsQLj6/dAtN1iXEABkxrT5R9/ZDn/g8KJeR8NuhG3tUfuTOexc4WPTrwdGnU8dzJvkqiofSC7q/N+i9hERUcXgAItor+7WmpkO0T0AuAM1UR+58V+EG3exdQYRlYh2PY3o4XdC9/zdOoUAyOQrnvJG/b/xMNvvVkOE7Xu0fU0Htt2cCDdd3Yzchn297ohE9V/9RblflTyRiIjKDgdYRAC0pakhRG6VCiZatxBVAqmfDe+oO60ziKjYoi5Ez36r57TBqMu6puq51KBOd+wDu+EPGGbd8ioaBQjb9mj7o53Rlj9mdPNvByC/FQBCUVzoL+pabJ1IRETxxgEWVT1VSLA8cyOA11u3EFUSb94jkMx46wwiKoZgN6IXrkK0/gdAbr11DQFwg8973k2/ejDEJa1bDl6UR2HXHm1/qFPDzp95zWddal1ERETxxQEWVb1Ca+YTAL5l3UFUadzoD8NN+rp1BhH1Fy1Ad94J3XI9ok2/BcIO6yLay5v+8ydlyFsnouyf2+dvEEm90bqCiIjiqcy/yBH1Tb4lO0tE/wKgjN6tJCoTLgP/+NVAcoh1CRH1ikI7noDu/it0x0ro9qVAsNs6il7Bm33LU9J0UuVsgRCF14rnX2idQURE8XMwJ4QQVSS9CdnA6a+hHF4RFUXUhejpS+Gm/tC6hIheS9AG7XwC2r4a6Hgc2v4otO1eDqxizpvynSel6aRJ1h39ynkXqOpaEfmCdQoREcULV2BR1QqWp3+iKhdZdxBVOu/IP0AGnmqdQVTdgt3Q3Dqg6zlo7jmg69meb3ProF3rgGCXdSEdIkkN7fROeDoNiNFJg0X3bhG5yjqCiIjigwMsqkpBS+aNKrjeuoOoKiSHwJvbCslMsC4hqlzdm6C5Z4Hcemhufc9gKrceyD0HzT0PBG3WhdTPvBnXrpHBb5hs3VFEIYDjRORe6xAiIooHDrCo6ujSzKjAwwMABli3EFULyUyAN3clkBxknUJU3ro3QPc8AN3zELRzDdCxBtr5FBDusS6jEvPmPfqcZMaNse4oshyAySLCoy6JiIh7YFF1UYUEy/FLcHhFVFLa9TTCv58B74jfA+lR1jlE5SHqhrbdC915G3T336B7HgDyW62rKCaksCNAZpx1RrGlAdynqiNFJG8dQ0REtrgCi6pKvjX7AYFead1BVLWSQ+DN/C2k4WjrEqJY0q6noZtvgO5YAd39VyDqsk6imHKDXv+CO2LxcOuOErlTRE60jiAiIlscYFHV0JbM6EDwCIA66xaiqiY+3JiPw437LODS1jVE5rTjCeiW66Fb/gBtf8Q6h8qIf/KmLfDqB1t3lMg3ReTT1hFERGSHAyyqGoXW9BJAzrDuIKIeUjMFbtznIIP/pYIP0SLaDw2gW29G9PyV0J23A1DrIipHyVEd/omPJwFJWKeUgAI4W0Rutg4hIiIbHGBRVcgvT79bVH5h3UFEryY1h0HGfAyu+VzAr7fOISqusB3R+isRPf9joHuDdQ1VAGk6eZM3e8kgVMfetjkAQ0SEx2oSEVUhDrCo4unKmqFBGK0G0GTdQkQH4DKQ5rPgBp8LaTwRSDZbFxH1Hy0g2vALRM9eDnRvsq6hCiONJ272Zt/SBHFJ65YS+KuIHGsdQUREpccBFlW8Qmvm9wDOs+4gokMjNVMhDccANVMg2clAdhIkPRqoitdnVEl0yx8RPfUFaNfT1ilUwSQ1tNM77pEcvGw1nLT8QRHhoTxERFWGAyyqaEFL5nwV/Na6g4j6UXIIJDUcSA2HZEYDyWGQ9AggNRJIj+j5OW4OT3GQ34LwiY9Ct/zRuoSqhoObffPTrumk8ajs5/kFACNFZIt1CBERlU4lf2GjKqcr6wYFYfAogGo5nYeIXpRshqSGAamRkPTInmFXehSQmQDJTgASA60LqcLpxv9D+OSngcJO6xSqQm7AKZvckX+ohfi11i1F9ICIzLKOICKi0uEAiypWviXzaxFcYN1BRDHkN0CyE4HsRMiLQy0Ot6g/hO0IV38AuuUG6xKqeg5uxjVPucHnjgdQqUe9vlVEuNKeiKhKcIBFFSlYkT1TI+Uxy0R06PwGSHYypH4WUDcLUj8bUjMVkGo44Iv6QjvXIHroAmjHY9YpRP+UHNrpzf3zDsmMHoHKe+6/B0CjiETWIUREVHyV9kWMCLoEqSCZeRjAJOsWIqoQLg2pnf7PoVbdbEjtVEAS1mUUE7r1JoSrLwKCNusUon2S2km7vJl/aENm3ChU1muAn4vIe60jiKj86RKkgNr67kyhwanXIEHUCLf382UkXepL7qW/PoqinalUaqecuJv7BZRIJX3xIgIAFFoyF0PwNesOIqpwXg2k8ThI08k9H3VHAOJZV5GBaMNPET3xcUBD6xSi15Yc1eHN/PUWqZ81DFIRJ15EACaKyDPWIUQUT6oQrMgMDyKME+h4dRin6sYLdDyAIQAaANQD6O3nxG4FtgiwEcAWgWxWwUZVrBeN1vjq1sipnS/01/+fasYBFlUUXZ4ZESgeB1DJm5YSURz5DZCmE/850KqdCn6ZrXzRc99G9NR/AlDrlIPn1UKaToI0zIXUTgeSg3v2fosKQPfz0D0PQLfdCt11l3UpFZkMe8sGN/7LkaRHDQNQzvdJ3ycic60jiMietjQ1BK5rDiKZA8FREMyAYix6P5zqL3sAPCyK+yPo3+F59yW2dTwi54Pvfh0CPrOmipJfnvk/UVxo3UFEhORgSNNJcINOhww6A/AbrYuon0VPfxHRs1dYZxwkgQxcBDfivZCBpwEu+Zq/Q/c8gOjxj0DbVpWgj6xJ87kvuDEf75K6IwbBJRuse3rheBG52zqCiEpHFyMZDEgfA8hRKpgjiqMATETZzDmkDYjuAnAnICv9HV1/40DrwMrkPyzRayu0pk8E5Dbw7zURxY0kelZnNZ8D13w2kBpmXUR9FD17BaKnv2idcVCk+Wy48V+A1M449N+sEaL130f05OdQVqvMqG/82oIb9q7n3dA3haiZ1gCvtrEMNv17RkTGW0cQUXF1LU2P83x3mj5ZZ7EAACAASURBVKieDmABKuvOmx2qWOqAP3l+aonM37XLOihu+EKfKoIuhhcMyKwCcKR1CxHRAYkPaT4LbsRFkAHzwS/F5SfaeDWi1f+G2A900qPgHfY/kIGL+vxQ0QtXIXr8Q9znq5qlRne4IedskQGnhqg5LC3JwbVwiZqYDbYuFJFrrSOIqP/oTciGNdmTEeoZAE5XwUTrphLpBtAq0N95mvmDLNq52zooDvismSpCviX7QRH9oXUHEdGhkOxEyIiL4Ea+D3AZ6xw6CLrtZoQPvTX2gxwZuBDe4b8EEgP67TGj9f+DaM2n++3xqILUztghjSe0uYaj88iM85AY6Itf78PLpOBSCYiXBFwCgIfivv7YLiKDivj4RFQCuhheMDC1QCP3dhGch8paZdUbnQJZrBL9wj8ld4dI3N9BKx4OsKjsaWvdwADBEwAGWrcQEfVKaijcuM/BDXvnQe1NRDa043GE954AhJ3WKfsnXs/fpbGfAcT184MrwgfOg25f1s+PS1XFpQNJj9mD9OgcALjUgDy8hggANDUyEOcDklQkBkGjrlCCna/eXD7cA+S3+1FuQ0KCNi/qXp9FYXsKwZ40oKckFuZWlvj/FRH1g/zy7GyBvh2KtwAYbt0TS4LHVeU7ia7Oq+VsxPgJSXFwgEVlL1ie+aEqPmjdQUTUV5IZBzfhS5Ah51un0CuFnQjvPRHa8Zh1yf6JB2/qlZBhbyveNfKbEdxzJBDwTgaKrZWJhV2nWEcQ0cHRlTVDgyB6N0TeAeg0654ysh0qV/q+9x2Zv2ebdUypcIBFZS2/rOZIcdEq9CxJJyKqCDLwVHhTfwCkRlin0F7h6vdDN15jnbF/4sGb+iPIsLcX/VLRM5cjWvvlol+HqPf0dYmFuTusK4ho//ItmWPh8GFRvAkAl5/3XjtUvuuH/rfl9LYd1jHFxgEWlbVCa2YFgPnWHURE/c6vh5t0Odzwd4Ffrm3pxmsQrn6/dcYBCNy0K+GGvaM0lwvaENw9FSjsLM31iA6ZtCYWdvb99AIi6ld6CVx4QvYcVb0YgmOseyqLtEH0v/ztXd+T85G3rikWPiOmshUsz56hqkusO4iIikmaz4F3+E8Br9r3LzXSvQnBX44Egjbrkv1yYz8JN6G0K6KitZcheuaykl6T6BDNSyzsusc6gogAXQk/DNIXqrjP8DbB4hLFUxD5lL+w8w/WLcXQ37t7EpWEXgKnqpdbdxARFZtuvRHhqpOhXc9Yp1Sl8MlPxXp4JU0nw43/UumvO/zt4PugFG/6n9YFRNVOL4ELWtNvC8LMahW5isOr4lPBRIXeUGhN39Ldmqy4P28+86CyFLSk39nzSZCIqEokBsCb8WtI0+usS6qGbl+K8IHzrDP2LzUc/tH3AMlmk8uH958O3Xm7ybVNiAepmw2pmw7UTIOkhvX8uN8IRDlo17NA1zPQ3HPQtlVA9ybTXIJGcEemFnY8ZB1CVI2C1uy5KtF/QWW6dUsVC0RxpZfp+pycgD3WMf2BAywqO7oS6UKYeVyAMdYtREQl5ZLwZi6GDDzVuqTyRV0I75kNzT1nXbJf3hG/hww63ez60cZfIVr9b2bXLxWpOxIy7O1wQ/4FSA456N+nHU9Ad97W87FtCRB1F7GS9kUhv0ou7HyXdQdRNcm3ZGeJ6LcBnGzdQj0EeFYjfV/i1Nxy65a+4gCLyk6+JfNxEXzbuqM6CODX87h0ojhxqb1DLO5PXEzRuu8gevJz1hn7Jc3nwJv5G9uI7k0I7pwAQG07ikQyY+EmXAIZ8mb0+SlzYSeiTb+BvvBzaPuj/dJHByXvBzJWTu/caB1CVOm0tW5giODLCvwbuFVRHKkIrvRSXZ8p59VYHGBRWdGbkA0ymbUADv4tUPoHSY8Baqb03PaQGgEkB0PSPd8iMQji1wPiAS4FuMzLf3PYAYSd0LC9Zz+YsBPIb+5ZnZBb33PrRO45aG59rPeLIaoILr13iLXQuqQyBW0I7j4cKGy3Ltk3rxb+sfcB6VHWJQj/ejS0/RHrjH7nRrwXbvIVPV8P+5nuvA3Rmk9D2x/u98emfVBckVjU9SnrDKJKpQoJW9PvUCdXQGFzTzsdNAGeUeh7EwtzK61beoMDLCorheWZT0LxTeuO2PNqIPVzILUzevbpqD0cUjsV8OpKc/38Nuie+6Ft9//jW3S/UJprE1ULLwtvTgukbpZ1ScWJnvkqorVfsc7YLzfhS3BjP2OdAQCInvoCoucqaFG0S8E77PuQYW8v7nU0QLTh54jWfhko7CjutWiX73WNkvlotw4hqjS5ZalJnud+BMUC6xY6JArgv/3GrotlLgrWMYeCAywqG7oStUGUWcvJ/j4kmiANx0Eaj+/5qJ8FSMK66uW6N0H3/B2688/Q7cugHU9YFxGVv9QI+EffbbaJd0Uq7ERw99T4riT1G+Af/0TP7d0xEPuN7g+FS8KbcS1k0Bmlu2ZuPcIH38TVWEWmik8kF3X9t3UHUaVQhRRWZD8gqlcAqLHuoV67wxdcIAu6NliHHCwOsKhsFFoyF0PwNeuOuJC6mZBBZ0Oaz4TUHgFIed1qrrnnoNtbeoZZO/4MhHxjlKg3pHEevFlLAJe0TqkI0bPfRPT0l6wz9suN/STchC9bZ/xTfiuCOyrgTBXx4E3/FWSwwTAubEf46HuhW28q/bWrhCie8u7qmiKXILJuISp3emt2WOBHPwfE7hQR6j+CrVB9S7ncUsgBFpUFvRN1QS7zDICB1i1mxIM0vQ4y6Cy45tcD6dHWRf0nykN33QXd9BtEW27gMIvoELkR74M77HvWGeVPg569r3LrrUv2zaXhz1sNpIZal7xMcNdkIPe8dUafuPFfhBt3sV2Ahggfeit02812DRVORM70F3TeYt1BVM4KLTWnwUVX846YihMCeqm/IPcVkXifzMIBFpWFQmvm0wC+bt1hQWqm9BzfPfRCIDXMOqf4wk7o1hsRbbwGuvM2QEPrIqKy4B1xfWlvfapAuuUGhA+/zTpjv9ywd8BN+7F1xquED70VuvVG64xek4EL4R3xB/uVzGEnwvtPh7atsu2oVKpLEotyZ1lnEJUjXQk/CDNfAfBpcIZQya7zva53yHzkrEP2h3/5KPb0bmSCzszTAKpgerOX3wA39ALI0LdCGo62rrHTvRHRpl9DX7gK2vmUdQ31CwFSQ3tOxEyPgvh7DxbwagENek6x7N4Aza0D8ttsU8tNahj8Y1YBiSbrkrIV3n86dOft1hn75c1ZBmk8wTrjVaK1X0H0zFetM3rHb4R/3AM9p/HGQfcGBH85Cgh2WZdUoiiUaHJ6QffT1iFE5USX1DYHyfA6AK+zbqESENzlq/8GWbgnlkcxc4BFsZdvyX5QRH9o3VEKkp0IGfXvcMPe1vOCnnpoBN28GNHay6BdfN5ZbiQ7CTLwVEjjCZDG44HkoIP7jbn10LZ7obv+At1+K4eYB0GGXgDv8J9ZZ5Ql7XgM4V/mWGfsl2TGw5v3MOL41E03/Qbho++xzugVN+W7cCMvss54mWjDTxE9/hHrjMqkuCKxqOtT1hlE5aK7pWaGJ9EfFRhn3UIl9WQo0RlxHPjH71kQ0UvoSvhhmFlT6Z80ZcB8uFEfggw8zf4WhjiL8j0bLD/3TSDKW9fQgfj1cEPOhwx7G6ThmH55SN3zIHTL9Yg2Xgt0l81hKSXnHfE7yCDeJXOoorVfRvTM5dYZ++XG/yfcuM9aZ+yTtq1CeG/5vTEv9bPhzb0NEM865eU0QrjqZN5KWBzb/WzXKJmHLusQorgLVmTP0Uj/DwDfVa9Ggq0a4Zzkoq6/WKe8FAdYFGtBa/rtCrnauqM4BNJ8Fty4z0PqjrCOKSva8Rii1RdB2+63TqFX8uvhRn0YbvSHAL+hONfQAnTzdYjWfQ+658HiXKOMSWY8vGPvA1zKOqWshHfPiPUKT+/Yv0Nqplhn7FuwC8Ftw60rDpk36ybIgAXWGfuk21sQPvAG64yKJNB3+wtzV1l3EMVZvjX7foH+EEDMJvxUYu0QPSuxIBeb/RW41INiSxWigOGRQMUikObXwzv6HngzF3N41QtSMxXe3JVwoz8CzuFjQny40R+Df/zjcOM/X7zhFQBIoudWuaPvgTfrT/w39AratRbR8z+xzigr2rYq1sMryU6M7/AKAPzGno8yIg3HxnZ4BQAyYAEkM8E6oyIp5H3WDURxVmhNf1GgPwaHVwTUQuWWQkv6ZOuQF3GARbEVtNacCsjh1h39SQad9ZLB1UzrnPImCbhJl8M78vdAYoB1TVWTuiPgHXUb3KSvlvxFrAw4Bd5Rd8FN/RGQGlrSa8dZ9MzXgMJO64yyoZt+a51wQOVwS6ikR1gnHJK43o75D+Igoz5gXVGpTuhemjzMOoIoblQhQUvm+4Bcat1CsZKFyM2FZelYvOvDARbFl4Qft07oL1J3BLzZt/bsTcPBVb+SgafBO+oOSO0065QqJHBjP9Pz5183yzDDwQ1/F/xjH4Ab/i67jjgJdvUMseigRFtvsk44IBl0pnXCa0uWzwBZag6DDFxonfGaXDNvISwW53lchUX0EqqQcEXmByr4kHULxVIWTm4sLE+dah3CARbFUndrchog5v9A+iw1FG7qj+AddRekqfw2uC0XkhkHb+6fIc3nWKdUD78e3szfwE34EiC+dU0Pv77n39sRvwOSg61rzEUbfgJ0v2CdEXvauQbIrbPO2L9EE6RxnnXFa5JU+eyBJSPeh7K4/Tw9ClIz1bqiUr1DFyNpHUEUB/8YXik+aN1CsZaFuhvyKzL9czpTL3GARbHkifsYyuLZ5X5IAm7Mf8A/7qGeFSE8WbD4vFp4M6+FG8vTsYtNMmPhzb0N0ny2dco+yaCz4B97X1mssCiqKI9o3fetK2JPt7daJxyQDFgUv1Py9iU1xLrg4HhZuGFvs644aFX/eax4BodNmXh+ESMqsXBF5rscXtFByoriptzK1ESrAL6qptjRlXWDVOXt1h29JY3HwTv6HriJ/wV4PHW2tARuwqVwU75bHi/4ypDUTIE3Z3m8N5QGgMRAeEfcADfmEyjnWXhfRRt+BgS7rTNiTXfEfIDVdIJ1wsFJNFsXHBRpPru4h0z0M6mbbZ1QsbRmMu85p6pXaMlcrIoPW3dQGVE0+4G7RZdnTDa/jMl9H0T/FETBewFkrDsOmd8IN/EyuBHvRjW/YI4DN/IiSGoYwkfeBURd1jkVQ+pmwjvyJiBZHi9UIR7cxK9A6o5AuPrfqvPvQtiO6Pkr4cZ+xroknqJu6M47rCsOSBqPt044OInyGAq5IW+xTjg0tdOtC8pHckCXazp5G+pmdaNmmkpmnI/EwJT4tWkgkYTz/L33vHvoeaJ2tipmishDxuVEJvLL0++G4qvWHVR+VDAxUNyiLU0nyqKdJX2nlAMsihW9BC5UfECtQw6RDH4DvCnfK58X9lVAml8Pb/bNCB84jytQ+oHUHg5v9q0lP2WwP8iQN8NLj0L4wBuBYJd1TslF638EN/ojgCu/9wWKTdvuB8IO64z9SwyA1JTHYWlSDp8bEk2QAadYVxwSqZkMSALQgnVKjDj1hr15HQaf343a6RkkB9eJS9YCkgEw6hAf7BIAb+z/RqJ4C1Zkz9FIfwq+6069NyNA7leqOFcEJXv5zlsIKVbC47NnKDDOuuOg+fXwDv8pvBnXcngVQ9JwLLzZtwCJgdYp5S01At6RfyjL4dWLpOFYeHOWAsky2aenP+W3INp8nXVFLGnbvdYJB9SzeXuZvLYog9vyXPMbAFdm+3ZLonz2FysiN+zC5/yjbn/Kn799u7+gXWXaL8bIoDMmS3rUKHGpxj6cJlL+BwYRHaL8iswxGum16FmNSNR7gnOC1uyXSnlJDrAoVlS0bDYQlAEL4B+zCjL0QusUOgCpOxLenGXVObjoD359z/AqZXKbe7+S2hnw5rZC0mOsU0pOX7jKOiGWdPffrBMOqGxuHwTKYsAtg86wTugVqcpTVZ16o/79af/4Nev8BR2Bm/bTMaifOxEuMxD9+/qlRlUX9OPjEcVad0vNDImwFEDWuiW2/HpIzVRI3ayXf2QnAn69dV38iH4xaM2eW6rL8RZCio2upelxAOL/7NKleva6GvVBlM0741VOaqbCm7MM4f1nAt0brHPKh0vCm/kbSO3h1iX9RjIT4GbfjPC+06rq74Luuhva8UT8N98vtbb7rAsOqKwGWF6NdcGBuRRkwHzrit4pkw3y+4MbcPIL7rAfFZAZPRKQCSW67OcBLC/RtYjM6PLMiECjJQDiv2S2FBJNkIZjIHWzIXVHArVTIanhr73lggZAYTu082lo5xqg8ylo55PQPQ8CuXWlaY8XUegvu1uSx6UW5R8r9sU4wKLY8D35AGK+KlCyE+Gm/6rnkxyVFclOgjfnVoT3nQp0b7TOiT/x4B3+S0jTydYl/U4y4+HNuhHh/acB+W3WOSWjG38FmXiZdUZ85DdDc89ZV+yfV1NWX2vEpawTDkgaTyzfk4ET8V/d1icuW/AO++5aGXr+UEhiuEFBmRz1SdR7ehOyQYTrIRhp3WIqNRxu8LmQ5tdDGk/o3d3H4gPJIZDkkL23+r9EfjO0bRV0973Q3ff0rPSOuvunPd4anHi/1ZU4WuYjV8wLxXpYQNVDV8IH8E7rjgORoRfAO/rusnpBQS8nmQnwZt0MJAdZp8ScwE39AWRwyVYDl5zUTIV35B+rail4tPEaIMpbZ8SGtt1vnXBAUndEH7b1oVeSASdZJ9ArpUe3ecfcu9afv9WTYW+bAjE7yjKhqv9qdG2iolOFFNKZn0JwjHWLFWk6Ed6M/4N//ONwk6/oeYO2GF9jk0Mgg86Cm3AJvNlL4b9uA7wj/wA3+sOQmqn9f714mRGGmSuKfREOsCgWwiB7GoBh1h375NJwU38E7/Cfle+7t/QPUnMYvFm3AIkB1imx5SZ9DW5YrOfJ/ULqZsGb+Zvy29S5t/JboduXWlfEhnYUfZV7n0jdEdYJh8alrQsOSBpPtE7oNamwQbs0HrvZP/Hpdf7xj9dJ7eHjAYnD65GPWAcQFUvQmv68CC6w7rAgjSfAm/tneLOXQgafV/o3hrwsZOCpcJO+Du/Y++Af/wTc5G9Amk4EpPL20Ffg/wWt2dcX8xpx+IJBBHX6HuuGfUqPhDenBW74u6xLqB9J7eHwZt1UVatvDpYb+0m40dXzPF6aToab9E3rjJKJNl9vnRAfHWusCw6s7AZYMb6F0MtC6mdZV/SeRtYF/UKGXrjOP3nzZm/OiiFIDhuNeG0kOlNVq+TdDKomQUvmjRD5snVHqUlmHLyZv4E3Zxmk4WjrnH9Kj4Ib9aGe1VknrIU77H8gAxZW0jBLVPTnemu2aAtTOMAic7qkthmKok5qe0OaXgf/qLsh9XOsU6gIqm71zUFwI94DN+FS64yScyMv2nsoQ+XTbbdUy14Mr0k74z3AktoyG2DFmDQcA0jCOqPXNGy3TugTb8IlT/rzd+3yDv/paHh1cT0S2AH4uHUEUX/KL6s5UgVXI17D4iITuJHvh3fM3yDN51jHHFiyGW7Ee+DNuhH+8WvgJn29Mg5OUjQHvv6gWA/PARaZKyTDCwHEaorgRn0Q3qw/ca+kCidNJ8ObeiWq6uv6fkjz6+GmfBfV+mfhJn2j5x2wShfuge5ota6IhVjfQiiJ8tsrI8a3EEpjme/RHeyxLjh0Lhl6M656wl/Q3iVjPz0JLlkOO9FfZB1A1F+0tWaIuOgmAFnrlpJJDYM3+2a4Kd+J/8m4r5QaBjf6w/COuRfeMff23A2RjOu8/6CcF7Rm3lSMB+YAi8wJ8G7rhn8QH+6w78FN/hY3z60SMvStcJO+ap1hSppOhjf9mkpavnzoxIM3/RdAaoR1SdFFm2+wTrCX3wIEu60r9kuy48tvdWiMe6XxeOuEvom6rAsOiZv64zX+/F2RDH7zlNc+jz5Wxqsq37mksqeLkQwQ/R6onhMHpeFo+EfdWRGnZ0vt4XCTLod//BPwpv8S0nCsdVKvKPB9vbW+3zcd5gCLTHW3JqcBiMexfn49vCN/DzfifdYlVGJu9EfhxnzCOsOEZCbAm/nrWL/4LJnEQHjTr6r4QZ5uu7nqTyPUzqetEw4sO9m6oHK4FKThKOuKvgk7rQsOigx583r/lN273fB3TAZQjvdsCoAvWEcQ9VXYlPkWgHnWHaXihr8L3uylQCqe54H1mktChpwPb+4KeHNay3E4NzT0g37faJYDLDLl1L/QugEAkB4Nb+7K6riFiPbJTbgUMugM64zS8mrhZv4G8Mvhzo7SkMZ5cOO/aJ1RXMFu6M7brStsdW+wLjggqZlindA7XvzuVJHamWW2CGgfymAPLH/Wn9Z4068aBUk0WLf00VusA4j6ImhNv10FH7LuKBU37mK4qT+K90Ei/UAa58GbvQTe7CVltcWAQv8135Lp1yVkHGCRKYGaP1GQ2mnw564oq08GVATiwTv8F5DaadYlJSLwpv2kMjaL7GduzH9ABiywzigq3b7UOsGUxn2AlS3TAVYMb72XuhnWCX2mcd4Dy2/o9k96fiMGnFIpywaHqmpZbzxD1au7tWamQn5s3VEaAjfp65X/puMrSNPJ8I75K9zEy8rlzRkRwff1kv6bO3GARWbyyzNHq2CiZYM0zoM3pxVIDbfMoLjw6+Fm/rYqNu93Iz8AGXyudUY8iYM37ccVvTJNdyy3TrDV/YJ1wYFlJ1kX9I5G1gWvVjvduqDvCtusC/YtPbrNf93zIfwBFXbfDi62DiA6VNrS1OAQXYeq2LRd4A77PtzoD1uH2BAfbszH4R19J6Q8vsbNLZyYfU9/PRgHWGRGFKa3D8qgs+DNuqmiX6TSoZPMBHjTf1XWR66/FqmZCjfpMuuMeEsNh5v8deuKotGOx4HceusMM5qL+wos0/d2ei+Gt7pJTZmvMg3b47kHVmbcLn/e6iQkhveN9t0brQOIDoUqJJDcVQDK9N2PQ+MmXQ43ot/mIWVLaqbCO+p2yNALrFNek6hepkvRL0dDcoBFJlQhAN5sdX0Z8iZ4M68tl6WXVGLSdDLcxEutM4rDJeEO/xn/7h8EN+wdkIGnWmcUTVTNq7DifAuhVwck+v3QnqoldUdYJ/SJ5jdbJ7yKZKfs9Oc9koa4tHVLkYxS1XrrCKKDFSxPfxbAG6w7SsGN/0L1rrzaF5eGd/hP4cb/J3rOoYitwYHL9Mt/OA6wyEShNXMMAJP79mToW+Ad/otY7tVB8eFGfxQy6CzrjH7nxn0WUhePgz/LgTf1B4Bfma9jdHuLdYKd/Bbrgv2SzBjrhN6Juq0LXi09qvz//XbH6++qJAa1u2PvywJSqcMroOdVYHUeTUxlp9CaXgjIl607SkGGvhVu3OesM2JI4MZ9Fm7yNxDrIZbgU7oEff6izAEWmRDBeSbXHXohvGk/BcSzuDyVFYF3+P9C0mX6YnIfpGYq3Bg+Jz8kqRE9G2VWIN2xEtDQOsOEBrusE/YvM9a6oHdiOMCqiEMq4rQCyyVD78QnCyIVftxXj/jfk0NVT1fWDAXkGgAV/8JGspPgHfZd64xYc6P+Pe5bhAwIUumP9/VBOMAiKyUfYLlh7+zZmJnDKzpYfiPcjGsAl7Qu6Qc9G15W8t5exeKG/yukfrZ1Rv8LdkHbH7ausBHsti7YL8mMs06oGFJb3rcPAoDGaLWgf/zTmyGpJuuOEpmoqpXwxZ8qlC6GF0TRNQCq4NRMgZv2k55b7OmA3OiPwY28yDpj/1Q+rrfW92mfBA6wqOS6l9ZOR4k3GXTD3w039YccXtEhk/o5cBPKf2W2G/4uSOM864zyJA5uyn8DUnlfMnXXXdYJpRfsjudpeS9Kj7Yu6J2ww7rgVSpjBdZW6wIAgD932RokB1bTkc0OwP+zjiDan2Bg+mIoFlh3lIIMfSuk4RjrjLLhJn8b0ni8dcb+NAR+8B99eYDKezZOsee8oKSnu7gR74Wb+oOKfPFJpeFGfQjSeIJ1Ru8lB8FN/Ip1RVmT+qPghv1/9u47TK6zuh/499x7Z3ZmdrW76l2WLMnd4I5tbLCRXDChgyEQguklCQkl/OiYBAIhBDAQMCWYElNMx2BwETJgjBuuMm6SZat3rbRldnfufc/vj7VstdXOzrz3nve9cz7Pk+eJ7N17vxZbZs4957x/Lx3DOu65WTpC5pweHwRAbZ7WCDiWTnCgPBSwatukEyCc+5ZH0XXWEdI5BFwiHUCpg6ldXz4LTDk9bWg/YQXhwtb4T7WGQoTH/i8QdUknGQW/g6/tmNboZ+s7eiWAMjslI5h1CYKjvgCnF9op91GA4JivAmGHdJKGBPPfr6eaWRAs/Dcg6paOYVVLdmDV3C5goW2mdIJ8oBBUXiidomks3YFVmtdLR3zW07bAph3HzPpeSTmFf9s5iQlXogX2XgFAMO8dQGmOdAz/lOY9sdTdSR1xmDTchaU/lFWmnqi2ZnIEGk153sjOHy1eKQuovADB4k9Jxxg3Ks9HMPsN0jHyoTgFwYL3Saewa3gLeGCldIpsOTjqto/iDOkEDeF4t3SEfbXNzsf+wtp20dtHp9853MLHNocAXiMdQqk9mEFxWLuCgNYoKocdCOb+k3QKbwUz/w7UdZp0jNG8mZejoc4ALWCpTCVh/Fxk8HVHE89BeNy3deeVsiqY/TrQ5KXSMcYlOPwj+XgT54hgzpv93VE0Ct7VYmOESZ90gkMi7cCyIjfL8AWXuIcn/uphhJXJYgHc8FbpAErtUVtWfgcIL5DOkZVgzluAQqucG5EGQrDY2S6s7lpcfl0jn6gFLJUpBj0v7XtQx7EIn/YDIKykfSvVcp44yc+Try3qOB40/WLpGPkSlBAc/kHpFHbtbLEClssL3AuTgKBNOkVjzIB0gn1Q5XDpCFawUAcWdZ++hSY9J9MDdxyVwyNolY+Gl1VOIsDZaoR1ZPXqiAAAIABJREFUQRnBPO2+ahZ1nebsw/cAeAdfOv56lBawVGb4DhQAnJ/mPai8EOGJ1wBRZ5q3US2MSochOKypwzMyEyz8mB5ekIJgxqtBHcdIx7CGd98uHSFbZlA6wai87r6Ke6UT7KucjwIWhEYzwxN/W4TuYACAIjM/XzqEam18LdqJ+fsAWqalPph9CVBseM+32ktw2HukIxwUExYlz6yM++ervrNRmYl7SqcDSO84hOI0BCf+HChOTe0WSgFAcNi7QJVF0jEOibpOA025UDpGPlGAYOG/S6ewhgcedn8vlE1mSDrB6Aoe//5ybDQzFyOEZkik4Bo+/UcPIyjm68SK5vyDdADV2pKw9FkArXMSKAWguW+XTpEbNPFsUPtR0jEOion/ZbyfowUslaEgvXfTYQXhCT/LxYlDygNBG4IjPiOd4pCCee+UjpBrNOW5oM5TpGPYwQm49x7pFBlyeYTQ410fznVg5eD1QLwr81sG7Yt30pTn6ejgvs6QDqBaV/y7ygsY9GbpHFmiKRfpezqrCDTrtdIhRnPO0PXtx4/nE7SApTLE56RzXUJ4zNdBE05M5/JKHQRNPh809W+kYxwUVRaBpurEQ9qCBe+XjmAN994pHSEzHLvVKbQ38riAxY518eWhA4slClinLK9CRwf318nM+m5aZY5/W5nJhr8pnSNrwZy3SEfInWDaS+Dqj/YQybja7bSApTLBN2ECgFTO8QwO/xBo2ovTuLRSh+Tqjima904nc+UNTbkQ1DGuh0bO4t13S0dQgN8jhEK7mg6qMDkfuzAz/jsNZ1/yGKJJszK9qT+0rVllihkUh/gWgJY6CZTajwZNeo50jPwpzQVNOEE6xUEx0d/xNaj7l7a+w1GZSIYqZwGIbF+Xpl+MYMH7bF9WqbpQ+9Gg6S+XjrGvthkIZr5KOkWLIAQL/p90CDtaqAPLaR53YCFxZ4SQKjlplol7MrxZwHTkFzyuoKbuudIBVGupLSu/A8SpHn7lopHdV252CvmOJp4tHWE0HbW28t/X+8FawFKZYMPWS+nUeSrCo78M/SGnJAULPgCQ9dpsw4I5bweCNukYLYOmvgjUfqR0jKaNLHJ3d7TOJgrL0hFG53MBy6UdWDkYHwSQaQdWcOy3HwFF7Znd0D/zmdmdX/Yq14au7TiOgE9J58hc2IFgxsXSKXKLus+UjjAqYnobc31v6rWApbJBsFvAKk5H+LTvA2HF6mWVGi+qLAbNeKV0jBFBGcGcN0mnaC0UIDjs3dIpmscG3HuvdIpsUEE6waioMEk6QuMc2oGVh/1XQIY7sIJSHMx4aT7+0tITAKi7Q0CpRvFylIIwuRJASTpL1oLpLwPCCdIxcou6XD6Pgo+Jl5XOqucjtYClUsfXT+wCYG/olkKEx30LaNM1DcoNwYL/58TOKZr+UiDqko7Rcmj6xUDbDOkYTeO++6UjqKhbOkHD2KERQu3AGp/oxJ+vBuBuZdcdl0gHUPkXx+VPAniadA4JNPt10hHyrTgVVHH3kNl6T9uUf8elci8OBp4Bi19rwYIPgiY+29bllGoalReCJsuvKQhm6S9+EUERwewcnHDdv0I6gQo9nuBy6HRHapsjHcGOLDqwou5BdD/r8PRvlAsnSwdQ+Va7vnQOCO+QziGBOo4FdZ4qHSP/2o+WTjAqAl7Kf+wac5eCFrBU+jh8pq1L0eSlCOa/19bllLJG+shfaj8a1O1ya3C+BbMuAYKidIymaAeWA3wei3epA6ukBax6RSddsx5AmPqN8qHCzCdKh1D5xDdhAhF9Ey36/pxmv0E6Qkug8nzpCIdSrg3WxtzL0pLfICpzdt5Vt81AeMw3nRjVUmp/NOk80b0r2nYtrG2GeydSjhP3tUgHVtQhnWBU5HUHVkb7mupAbbOlI1jBaY8QFidVMeGEnMxbZuYfpQOofEoGS59loDW/H4M2BK7sk807twtYIOIxj1LXSoBKFV+FEGALBSxCePRXgeKU5i+lVBooAM1+o8y9gxKCGa+Wubd6UjDX8/c18W5gcK10igw43Gzi8fJaru2QjjCiMNHvTra9xT2pXj562g/WQd8LjJf8vgCVO/HvKhcxSOhFpDyacpHXOyB9QqX50hHG8kxeVjrsUB+gv7RUqmpT2o8D0PTj7mD260CTz7OQqAUNbwP3PwTuvQvcew+4uhpIBqRT5VIw89UiHYI07YUjb9qUKJrwdO/HOLn/QekIrS10tztsTCkXW+qVl+4rAOkucQ9KMbqe2ZrdHs2Zzcw5qZAqF/BvOyex4W9I55AUzByz6UbZ4v4haBQzveJQHxBllUS1KMOnN3sJKs9HsPhTNtK0hsF1MFt/Dt5+HXj3ncBBn4oTqDQP6DgONPFZoEnngDqOzzxq7hSngSacDN59e6a3DWZdkun91Oho1mvBPX+WjtEw7luR/4cF5GgHVlD2d0Q+6QPMsHSKEbkqYKU3lhke961HAToitRvkFwF4C4DPSQdR+VCLav9DwEzpHGIKk504CKlVkB8PvF8E4NOj/UstYKlUBWROZqbmrrHok34/lc4I9z8Es/o/wFt+BnA81keDBx8HBh8Hb/s1AIAqi0HTX45g9uvy9QYgYzT1+dkWsNpmgLrPzu5+6pCCaS+Fefi96XZOpIj7/yodIX2u7pkKS9IJGlfbKZ3gSVTK0e+vFH+O0NTnz0vt4vn3KmgBS1kQLyu/nBktvfwpmP5ygArSMVqHHyP2p/FvOyfRhbsPupvA00d9yhfM1NSRw9R50sh4lBodJzCPfhzJbc8Ab/5RHcWrUS4z8AjM6v9A/KdjkKz4e3BfC7yRTQFNuSjT+wXTXuJv10Yehe0Ipl8snaJxAyulE7Qujx/UOLP/CsjVAxhOaSwzXPC+lQB5XDEVd5x0AOU/Xt4+gxlfkc4hjWbqDtdMBWXpBPUIk7B24Wj/Ut/1qNTwVSiiyV/yNENnog8p6UVyz0thVv+HvfENroE3/xjJbach+eubgKH1dq7bIqjjGFD58OzuN+2lmd1L1YdmvVY6QsNYC1iqEbE7HVjQDqwx0WHv0W3JzSkx89OkQyi/xYm5HMBk6RySqHIEqLOpXgc1Xn50YMEEeN5o/04LWCo1tcmV4wAUG74AhQim65vzUZlhJPe8Arz9unSuzwa88UrEfz4JZt3lAJt07pND1H1WNjcqzQF1N71mTllGnSeDOjx9QF/bnureHScEbjaekKO56uLSCGHbXOkIdiR9ACfWLxt0nbQVYUWPdG7eW6UDKH/FN5RfCaDlR0xI3+fJ8KCIRcB5fOnBa1VawFJpOqmZT6aJ5wDF6Zai5E/ywNvBO2/M4Ea9MA+9C8ldzwOGN6d/vzzoOjWT2wTTXoKRfbLKNeTxYn2uPiodIV1Bm3SCgwsaf94jjWtunEAIACjNkU5gR0qFZDrmiv5ULtx6dOu0aggvnzCFgS9K53ABTXuxdITW5MNp9IyptWeVD/qGSgtYKjUB84nNfL5W5UfHW34K3vS9bO+58/eIbz0VvPMPmd7XRzQhm8kCmv6yTO6jxi+Y/lJ3T7sbi44RqvGqbZdO8CTKyQ4sTmV8MGCqLM5JhU/cfOkAyk+1JP4igJbvgqTKYn+71VUmyNBBxwi1gKVSw83uv5p0rq0o+RLvRvLQu2XuPbwNyd0vAG/6ocz9PUGV9E8mp/J83RvgsuL0kS5SD+W+A8tV4QTpBI1zZQdWYaIXoxF1SaEDK1jwgVXQE8htCZn5+dIhlF/i31VeQGjtUwf3oGkvkY7QmrgmnWAc+IKD/VMtYKk0HdvoJ1LpMFDpMJtZcsM8/t+yo3xmGMn9r8+8A8wrURdQmJTqLUaWt+v4oMtoxsulIzSEB1ZJR0gVRY4Winw+TdSRHVh56b4CkE4Ba94/OPrF761LpAMof/Afuyay4ZY/dXAPHR8UklSlE4zHSXw1Dngq5fGrJeUyXt4+A02crKHdV6MYXAez5kvSKQAwkr++Bbzt19JBnEUp72GhKc9N9fqqecHUF7q7b+lQct+B5Wjhl/xtjGFXOrDaZkknsMdyASsoTulH1DXN6kXVM6UDKH8kQ7X/ApCjH1KNo8qizNZtqP2YQekE4xHFbeUDVhJpAUulIjbJMU1dQE9WOyjz6L8DxpHKOSdIVrwe3P+AdBI3pdkJUJgI6npGetdXdkRdoMkH7X52Wt47sJzl8+jb8BbpBAAAKs6QjmCN7R1YtPgz6+Fs9dZb05jZ429clZXasrbzGfx66Ryu0O4rOexIx3TdAhzwhkcLWCoVbKjh8UEAoMqRtqLkBvfdD7PpSukY+0p6Ye59JZDooUb7S3OUhSaf7++C8BYTzHiFdITxG94MJH3SKdLjaqeT8WkvxX6Gt0knGFGcKp3AHtsjhFMvSneuvTURgNdJh1Bu4+XoIA4uhxaQn6QFLEGxQ6cG1+eM/f+BFrBUKgLi5gpY7VrA2p959N8BNtIxDsADj8A88j7pGO4ppVfACiYtSe3ayi6afAEQlKVjjBsP5HiMMGyXTnBwrnTXNoAd6cBC23TpBPbYLGAVJgxT2NHwWgfvsRkGm0Fw3AszvAtJdSdMrRecVAEeAtDMi6uLbcVU+ZTE5U8ysEA6hyuofDhowgnSMVpXbYd0gvE6YCzL0ceQyncMavwYtuIUIOq2mMZ/3HcfeOvV0jFGZdZ/EzT9YtDEs6WjuCOtXSwUeDmW1rLCCmjSc/zbFzf4GKD7KVQ9zHAqC8cbQcUcrXiy+HcaLvjQ4wAWW7uguxhmqAd9d283228E77iui3v+PBVA8Yl/Xxr1MwsThqnzjO3BxDP60XU2qOOodoRdXaCwjEN3zhywn0WpPWrXl89iwtulc7hEu6+E+VfAmsPLy3Po3Oq6Pf9AC1gqFQwsbLRPVk8fPJBZ8wUALB3jEBjmkfchPPWPfp+kZVFaI4Q04cR8jcm0AJr6N94VsHhwnc46qPrUHBkfBIBCfn42cs1eAYum/62jbYdWMIa3bTTrvzVg1v7XPNR6JwKYOO6r1HqLvP26mcn26/b950EpDua8dQ3NfDWosngygmIn9i1oTWDmuUS0tpn/CJU/vBylOMH/Qiee9qEFLFlc2yodYdySBKcD+PGeP+s3lLKOr0KRgMaPYHN1vEPK8Bbw5h9JpxgT994F3vR96RjuSKuANfn8VK6r0hNMuci/nWVD66UTpCf0b6TTZc6MDwJAW36WuFvtaitOnmLvYq5gRu+9jyY3HV6N/zhvlnn0I4tQ6y2O/XnjZAYjs+bzhye3nnp4vLy7K17enZiH3rMa1ZWrnxg/BIC3Wb+v8l6clD8GoPGJlByi8nxQ50nSMVrb0EbpBOPG+40RageWsm64q3h40Exx1OeTmFJgNl45MqLhgWTVRxFNe7H+bwiAUtqBRVMuTOW6KkXFqaCu08E9f5JOUjcezHEzARWkE+SLQx1YlKMOLCR2TiEMuk7aClCO/mIAxNs3xLec2YmhtYdnfm8zHJl1X15g1n0ZABBMee46TL0whwVC1Yzh31VOhuF3S+dwjXZfyeOhDdIRxo/p+L3/qB1YyrowiBY2d4FOS0nygTf/eOwPcsXQBpi1X5ZO4YawA4i67F6zMBE04WS711SZoKl/Ix1hfPLcgaXscqUDiyKgmKM95TU7J0XRYe/17Mz0QzLm8f9eGf9+7iwMre2QDgMAZttv5pgH33HAKVmqdfFVKJLhKwB41nqdPpr2EukIamizdIJxY+Kj9/6zFrCUdQbc3BMx0s0re3B1Fbj3LukY42LWfx3gWDqGE2wvFKZJ5+mOMU/R1OdLRxgXHlw39gcpBYCHHenAKkxGnk6p59hOBxZ1PdOJQk/zuJb85YKtZuWHF0knOQDTsbx8gnZhKQBAPKn0PgDHj/mBraZtpo4PusDDDiwC5vI1eLLDRd8JKesoaPKoWDM09se0CN5xo3SE8Rtc6/SJiZkq2n09q6c8+ovKh4MqHh0CNrQR4EQ6hfLBsBsLYaltpnQEuywVsFDo9v9YZzbD8a2n93LPH6dLRxkFJXH8bOkQSt7Q9e3HA/RB6RwuCiZfgDw9ZPASG/CQnw8oa6Xyk11YWsBS9nETC9wBIBmwFMR/3HOTdISGmHVflY7gBsv7WKj7mVavp7JFk5ZIR6gfx8Cwf23mXjOD0gka40gBC4UcNcCwAZLe5q8TRAbk/akFJrlzaQ/67pskHeSQAmgBq8XxVQgDMt8AYP8wgRygKc+VjqCGN3qzV/kAzMfs+X+1gKXS0GQBq89SjBzYdZt0gobwzj+A+1ZIxxBHBYuvt4tTQO1H2rueMO67D8l9r0J84zTEyyqI/3QkzCPv9/J0lHrR5POkI4xLrhe5u8jT7mNXjuTOVQeWpRMIw4nnbYTnLQ9m1aWPcc8tdufxU8CMc6QzKFnxpPI/AzhNOoeTgjbQpHOlU7Q8n1/XEZN2YKn0cLMFrNjCU8c84Bp4cI10iobxph9IR5BncQfWSPeV1+9DnmTWfQ3JbWeBt/z8qYL14FqYNZchvuVE8KYfygZMCU08Gwg8ejCri9yz5evIpitL3C2PbEtiSwUsTDrb75b2wbVrzWOfzv6kwcYcxzdMyNEpAmo8+NryXAAfk87hKuo+e+RwIyWr+rh0gmZoB5ZKB1+FkICmHoPycH47MMaDq6v9fUMDgLf+SjqCvIK917LUnY/9V2bd12Ae+heAawf/gHg3kvtfB7P6k9kGy0LYAep6hnSKuuki92xx0i8doTG17dIJRhRdXY/UAEv7r7jic9cuJ/GtpznfebUXSih+lnQIJSMO8T8AtEIzCppyoXQEBYAH/S1gkRawVGo6K9MARE1dY3gbYKp28vjMlafaDeKBh8H9D0nHEGVzhDAP+6+49y6YR95b18eaR/8d5rHPpJwoezRpqXSE+mkBK2MsHaAh7MjvKira3TkoKu6xcpmgbW5o5UICeNtvH0W8q006xzjpjFQLipeVXwzAr6OGM6YFLEd4PELIwGF81ch+OS1gKatqUZPjg0/QJ/8AYv93gbX8aYRtljoCoi5Qx3F2riXFVGHuf+O4lkeaVR/N3TghTfangOXrSTXesnXqXJaSAXcOXtEOrANwWPB07pzj5L5XLJROMV7M0A6sFsPXoJMZX5TO4TJqPxJU9mUSON987sACEAxNKs0BtIClLAsYdtq9Pa4QW5ODLjTe1uJjhJZGCKn7DIC8fZAOADCr/xPc/8A4P4uRPPgP4L6/ppJJAnU8HYg8OdVeHySoMbBLJ1XaPDRDmqUdWITEz7a+3vvWwMQ+vkc5XvdgtZakrfxxALOlc7iMJmv3lTOq/u5WBoDQYC6gBSxlGxkrW1TZ7yVz6gm8+053ns5LsPSGyvvxweGtMGu/3NjnJgMwK16dn9NJKQB1nymdoi6sS9yz5ePXuCv7rwB/CsN1YFvdeEnV2LlQtuIVr/a1CBQknJwlHUJlY3hZ+TRmvF06h+t0fNAdPp9CCAAUaAFLpYBBdl50DLT27iQAQNQlnaB5HIP77pVOIYaCip3rdPv9etg8/rmm3pxz/0NIHvwni4lk0URP/vcc3gZf9zJ5iT2sNTiy/wqwu3NQnKUdWJwMWblOprjWi4FV3r4AYmLdg9UCeDkiYlwOwO/2+LRFnd48tMu92g7vp3sYWsBSqSA7HVjjHjXKoZw8TeZdt0lHkBNY2D8blEGdJzV/HSm17TDrv9b0ZXjTD2HWX2EhkDxvOuq49kQRS2XGsy4sHt4qHWEERUDUKZ3CHlsdWHGfdxVo3nW7O1XRxjxbOoBKX5yU/xnAidI5XEeTlgJUkI6hAPDQRukITSMiLWAp+wjGyjFAWsACUMhJAWv37dIR5ITlpi9BE473+pe/2fAda2Ok5pH3gauPWbmWJJpwIhC2S8eoiysnzLWMpF86wfi4UsDKye/LJ1nagQUe9K+AtfZrJekMTXoa/7FronQIlR5eVjoMwKXSOXwQ6PigO4Y3SSdoGrN2YKkUWBshHFzn54lMFlHpMDsdPNJ2/0U6gRwLhSea4HH3FRi84dv2Lpf0wjzwVj9HrfZGEajrdOkU9cnBCx6fsGcdWKi5UcCiKEfjgwDYVgHLv9dRbLb8eJZ0iCYFyWBNTyPMsZjpSwA6pHM4jwLQ5AukU6gn5GSv6TxAC1jKNoK1V5Et34VFIaiySDpF03hwzcgoUqsKm9yD1elvhzr33AweeNjuNXf+AWZdgwvhHeLNGGEOWs69EvvVgcXDjixxz10Hlp3CEycDZOVCWeFaL2D8ynwQTKwFrJyKbyi/DMDfSOfwAU04GShaGcxRNgzl4oHkHEALWMo2xgRrl+q7z9al/NV+lHSC5rEBD+ai6t+YJsfnfO7A4g3fSeW6ZuVHvR8l9KWApSOEGfOtA2t4s3SCEXla4A7YGyH0Ta3Hs2+AUXlyUocaD74GnQx8XjqHL2jyedIR1N7y8UByEl+DNi1gKdvstdTuvtPapXxFHU+XjmDH0DrpBH4KKyBfi5hcg9l6dTrXNlWYh9+VzrUzQp0nAeTB4UX5eGLnD99GvmqOdGDlbISwVQtYXF3l9xFZTzmRr4adY4iVM5Ji+T8AzJbO4QuadI50BLUXzstKiKAySQtYyjZrBSzuvdvWpbxFE3PShT64VjqBl2jC0/0ochwE7/i9taPgD3r9bb8Fb/1VatdPXdgOaj9aOsWY2JUOm1bhWQeWK18fVMjXzmxbO7CoONmrJe5m913SEWwpxKXSadIhlD3Dy8qnMfA26RzeCMqgzlOlU6i9DW6QTmDFMAWTtYClLCN7Bay++wEzZOtyXqLOk4DQ2lSmGB7Kxw/NrNEEj/dfbf1Z6vdIHn63f6e27YU6T5GOMDYdIcyUf0vcHenA0h1YB+fZCbZBz59ycHLNEwL4MSeuxsTLERHja9DVO3Wj7jPzcRBVjuRkiTuCIJ6i34jKMu60d6naSBGrlVEE6j5DOkXzWnQcotniircFLDYwWXRHDa6FedzjdRQ+FLDysTPBHz4VZONdgBmWTjEiylEHlhkCzKB0ChFJzx/ys/GZtYCVF7Ep/wuAnOz0yAZNPFs6gtqbqebm9RwFNFELWMoavsneAvcnr6ljhKDJS6UjqEbVdjb3+Z0n28mRMe69Gxjemsm9zJrPe7uniTz43zc3OxN84VEHFmf0PV6PXI0QtuoDH8BgeFuOWjboTL5UO3Z8x9eX54FxqXQO39DEc6QjqL2MHHzk1UT5qAyz7sBSFlVTKIjuvt36JX0TTHsJQJ5/q7KRTiCCazsa/+SwA1RZbC9MhnjHsuxulvTDrP54dveziDqOBULH9/zGu1u2G0SETx1YrowPAkBhsnQCa2ztv/IO525nRNfwWe3HSYdQzYkDfA5Au3QOr0SdIytQlDuqq6UTWENMWsBSFplBe+ODT+CeP9m+pH/aZoG6PB8jTHqlE8iIGy9g+b3APcMCFgCz4Tvg/gcyvacVFIE6niadYkyck7ZzL/hUvHBpP1quOrA8O4nSFlMdkI5gGzHrGKHHaje0XwjGS6Rz+Ia6zwQoko6h9sIDD0tHsIcwVQtYyp4AZPuSPLDS2/Egm2j6y6UjNMnPQkzTao2fwuft06ukD7zrlmzvyTHM6k9me09LdJG72hvHHo0QutSBFeVoibvN01vDTuuvy1JT25m7AhZIC1i+4mvQBpgvSOfwkY4Puod35WeiicC6A0tZFHAqL5S0CwsIpr3I76cZxfyMd4xHU0fMd/g5ecC7bhVZ7Mxbfgrufyjz+zZtwvHSCcamDxGy49EOLJcKm5SnJe42O7CCoj8FrME1eRshRABd5O6ruFh6LwA/9zgI0wKWe7jnZukI1hiiTi1gKWuGTWh9hBDQAhYAoDgNNPX50ikaRu1HS0eQUX204U/19e+Md90qdGMD89h/yty7CeRBoZIdKlTknlcFrG3SCZ7i+i65cbC5A4tCf3aic/+KfGwY3gsD83l5eY50DjU+1WtLCwB6v3QOLxUmefG6ppVwdTXQzAN1xxCjXQtYynnc80fpCE4I5rxFOkJjKAB1nS6dQgQPNFrAIlD7kVazZIV33SZ3780/Hhk79gi1H+1+d2VNC1iZif3ZF8g1VwpYlKsCltUOrLDszet8s/PmsnSGNCSJdmH5JgrpMgC5/HpMG018lv8HT+VN1ms90kYo6VeYch73PwDUdkrHEEcTz/ayK4e6zwLaZknHkDHY4KkfpTlAOMFuliywyX7/1T73j8FrPid3/0YEJfdPmxx2aNdR3vl0CuHwVukEIyIPf1YeitVF/v68zKedN+Zz1wBpAcsn8bLK8wH4O/IgjCY+WzqC2k/uJpkYbf78ZlOtiw14V35mdxtHIA+7sGjG30pHEMLggcYKWD4WKgGABx4SP0HLbPwB4NJy6Xp0HCud4JB0hDA77NOJra50YIU5O+HeZgEraHe8vfNJxgxvyWXHC7MWsHzBN6MM5sukc/hMC1juMduvl45gm44QKj/wjhulIzghmPkqIOqSjlG/4lQE018qnUIEVx8FTLWhz/W2gCW1/2pvpgqz8bvSKcaFOhxf5F7bIZ3AModX7QgXgMfDlcIm5ayAxR59DVjDSe4WuO/l6bwcHdIh1Njigcr7GVggncNbxemg9qOkU6i9cN/9wOBa6Ri2RVrAUl7gHTdIR3BD2IFg7j9Kp6hbcPhHgLBFX7c1swuqw88CFnr+LJ0AAGDWfgXgWDpG3ZwvYOVo+ScAt/dM+bTE3ZVOxzztvwKAuMfapTgo+dGBZaoezc6OWxib0mnSIdShDV7Xthjg90rn8BlNOkc6gtoPb/uNdATrGOjSApbyAvc/NNLRohDM+wcgSuXAR6uo/WgEs14rHUNMM8vMtQOrSYNrwduvlU5RN3J9hNCVUbFWwMaPPVjxLsAMS6cYkbeHJBY7sCgIrV0rTTy8bUA6Q6oYz5COoA4tDOgLAPw5ttNB1P0s6QhqP7z9t9IRrCMg1AKW8gZv1y7ap94zAAAgAElEQVQsAEDUjWDOW6VTHBoVEBz9FfdPV0tRcwUsD1uwazvBA49Ip3iSWf9N6Qj1K811e2l/bcdIYUVlw4MCFruywB1w+3unEVaXuId+VLAGVuZ5hBAAnSqdQI0uvr78EoAulM7hO+puzRPHnVXb6c6DZbs6tIClrDFRuttn81hFblQw7x1OP3UOFn4E1NXCHfPJALjvvsY+1/Vixii49064tFuIt18HDK2XjlE3aj9COsLoOMnhHix3cYO78zLlUldeznZg2SxgsS8FrF235P39yBnSAdTB8bVoNwTPji92UGGinw9fc4y3/3bk9VsO5f0XhspQKaZUH9Hzjt8DZjDNW/ijMAmBoycS0uTzEBz2LukYonjnjQ3vYPL1BQD33isdYV+cwGz8P+kU9as4XMACwK7sO2oFsQd7sJzqwMrXDiy2WMAiImvXSlOyY5n7exGaM6O6vDRfOoQ6UByVP0TAPOkcvqOuZwDw4+dNqzBbfiYdITVawFL2UJBuC7ipgntuSvUWPgnmvxsoTJSOsQ/qPAXhcd9Fq/8S462/avhzvd1/1WjHWYp401XSEepG7UdKRzi0vC1yd5lxf5rKpYIm5ayAZfUkyqDgxxz/rtunSEdIWyEhna9yzNC1xaPAaO0nrpZQl355OyXeDd5+vXSK1GgBS9nDxdTbo3ibjhE+KepGsOD90imeRJUjED79p14smE8VG5htv2788z3twELvPdIJDsD9D4wcIewBqjhewHKoYJF7PnQau1TQzNPvnKQvtyMfo+NhwOT+qRfrInfnBEF0GYCidI48oC6dknUJb/2lFw/DGqUFLGXP0p0WHxsenC5y31cw5y2g8kLpGKDKYoQn/Roo5v4h6ph41y1NjddQ+zEW02TEVJ1a4L433vxD6Qj1cXkHFhxb2p13iQ8jhA4VNPO0A8vqAncACAqWL2ifqeX7BMI9CC28GNQ98Q2VF4H4fOkcuUARqPNk6RRqL2bLT6UjpEoLWMoaIjCAVMu9PPAwuPpomrfwCxUQLPq4bITOkxGevAxomy2awxW89ZdNfT5VFltKkh3u+2vDO7/Sxlt+IR2hLlRe6PapnTUtYGWGa9IJxsQufT3kqIDFNscHAXgxzh/vcv/YTTtO4qu028cFvBwlgD8rnSMvaMIJudtF6LW4B7zjd9IpUqUFLGWbjhFmjKa9ENT9TJl7T16K8KTfaOfVHmYQZuOVjX9+1OncXrN6uLj/ag8eeATc/5B0jLEFRVB5gXSK0bnUcZN3Xixxd+gUwiBHb5wsd2Ax4P4phMOb8zvnsq9SbXL5BOkQCoiT0r8y4PAvXL+MLHBXrjBbfgGYYekYqdIClrKKgfTHCJtYkJ1XweL/BCjLb2dCMP+9CJ/+MyDsyPC+buPNP2lqV5DTBYxDcXD/1d54+2+kI9TH4e47Ht4iHcGiVA/MbRqbqnSEsdV2SCd4EuWoA8t2AYsocL4Fi6trWmfpF0MXBQnj68vzAHqfdI48oc5TpCOovfCmH0hHSJ0WsJRVBKS+y4B7bgJqO9O+jVeo8yQEs9+Qzc2iboRP/wmChZcC5P7D3SyZdZc3d4Hy4XaCZIz77pWOcEi89RrpCHUhlxf452mJe9wrneDQjPsjhPZ3NSkA9juwmJ1/nc8DDzhfZLNG92CJiwmfAZCjtk0H6P4rZ/Dg4+CeP0rHSJ3zv9iUd9KvLHEM3ubHG9IsBQv/DShOT/UeNPl8RKffDppyYar38RHvug28+y9NXcPLDiw24N4V0ikOiXffDiQe7Al2uAMLuerAclySeiNz0zjukY7wlCg/XcC2d2ARZdqa3Zjdd5akI2QlMFrAklS7oXQugJdL58iVqAtUkT9MSo3gjd8H2O0ucxvc/8WmPMOZvKo1W6/O4jZ+iboQHvHplK7djeCYryI84ee6rH0UZu2Xm7+IhwUsHlwNJK53tAyBd90snWJM1H6kdIRRcZ46sFznw+4KpzqwctQJ7NTfazbMrr/4t/ixQUxYxNd0TJXO0Yp4OSIQviCdI29GTh9snSZKtzG4mT28HtEClrKKiTJZjME7lgE+7AnJGE1/OWjSUosXjBDMeTOiM+5FMPM19q6bM9x7N3jzj5q+DpUPs5AmY71ujw/uwTvdb6l2e4RQx7Yz4/rvtng3wK2ztihT1gtYHnRgDa3J0RKzsSVtRhcGCagl5beD6TjpHHlDOj7oDO75M7i6SjpG6hjY5f4vNuWVwCCbza5JP3j7skxu5ZvgqM8BQbMd+QSa9kKEz7gNwZGf11MGx2BWfhAAN3+hsn9t2OxLAWv3ndIRxhZ1A0VHH85zDUg8OB1Ppc+l8cG8abEOLGaOpTNkjdmcKp2h1fA1HVMJ+Jh0jjzSApY7eFOLdF8xhrWApazigDJ7ZaunER4clRciWPD/GvvkoIhg1iUIT78D4fHfd7sjxBG8/XrwjuXNX4giUGlO89fJmOsL3PfwJSdVdIyw5Vneg2Qbu1ZkCcvSCazhmvW/W6dnewim5QpYAGkHVsaSYvzvALqlc+SRFrAckQzAbP6JdIpMMKGqBSxlF3NmcyZm2691jGEUwWHvAU19Qd0fTxNORLD4U4jOfBDB0V8GtR+dYrocYfNE91XzqG02QAUr18oS97m9wP1Jw1uBoY3SKcbk8h4sHSPMioVuzjTVHOvA8vDn5qhcKw6mrxVfxGkHVoaGr2s/gUFvlM6RS8VpuhfXEbzlp84//LKoL5JOoPKFmLcxZfTAr7Yd3HMzaOLZ2dzPJxQiPP57MBu/C974XXDvfU8t2g5KoLaZQNdpoO5ngiaeA6osks3rKbPuK/YKOJXD7VwnS0kvMLhOOkXduO/eka99l1WOkE4wOi1gKaAViyzZsXkCZVCpAXC8uud4sTYdM3h5eQ6dW/Xnl6enmEHxMvMF5OqkB3dQx9OkI6gnmA1XSEfIDmFYC1jKKibemGXHOm+9WgtYo6EAwazXArNeO/LnpB+AAcIJorHygvsfgFn5EWvXo/J8a9fKCvc/CJ/egHDvPaDJF0jHOCSnO7BiLWBlgZMB6QiHpjuw0mOzu604ZRDOF7A8+gViUWJwKgAtYKUsWVa+GIC+SUgJTTheOoLCyPsR7vmzdIzsMPp0hFBZZTjalOX9eJvuwapb2K7FK1u4BnP/G+2eFlZaYO9aWel/SDrBuHD/A9IRxuZwAYtdGx3LK8f3Wju3A6vpQ0vcwRZHQCgouD+eR6HrBbZUMJOOEaaMb0bZAJ+WzpFn1KGHOrqA17dQ99UI3YGl7CrWKNsCVvUxcO89Wd5SKZjVnwT33mX1mlT2r4DFw5ulI4yPDzuw2uYCgaNLqWtbpRNYwbo7sTmJxcK9DUGbdAJ7bO4wKcwcsnextFCrToLoIveUxQOl9xAwTzpHrukIoTwzCNMipw/uwaSnECrL6KK+rQCGs7wnb/lplrdTLY57/gzz2H/Zv7CHBSwMe1bQ8KCABQpAlYXSKQ4uLx1YSb90gkMzg9IJDs31vz9fsXlqV6UFQTTB7Va+ESGKkxyriGaBT2F2+4RIn/Gy8myAGjyOW9UlaAO1O7yzs0Xwlp+33H7SgNGjBSyVhi1Z3oy3/CzL26lWNrQeyYq/S+X0S/JwiTvXtktHGBe2OfKZJldPAW2xF0lijOONM1yTTpBPlkczTWGiF62GwfRXZdq574iJQ9e36ek5KakxPgWgXTpHnlH7kfk6AdZTZv03pSNkjpl2agFLpSHTNgceWAnuvTfLW6pWlAwgufdv0+niiTqBqNv+ddPm+K6eA3hyxDA5ehIh6xJ3BVjtErIiKEonsML2brGgMNmLH9A042IjnUFCFAY6RpiC4evLpxPwaukcuafjg+JGlrf/STpG9oh3aAFLpSHzk1V4y0+yvqVqJZwgWfFa8O47Urk8leamcl21n7BDOkFdqH2xdISD0w6sbLheGDaZbgkYW166ACwX2DmseHHCH3WeNFM6gwQGdJG7ZcwgInwOWR6H3qLI1U7xFsLrvopWPMiVibUDS6WA8FjWt9QxQpUm8/C7wNt+nd4NSp7uGfVs/y61zZCOUB9XXxh6NjLqrWRAOsEhsWs7uvKykyu2u2OO2mZ4MUIIBJVw+kvWSqfIHONE6Qh5kywrvRrA6dI5WgG1HyUdobXFu2A2fk86hYiAAy1gKfuY8Xjm99QxQpUSs/LDMOu+nuo9yNMCFrX59eCcOv144E3lhQC59+tZRwgVACDuk06QT7ZHnD3qTKNj/neCdAYBJ+gid3t4OToY9CnpHC2joivcJJmN3wOS1vxdzMZoAUvZFzA9JnFfPY1Q2WZWfhjm8f9O/0blw9K/Rxra5kgnqF9YAc19m3SK+oQVN/9udYQwI46PBLi2xD2FQzVEWN6BheIUu9dLU9DWHR71pYelY2Sse2hZycPjh90Um/IHAcyWztESqADy8eTs3GDw2i9LhxBjomibFrCUdSbUApbyHcM8/N5silcAqM3PHVje7EAIKwiPv9LZ5egH42R7vhlyfrwtF1w/bMC1p76u5WkQW+/AKnnV3UOzX7+YZrxqjXSOLEVMOkZoweANbUeA8U7pHK2CKod7t0IiT3j7MnB1lXQMMcVYO7BUCgpJ8TGJ++oYobKCa0jufxPM2i9ld09PO7Co61QgaJOOcWjFqQhP+i1o8gXSScbF2WKbjhEq15a454XlHViIOrwqYAGg8NhvzKauszZLB8kKB3SCdIY8CDn8IgDHX4zkSFnHByWZda3bfQUA6BjQApayj87buQuAyLscXeaumhLvRnLPy8Cbsl2M6OsOLAQlUPdZ0ilGRZPPR3Tan0GdHp5W3u5mAYuHdZF7yzNV6QT7ys0Iod0OLAq9K2ABQBiect3UYP57WqO9gM3J0hF8F99QeRGIz5fO0Uqc7BBvEVxdBd5+nXQMSQN0JqpawFJpWS1xUx0jVI3igZVI7jgHvP36bG8clIHitGzvaVEw+3XSEQ4UdSE4+isIT/g50DZLOk1DnH2BGO+QTtA8jqUTHJouSR+fnIwQWt+BFUY+FrAAIAgW/tvC6NQ/rEQQGekw6dIOrGbwzSgD/FnpHC2nslA6Qcvidd8AOOc/Fg9tPQBoAUulghkPidx34BEdI1TjxttvQHL7s8D9D2Z+byr5uf9qD5ryN+4s8wyKCOa+HdGZKxDMeq10mqY4O0JYszzmJCHpl05wSAzHX5y6VgB0fWdYndhyAYuDCX4vqek8ZVF0bs8QzXrjY9JRUjSTl7fPkA7hq7ha/ggDjrwAaR3eTg34LumH2fAt6RSyCBsALWCplBBx9pWAJ+gYoaobxzArP4zk7hfa3z9Sr7LnLwSCIoIjsll2PyoKQNNfivD0vyA44jNAYbJsHhuK04CoSzrFAVhPImx57Ngif056pSPYYb0QR752YO0lKIdHf2F+9OyNm4NJSzZIp0lDYlgXuTdg6Pr248F4t3SOltSmhz1KMJuust+p6xk2WsBSKSKQ2HHIvPnHUrdWPhlch+TO5z5x0qDcsfV5eJJFUy5EMOfN2d84rCCY8yaEZ9yD8Ljvgsr5amt3cowwDyOErnOsQOS8nHRg2X5jQlEltHpBSVHX9ODEq2dFz964OZj6vPXScWxiNlrAGie+FEFA5nIABeksrYhKWsCSwK2+vB0AETYCgN/txcpZxgQPUiAzBsHVVeDdd/i5uFllgjf9EMlD/+LGk4wcFLAAIDjiv8HxLvCmH6Z+L2o/EjTjVQhmvz4f3VajoMoR4F23SsfYV00LWKnjmnSCQ3NthFB3YI0izN9D6qhrevC0HyEww7vMxm9vNg+/exFM7Pl/J2kBa5xqz6y8hcBnSudoSVEXEHZIp2g5vPMP4L77pWOIY8Y6QAtYKiWFof6H43KZAYi0sPPmH2kBSx0o7kHy4Duc6tKj0mHSEeygEOGx34SpHAHz2H8CZtju9QsTEUx/GWjGq0Bdz7B7bVdVHDyqWkcIlWs7xOJ8jBBa34Hl8Rb3MQXFrmD2m7qC2W+M0btidXLfKydxdfVE6ViNIEALWOPA15bnxsSflM7RqqhNV7ZJMOu+Jh3BCYHuwFJpoudjgIG1Uvc3m3/c6qc0qP3wjuWIbz3NqeIVAMDzJe77IgQL3o/wGbeDpr8MoCa6+ykAdZ6EYP6/Ijz5OkRnP47gyMtap3gFuLMcfy8cawFLOSY3I4R2/zsoCPMzQjgqijDh+IXhmfdPjJ69cVMw+3UiJ2A3g4HD+Rp0SufwATMojnAFAPcWRLaKwlTpBK1ncC146y+lUziBiXWEUKWLmB4Escx81NBGcM8fQBPPEbm9cogZhFn1UZg1X4LkrqvRUDknHVh7ocpihMd9BxjaBLPtV+AdNwK994AHHwM4OfATgjZQZSHQfhyo4zjQhONBE04GilOyju4WF08i1A4s5djDIdudSyLMEGAG7V6Twtw2YB1U1DUjOOp/EBx5WT9vu3p9suJNC2AGfNiRRHGhdBIweKN0ENfVlpX/iYAl0jlaWjG/axtcZTZc4d7ovpAk4A2AFrBUmojvAXC+1O1584+1gNXiuO8+mBWXgPsfkI5ycFQAijlux26bgWD2G4HZbxz5sxkG4h7wXiNIVJgMRPrw+WCoPF86woF0B5ZybedUHjqwUinCBT4Ub+yjqJ2mvviI6NwXG1RXrk5W/H0H777b6bYRDugEADdK53DZ0PXFown4lHSOVkeRl5O6/kr6YdZ9XTqFK7gNQ+sAHSFUKSLi+yTvb7b8zP4eHuUHNjCPfxbJ7c9yt3gFgEpzAGqBKY89giJQnAYqL3jy/7R4dQhRJ1CcLp1iH6wFLOWaHHRgpdNFRq3VgXWgAOVFC8JTb54aPXv9Rpq4ZIN0oFGxLnI/FL4DhYDC7wAoS2dpecVp0glaitnwHaC2XTqGKzbQuRgEtIClUpRweI9ogNpO8I4bRCMoAYNrkNx5IczKD42MZbgsJycQqvRQZaF0hH3pCGFrc2x8EEAuClipdJFR0EJPR8YQTZwZnnT1rPDZm7fStJeskY6zPwJrAesQ4p7KhwDoyUwuyPHJz85hA177ZekULnl0z/+jBSyVmmJ3/wMARM8DN5t/JHl7lTGz4Vsji9p7bpKOUhfSApYaA5UdK2CZqv1dPcofro0PIic7sOKeNK6qr/H3Q9GEqeHx/zcvfPamLUH32Rul8+zlaF6OknQIFw0vK58G8Aekc6gRVJgkHaFl8LZrwNVV0jGcwSAtYKn00SmoAfirZAbe+iv3jvxW9g1tQHL3C2EeeLtf+1C0gKXG4loHFqBdWGlzsEjkNJ9+5o8mnf8GfY0/Coo6pwUnXzszPOux9VQ50oUfaFGNK8dKh3ANL0cHMb4L3dnsjkgPgMyKWfsl6QhOITYr9/z/+stNpYoZ94oGSPrB264RjaDSZTZ+F/EtJ4G3Xy8dZfzKWsBSh0blw6UjHMD7PViud5C5OKb3JPdOcgXXgGRAOkVTUuoi09f4Y6C2abPDM+7qDk+5cSWCkuwxX2yOF72/Y5hBcVL+JgAHj+NtYbq3NBPcew945x+kYziFtANLZYUC4QIWALPpKukIKg1DG5Dc8xKYv77F2yfwOkKoxlRZLJ3gQL4vFNXDPRrn6s9a38cIU/l7bfUd7nUj6jptUXTOtiRc8L6VY394SiGYtIC1l3hZ+Z0AXi6dQ+1HC1iZMGs+Lx3BOUZ3YKnMJHy7dATecb2OvOQMb7wS8S2ngLf9VjpKc7SApcZA5QXSEQ6Uzr4epRrm/R6sdPJrBWs8KGijwz+yKDx73SYUZwvsntAC1h6160rPBvBp6RzqILSAlb7BteDNP5FO4ZxCFOkIocpGVBj8C4BENIQZhtn6C9EIypKhTUjueRmSv77J/zfRFIJKc6RTKNdFnc4dW+39CKHKH1c7w+plu4AVRC7PoTqNipNmRGc/0hYuvPSRbO/MWsACwMvLcxDQVQD0FE0HUagFrLSZtV8BWHai2T20m87t3bbnT1rAUqmic9EH4gekc7COEXqPN30P8a0n52enWXEGQAXpFMoD5Noid9+Lx6ph7GqhyPMX+9b/Xouz9PSa5kQ0/72Lw2euXJfhbqwZfE3H1Izu5SS+fmJXnOAaAG49tVFP0Q6sdCV9MBuukE7hIH5w7z/pqQ4qdcTBbQw+TjID9/wBGNoAtM2SjKEawIOPwzz4z+Dt10lHsYrKh0lHUL4oLwR6/iyd4inagaVc4/pi/rHYLgqH7X5X9BxBpVlzonO29MW3nTGEvvsnp32/uJh8Nb6htPXQHxWEDK6visBoA1GlvrtzO4BiPR9JjC5QXU0QxEB3ffdHIcZgR50fqyQEJSCo60tENchs+K7/Ox1TQEz37/1nLWCp1BngNgJeLxqCDcymHyI47J2iMdQ4sIFZdznMqkvzeax8aa50AuUJqix06+w335e4q/zxfTG/5Q4siiZ7/hfiEIo6omfcXk4eetdqXnd52ksJX8xjri4bx28DGufH14l1u1pr0u6rdLEBr/2ydAonMfGKvf+sI4QqfQHukI4AALzp+9IRVJ24769I/vIcmIffk8/iFQAqaQeWqg+V3Roh5JqOELYsV0cIfWf5iTsVJ9esXlCF4ZGfnR8e/hGxUwqVkkZawEoVb/0luLpKOoajzH17/0kLWCp1BRq4B4B4fz/3rQD33Tf2Byo5Zgjm0Y8juf1M8K7bpNOkSwtYql7O7cDS9vbW5VQv4FOSXukEzbH8PcVhuy5xt49owfsWBUd+PuPl7ko5QgtYqTJrPi8dwVlRGGkBS2WLzkUM4HbpHADAG7ULy1Xc82ckt50Bs/o//B8HqQOV50lHUJ5wrQNLl7gr57Df9Rq2XMAK2mZqB1ZKgjlvXpz9CYVKOUBPIEwN77ot/w/uG7eDzu3ftPc/0AKWygbTH6QjAIDZ/EPvX+jmTrwL5qF/RnLneeD+B8f++Lwop71KQ+VG1AkUp0ineIqOkbWuxNXD7RLpAM2x/T0VlBxtlcsHmv/eheHk565P4dI3E+jFICxL4dpKNUc7sFJj1n5ROoK7CAeMT2kBS2WD6CbpCACAoY3gnculU6gn8KYfIP7zCTDrvt5ahUUKQbrEXY0DVRZLR3iS7W4R5RF2s1DEsauFtTokfdb/Xrk4VQtY6QrohB9Po8I0q194BHogWjrw88KS6lKThMcT+KsAPP7iVrmiBaxUcHUVeMvPpWM4i4wWsJSQaLj/ZjjyiNToGKE4HngEyV3PQ3L/64HhzdJxstc2C6CCdArlk5JDHXtawFLKnhS+nygsawErdVQITvvTDptXZOInRxPbLuhbES0dfGvUVpwLwr8SsNrmvZQaL13ing5e+2VnHw65wIDu3f+faQFLZYIuwm4A90jnAEZOeXB3DCLnzCDMo59Acutp4B2t2wmnJxCq8aJ2dzqwYIYBU5VOoSS4+rvTiJ8T0zBOYyQ36rJ/TXUAKs2eG8x8zePWrgc8fMA/O3vXzsKS6mfCm6qLiOlFOl6oxOjPFftq22E2fFs6hdtCOmA5mBawVJb+KB0AAJD0gbdeLZ2i5fCOZUhuPQ1m9ScAMyQdR1ZZC1hqfMi1nWm6B6s1cSydIH/S6GgMOsj+RdXBBEd/0dq7+iQOR10OT5fCROcN/KKwpLrUIHg6gb4FoMVfTKlMRROkE+SOWfd1IBmQjuGygcK2/hX7/0MtYKnMEDtSwAJgNukYYVa4ugrJva9EctfzwQMrpeM4wblihHKfQzuwAIBrehKhckhQkk7QuDQKWGFJC1hZoWI3dZ9uYxdCUkz66jrdsG1p/73R0oHXRWEwH6B/A2GrhfsrdWhhh3SCfDFVmHWXS6dw3R108YEriLSApTIT1sI/AHBiLwPv+F1r7l7KUtIHs+pjSG45bWRsUz1JRwjVeFH5cOkI+0o87sBKeqUTeItdHR0lj+s1qezA6tTX9xkKjv5q098YBKyhi8bXUUXn9m8qLB34aBRU5zHRmwC+v9kcSo2GQu3Assls/AEwvEU6hutuP9g/1F9wKjN0Ud9WAAcsYhPBCcymH0qnyCkGb75q5HTBx/5Td+UcjI4QqvGKuoDiFOkUT/F5kXsrnXhqm6lJJzgon99YpbEDi4PI44qef6i8YGqz12DwQw3f/1wMFpcMfCNaMng8yFwA8G/hyANjlSNhRTpBfrABr7lMOoXzCLjlYP9cC1gqW4zrpSPswTpGaB333oPkjiVIVlwCDG2QjuMs7cBSjaDyIukIT6l5XMByncfFGNWAVDqw2kPrF1Wjo6jpd/bE1PSOBSJwYcnQdYWlg881SI4j8NcA6FNEZUdYlk6QG7ztGvDAAWc2qP2ExNqBpRxAgTOnp3DvPeD+B6Rj5ENtO8wDb0dy+zPBuw5aLFd7BEWgbbZ0CuUjh8YIUzk5TY3weRxOSuTxbpYUCliMUF/fZ4tQnNRUocgEaLgD62Dalg7/NVo6+JYojOaB+cMANtm8vmpBgXZg2WK0+6oem2jJ4EFPedVfcCpTUaX/93Do1BTe+D3pCH4zwzBrLkN883EwG76lozl1oLa5AOmPXjV+VHGoAyvRDizlEJ+Pd0+jAysq6S+ZrA33NHWSAHGQyik3dG7vtsJ5gx+PdlQPI/AlAO5O4z6qBfj8c9YhvOs2cM+fpGP4YNS/JP0FpzJFZ6KKQ3xBZs1s+oEWXRrC4M0/RnLLyTCPvN/vfThZK8+XTqA8RRV3OrB0hFA5JeqWTtAwTuN7iSIdIcyWAUxTrZNxmDxoK8zB0MUYjpYOfruwtHoiwM8BcDUAfQGs6qcjhFZo91V9GLR8tH+nBSwlgG+QTvCkofXgnb+TTuEVrq5Ccse5SFb8Pbi6SjqOd6g8TzqC8pVLO7C0aN2agoJ0goMijwtYqYwQcqAFrCyZeKDJKwyUfj+4xkqWOhSWDi4vLK2+IDHmKGK+HMBgVvdW/qJAC1jN4uoq8NZfSMfwAnM86ht0LWCpzDECdwpYAMzGK6Uj+KW2E9yl6KAAACAASURBVLzrNukU/iotkE6gPEWVhdIRnsRawEpP1CmdYFTOvoEpeDzaktjfJ0dBIbJ+UTUqHnhoS5OXeIguzb4bqnT+0CPReYNvi5LwMBB9HMCOrDMoj4Tt0gm8x2v+Ryd/6rO+7bzhURdVawFLZa5w08BfADT7y94a3vJLQBcS140qi6UjeI3KegKhalDUBRQmS6cYoQWsFDm8xD1ok05woLDD75Mbaz0pXFRPAsiSeehdTb2zZ4LoiUJ0Qd+WwpKBD0dJdR4T3snAQRcnqxYXefxz1gW17TAbvi2dwgsMjDo+CGgBSwmgS2EY9BvpHE8yVZjNP5FO4Y+oCyhOl07hr5IWsFTjnFnkrkX/1hQ0tac6FVSaIx2hKamc6EmhdmBlxQxs554/NvWiiAw7cSQ2XYD+4pLq5wvd1cUEfg2Ae6QzKUcEZTj9cMUDZt3XAdPUYaWtg3jZof61FrCUiID419IZ9sYbvysdwSvOvIn2kHZgqaaUHRkjjNPoGlHOc7EDy/MCVkrFYH19n5HkvkuaPlmbQH+1kcUWOgW1aOng/0VLqieCgwsxRjeEagG6wL05pgqz7ivSKbxRMHTIBdX6C06JCE3pOgA16Rx78K5bwAOpnGCcS9R+pHQEP4UV7V5TTaGKGzvUUukaUe5zsQOrzeMCFhsg6bV/XQr09X0GeOCRx3jbr2Y1e50EiRMdWPsjAhfO67+2sLT6HDZ0Kgg/hZ5c2Jp0/1VTzMYfAMNbpWP44iE6r3rIQy30F5wSQeft3AXgJukce+ON/ycdwR/agdUQ0vFB1SQqu1HA0h1Y6SGHl7ijMFE6wYHK86UTNC6t7yOGnkKYNo77k1vPmG3hSrXixGHnn6AWzx+4o7Ck+lIThE9jwvcAJNKZVHYo7JCO4C824LVfkk7hk1+O9QFawFJyCNdKR9ib2XilngxRJ6poB1ZDdHxQNas0XzrBCC1gtSQqTJKOcADqOF46QsNSO82TdFlNujiJb33GMMxAoflr0Uo6xZ2JhLG0Pafv/uKS6qsTY44m0DcBDEtnUhkIK9IJvMXbrgH3O9lk6aqfjfUBWsBSYowJrpHOsI+h9eCdOuZfF+3Aaoh2YKlmObVDTccIW4+DHVjUcZx0hMal9j1E+vo+PYbvftkm9D9g55uB3FjgPl6l84ceiZYOvCFiLCbgfwAMSmdSKdICVsOMdl+Nx8bopuqtY32Q/oJTYtrO67+PgNXSOfZmdIywLlReAJCFB4+txudRF+WGtlnuLNL2dpG7Tr40jAqASyOOURdQmiudonHefg+1rCRZccmGZPtvbIwOjmB60Nq1BNB51TXR0uo/RjEdDuCzAPqlM6kU6A6shvDuO8A7/yAdwxsE/iVdOvaePS1gKVFM+Ll0hr3xll9qV0E9KAJVDpdO4R1n9hcpj5EznXy+LnLn2PX3V26/NKM2e+/dm0UTTpCO0Jz0vod0hNAyZo6TOy/aypuvsnpqAME4dQJho+jCgY2FpdV3R8PhAoA+CaBPOpOyKJwgncBLZs1l0hG8whyOOT4IuP4qSeUfc11fqJkxVZjNP5FO4YeyjhGOmyOFB+U5Vzr5dA9WOiLH3yi48vUHgCadIx2hOWl8DwUVb/Yp+cMMJredvpt33jjD+pVNeL/ta0qii/q2FpYOfCBCsAjAF6A7snKBgrJ0BP8MrgFv+YV0Cp/sinb217XLRwtYSlR00+CfAGyRzrE33vhd6QheoPajpCN4hxx646f85cweLC1gtSSqLJaO8CSatEQ6QlNS6WIsTtFdRDaZge3JTYsM+u5L4wSDuBDnc7szLe3fXFha/eeI+AgGfRsYeyxIOSzUAtZ4mTWXARxLx/AGg35BF9dX8NYClhJFl8IQsVPlad51C3jA+RON5VUWSifwS9Q9sq9FqWa5MoqqBazW5MohHoWJoAknSqdoTgo7sKgwccj6RVsU9z+wOl4+bRIPbUppgzU9TBch1/970ZLBx4tLBy4xSI4H4acAWDqTaoDrncGuiXfBbNCGiPEgJHUvotYClnJA4NYYIQDWZe5josqR0hG84kzXjPKe7sBSklzZO0WTzwcolI7RnDS+h4IJekpB84xZ+6WVyS0nLwBMavvEGHxfWtd2TdvS4b8WllRfyoTTQVgmnUeNU1CSTuAVs+7rQKJr4MZhQ3TTUN0/F7SApcSFQwO/A8ipd0Jm45UAa7fzobg0RuIFHR9UtpQdOUBBT1BLh+NFGZpwohMLfYOZr5GO0Lw0uhhLM3XnUDPMwHZz64m7zcPvTb3VkKh1Clh7FJdUbyssqS4FmQsAysUC+5ZARekE/jDDMOu+LJ3CL4zv1XP64B5awFLi6CIMMfOvpXPsY2g9eGdde+RaV3EKUJgoncIbVHJk7Et5z5luPu3ASofrx5VTCOo+QzZCeT5o4jmiGWxIo4uRgjZ9+tYYY7Ze/Ui8fMpk0/dQdxY3JAparoC1R2HJ0HVR98AJAN4DoFc6jxqDrsCoG2/+ETC0STqGV5iDK8fz8VrAUk4IAvxIOsP+zIZvS0dwHlWOkI7gD1eKDq4b2giurgZXVwND63UB5sG4sk9Nd2C1LJryXNn7z7oEoBy8hE3je6httv7QHCce3rohvvnoPnPvKzJtLa/VTMsWsACATkGtsLT631FMR4LxS+k86hCCgnQCb5i1X5KO4Jv7iuf33z2eT4jSSqLUeIRB9TdxUtkNcKd0lj1469VAbQdQSOPgmXygyhHgXbdKx/CCK3uLnGKq4K2/Am+/Adx7F7j6KJAM7PsxFIJK80GTngWadB5o6vMA0hdSVJ4P7r1HNANrAatlBTNeCbPyQ0DSn/3Ni1MQzHlr9vdNQxrfQ0FJl2TXi4d7+OF39iTrrpgvcPf+0p8HHxe4r3PowoGNAF4Y31B6LYMuA+DAExq1Nwr0FMJ68K7bxF+beWjci6dz8PhK5QGdi0EGu/X0xQzBbPqBdAq3uXIalQ90B9ZTTBXmsU8jvmkRkhWvhdn4XXDfigOLVwDACbi6Cmb9FUjuexXiPx0J89h/AaaafW6XuPD1pAWs1hV1IZj+MpFbBws+CETOPOtqThpjuIWJWsAaC8e7zSPvfzT+XXe3UPEKAO4fz86XVhAtHfx2lOB4MF0nnUXtx/XRdkeYtV+UjuAbEyX4/ng/SQtYyhkB6IfSGfbHG66QjuA0ateTCOvlzN4iYbz7TiS3PgNm1aVAbef4LzC0CWbVR5Hcchp45++t5/OFEzvVdAdWOlwYD61DsOADQNiR6T2p/WgEs9+Q6T3TlEYXI0WdWsAaTdK71Tz4jtXx7zo7zZrLRE/DIFBLjw+Ohi6oro2WDlzIzG8AsFE6j3pCoEvcxzS4FrzlF9IpfHMjXVBdO95P0gKWcka4Y+A6AE4da8V994N3/0U6hrvK2oFVl+J0QNuvwduuQXLnBeCBlc1fq7oKyV3Ph1lzmYVkHnKhIKodWK2tNBfBwo9ld7+giODY/wUoR9sv0igChxX71/Qax6g+sjq5/Vlb4hunTzXrv+FA9R8waL0TCOtFBC6eN/jNKKkuBvgDALZIZ2p5GT+s8JHZcIXubR0nJh73+CCgBSzlELoYw8T0M+kc+2Nd5j4qqixy/sh3F1DZidfLosz6K5Dc+wq7O3M4hnnk/TCrPmrvmp5w4WtKd2Clgzw6rjyY8xbQjFdmcCdCePTloAknZHCvjJihVEahqdBN1i/qH8PD2zfwo59YGS+bEMY3P30B775jmnSovZHhcS0tbkV0AfoLSwc/GYXVw5jobcRo/umXakzQJp3AbaYKs+7r0il8Uy0MDf6kkU/UApZyCjs4Rmg2X3Xw3TwKCIqg0jzpFO5zoVtGEG/9JcyD/whwksr1zWP/NbIXq5W48H2nI4TpCEvSCepHAcJjvo5g5mvSvAmCIz6TUaEsQyl9/zAKrVnAYlPF4JrHzaOfWBkv7+Tkj3NnJas/sQgwLv59cERlLWDVic7FYHHJwOXhn6pHEuOlAHRLdtYCj34vCTAbfwDUtkvH8AoDv6SL0NAvQi1gKadEUf8yAJulc+wj3g3e4lxjmDsqR0gncF4rn0DIfSuQ3P96AOmuZTGrLgVvvzbVe7iEyvMBCL8vSwYAMyybQcmjEMExlyM89htAcarda0ddCI+/EsHct9m9rgPS6mCkYleLvLbnYR7evoE3XflQfPMxPfHvOsrxn446zKz+xCKY2OnWcAIepfN2agvrONGlMNF51Z9GS6onEvByAh6TztQyIh0hPBRe/zXpCN4JQA2ND458rlIOoXMRg8d/GkHajI4Rjooqi6UjuM+FE+Mk1P4/e3ceZ1lV3Q3/t845996qHuiWSQZBJudofNQYJfokTVeD4Y0ZHzuJGvNqYt5MxqiPSZyJScRZFATFAQKCiCgoQ1RAxm4QaMYegO6mq7t6qu7qGm/dqe7Z6/2jGuhuarjDOXvtfc76fj75J+LZv5Cquveuu9baw4gf+WNLHYyMeO27gXpOdr4GPUDpGOkU2oWVBi93jRDomLcjeuOjCE75BKi32/3YBHr+SkS/eT/o6D9MJKFz0vrdoUx2YBmYxigqT24x/edtbK566UTz1oXF+K4TjovXvfclqPYvlQ7YDga0+6oLROCor3pNGFZfCeCrSPsbMuXVaLttPHIneEKbAts0GIaVn3X6X87QJkyVFRzS98jwP0vnOBCPrgJXNk3vfFIHW6gdWPOhnBaw4ic/DNS22zuwOYr4ifcjfNXV9s4URL0ng4ULdhyPgXCkaIbM8XmvYLQEwckfAU7+N/DoPeDRu8Bj94PH7wcae+f9r1PvqaCjzgYd/1egrHf3prVDjno8/gHaj+MqGnv38fg9Fd7+ncVm+JfHAli6/3/8x7r/Kgm0DGWg+s/NW3rvZeASADrnlpZwoXQCZ5mBC6Qj+IdxOS1DxxvvtYClnFM8o7Jm6pYF6wF+uXSWZzF412WgUz8tHcQ52oHVghyOEPLQz8C77TdT8t4bwEM3gY482/rZ1vW8EMBq2QxTY4BesJmwLDTHE2jp6aClpz/7v2qOges7p68ar++a3oln6qBoMVA6BrTwFUDpWLnItqXVgRWUvPwB4mZ5CKO3D8ebPnUUJjc8D8ALpDOlhRA8JJ0hS6K+6lVTt/ZuA+NmAHoNZxp0B9bMagPgoY4biXLLhOGl3fz3tYClHGW+B9BnpFMcyOz6HoJTPpmtK7wTQAtfJh3BbRSBek6QTmFXcxzx4+8TO95s+gTCI87yu5OlBdR7kvzcRKwjhInzcoSwBdESULQEWPgy6e1tTuDmaDoPDiKPClgcY2Ld1uZjK49Atf9IIB/tnCFDC1gJKyyvrm7+csGfs+EfA8j2i7+EQEcIZ2IGLgK440aivLq3dEZ5XTcP8OhFTuVJxHQFACOd4yD13eB9v5BO4Z7i0UDhcOkUzqLS8bkrepr+zwH1HWLn8+QG8KBzF5omz4XR1GZZOoFSfkpvB5YHLzjMPHrPpuZtR3Dzvtefgmr/EulEFu2hMys7pUNkUXRG5afM+LB0jsyJDpNO4Ka4DLPzEukU3mHQpd0+QwtYykm0oroNwJ3SOQ5ldugfqploF9YcenM2PljfCTPwDekUMFu/jKzvdaWek6QjAPGEdILsCXVUIxdSuwCB3H5vz/WR5r2vG43XLD8NpuZBsS1hTLr/KkWFvup5AO6WzpEpVJBO4CSz6/vp7TLMrmqBS1d1+xC3X+RUrhHxd6UzHIr3/RxoDErHcI4WsGZHvSdLR7DKbDkXMFXpGODyevDwrdIxUuXC5QDc1AJW4qgknUDZkNYHn6DoblFoYu1TzV8esXT/jqt8ItbxwRQRgWOYvwJQk86SGaGuFXsuBm+X/7LWN0y4llaMdP3ipwUs5aywt3YNgBHpHAfhJsyu70mncM/Cl0oncFeOFrhz9SmYnZdJx3iG2Xm5dIR0lY6T/2Y0tS4SpTIurd8ddrMDi/de+2TzvtefAphcr0AjxoPSGbKup6/+JICvSufICtIbCJ+D990KntwgHcM7xObSJJ7j5IucUgBAp6NKjCukcxyKd16OrI8mtYu0gDUrytEIIW/9EsBT0jGewUM3ZnvEjUJQz4myGTz890vRYukIc3I9n0pGakvcKXBugTUP3fBk/Og7XiydwwVN4gekM+RBhOArAOTbwbNA+osyB5mB86UjeIeBbdHd9URGI7SApZwWI7hYOsOhuPIkeFT46nrH6AjhHFzYU2TD1D6YXV2PtScrrsDsuU46Rbqkxwi9HCF0vQHE9XwqESl1YLFrN7BVntwSP7JSi1fThnr6ak9Jh8gD6pscJMK3pXNkgn6pchCubs78ioo0ENFldE4yF7RpAUs5rbRi8jEA90rnOJTZ8R3pCG4pHQtEebpEqHUu7CmywQx8w4ndV4fi3Y4V1RIm/fPFHnZgOS/Qb7tzIaUdWESBOxVQMzXevOc1J0nHcId2X9kUGnwRQCydw3vagXUQHrgQ4ETqMHnCMeJLk3qYFrCU85j5W9IZDsV7rgOmhqVjOIUWvVw6gnuCElA6RjpF+kwVxtFlljxyB1DfLR0jPdI71rzswHJcoAtzcyG9Wwhd6cDi5n1vjPO+8+pgwX3SCfJk+kZz+qV0Du+FvdIJ3NEcy/5+1XTc1bO8vjmph2kBSzmvENWuBsitTcGmBrP7SukUTtE9WM813R2T/ffuZvcPgKl90jFmxibTrd7SHViIy7LnK+UpjtO6fp2deNHh0dWbMbk+v7cNzoAI2oFlGbHRm5e6RUXpBM4wu76n73s6wMSXJPk8LWAp59EylImNc9Ui3vFd6QhuWaAFrOeQ7o6xhHf+t3SEOZnhDH8BK13A0lsIk6dXlufDVFoFLAduIWRTjx86+2TpGK4JA7pfOkPehL21awFUpHN4TTuwpnFzenxQtWuiENSuSfKB8i9ySrXABIF7Y4STj4NHV0nHcIYucn+uPNxAyJOPg8d+JR1jTjxyG7J6cyj1niIbQL+JTB5F0glU2uJKmje2indg8e4rt8I0XBlldAIDA7RsMsPz7G6iN2GCCTdI5/AZUUk6ghN4z7Xg6hbpGN4h0NW0DIm+WdQClvJCcXnlQQBrpHMcymgX1jN0hHAGOejA4l0edOfXd4PLG6RTpKNwOBDK3RDE2oGVPAcaaFTKsvx7w2YqfvzvT5OO4RoiaPeVkID5eukMXgu1gAUAZuuXpSN4iZkvTfqZ+i5JeYOJnLsOd3qZ+4h0DDf0vACIDpNO4RTqzfgEBTe92QWX7T1YJ8gdrh1YyRMsSCo7OKUbCBEtraXz4DaM3rEVpqmfLw5ltIAlJQzDW5DVNmwbgh7pBOJ4+BbwxCPSMXy0MeqrJj6upC8wyhuFeuVKINkWxK6Zqjcf4G3QLqxD9JwonSBVvO9mb27447HV0hHSUxIsYPnYSRItkk6g8i5O6fcmOiy1ucRWNdf+zbHSGZzErAUsIbRscjeI10nn8FagHVhm61ekI3iKLyVKvnisBSzlDTob4wS6WjrHoXSZ+7NIF7kfhHpeIB0hVWbwh9IRWsbjD0pHSA31CBawAA+LWI6v5tEPC9mX0gJ3Kh0t24EVl4fQ2LFQNIOb4mhB7T7pEPlGN0sn8FbOO7B44mHw8G3SMXxkopAuS+PBWsBSXjHE35TOcCie3AAezXB3RzsWaQHrGUERKB4tnSI9pgbee6N0itbVBoDGkHSKdEgXsOIJ2fMzhrSAlX1pjRCix6T04Jbwru/pToWZraU3Qf9QCiKiW6QzeIuK0glEma1fko7gKb6ZllW3p/FkLWAprxSXV+8DcK90jkOZnZdIR3CC3kT4LCodBwcug0oN7/uFd4ULnnhIOkIqpDuwuOnXz4FS0lK7/KD3xHo6D25NvPnfsz033yECO/e+NW/CuLQKugerM+EC6QRiuLp5et+xahuBLk3r2VrAUt4hhnODyDz4Y6A5Kh1DnBawDiDdFZMyM/hj6Qht43HnLjJNhvSuNV3kniy9DCP74pRGCMOSWAcWm8Y4mmPaPjize6QD5B2tGBkDsEk6h5eoIJ1ADG/9KsCxdAwfjYRhNbXKnxawlHfCqPpjBrZJ5ziIqcLs0mXu6DkBCHVBMgCgdLx0gvSYKnjof6RTtE07sFLi3Q4s12W3c1Ptl9bvTOFouU9a5fUZndHuXjPkxG/hUu1jQjbfBKSM8tqB1dgLs+sK6RReIuBKWobUdjJqAUt5h5ahSYTzpXMcinfqMneAQAtfLB3CCVle4M77bvFufBAAUF4vnSAdpWMBiuTO1w6sZJHjS+ZV96ZS6tiOFsmNSO36ln6mmAlhb8+yunb+OIAAvQmyE5LvLwSZ7RcBpiodw0sxB6nurNYXG+WlKCh9G0BFOseBuLwePKpd4tAxwmmlDBew9t4gHaEjXOsHTEM6RvIomi5iSfFtB1bg+DhEqJe4ZV1qO7DCxWIFrHjnD7L7otcNdm9va27FrB1YnYhyOFkRl2EGLpJO4at7SysmH0vzAC1gKS/RstFRInaur1OXuQO0UG8iBADqyegIIRuYfT+TTtEZjsGVbH4RLjlGyL514wW90glU3qV0CyEVjxAqYJkaTCWfbRrzYeg11Y6IeksPSmfwU/66gs2OS1K8LTbbmPjitM/QApbyVszmPDh2owgP/ij3f/Bo4culI7ghox1YPLEGaOyVjtG5yhPSCdIhuQfLtw4sl+V110jexCl1YEktW25O5PuNz1wC1gKWI+jNYyME9Evn8E7eOrBMHWbbV6VT+Gq0UKn9IO1DtIClvFXqa6wH+BfSOQ5iqrrwTzuwAGR3BxYPedp9tR9PZrOAJbrI3bsOLIcvSsvprpHcSa0D63CZGwAmH/fsj4A1zahSe0A6hHoWgx+XzuCffJULzK7LgfpO6RheIuAKemv6K37y9ROpsofDr0hHOBTv+A4cawyzinpeqCM6QQ9QOEI6RSp8vH3wQFx5UjpCOnpOlDvbt1sIgx7pBHPQGwhzYSqthqWCyA8Qlx/J75ueuTDW2Pgwp1pHTNncI5CmaLF0Anu4Ce7/knQKb6W9vP1pWsBSXov6Jn8BkFNXi/HkBvDIXdIx5FCQ+z1Yot0waarvBE88Ip2iO9V+6QSpEN2BpSOEyYkOk06gLOC0Vg0UFou8rzcjq3P+rdUsCHdKR1AHMwQtYLUtP+UCs/tKcG2rdAxfrU57efvT8vMTqTKJCMyM86RzHMrs+JZ0BFG06NekI8jK6Pig2XczfO8u5NqAdIR0lHSEsGWhyx1YKhdS2oHFKIm8r6eR258nca7riOkO6QzqYEFAG6Uz+Iby0oHFsXZfdYGJrX341QKW8l5hYeV7AIakcxyI914P1HdLx5Cz6BXSCWQVny+dIBU8/EvpCN1r7AZ4SjpF4kR3rjXLcmd3gKgoHWFW5PJ+LpWMeAJgk8qjKShKvK83prFnocC5rjNhVFwlHUIdrElxRvcIpCkfo+08eA24ovXNDo0WetNf3v40LWAp79HpqILoG9I5DmIaMDsvlU4hhnJewKLiUdIRkscmGwUsjoH6LukUyYsOA6IlMmendaNaHmkBK/vS3BkXlOzfd88me98IJOMRWjY6Kh1CHayEej8A/Zlth9R7C5vYwGz9gnQKbxFwBZ2Oqq3ztIClMiFiugCw94vTCrPzEoCb0jFE5H6EMIMdWFx+DJjaJx0jEVkdIxTbg+VZBxbCBdIJVI5xagvcAQSR/VYJLWDNJsfLUN1Fy9AE8JR0DuUW3ns9uOzUSmWv2Fre/jQtYKlMoL7JQSJ8WzrHQWoD3t/Y1rHi84HikdIp5GSwA4uHb5GOkJyMFrCkbiJk33ZgUUE6wezCnOwaybO0FrgDABXt/3DzlBawZkAM3X/lKibd0t2OzF8uwjD9n5MO4TNry9ufpgUslRlhE18A0JDOcSCzPb/L3GlhfruwqHiMdITEZWJ8cD/twEqY3kKYHNK3ZZmX4sgtS/wAccOp912O4DCK9AZCRxFhu3QGb+TgNYmHfg6eeFg6hreI2Wr3FaAFLJUhdFZ1gECXS+c4EA/fCq5ulo4hItd7sLLWfWaq4NHV0imSk9ECFqQKWHEZXt1OGTq8b5oi6QQqbSl2YFFQsL4Di5uVfO5KmBNtoGUTTl0upJ7FwA7pDN4IF0knSJ3p/6x0BJ8NhSO1q2wfqgUslSnNMP4sAIfeTDF4u1uTjdbkuIBFxWOlIySKx+4HTF06RmK0AysFPnVhkf091y3T/VyZx2kucUdg/X09cVlHCA9BxDo+6DAm7JTO4A2XXy8TwMO/BI/dJx3DX0zfpJX2p5+0gKUypWdZfRMTrpbOcSCz63LAOLVf3opcL3IvHiGdIFE8krFdtPWMTg+IFrD0JkKlWjKV5sV0Ap82ecpYP9N9t0kHULMLtIDVuox3YOnuq640I/DFEgdrAUtlDjfDc+HSPMvUMHjwR9IprKOFLwVg/0IkcYUj3F4S3QEezVYBSzuwkufdIndXl6Vn/MOCQqo7sEAZb5fwgwk5ys7SyAwyTS1gtYoyPNbOo6uz9wWtXdfTiuo2iYO1gKUyp3RWeS2A66RzHCiXy9zDRaDeF0qnsI6KR0tHSJapZ6+9ujmezY6h4jFyxVOfRggBgBwtrmv9IfvSvIXQ2R/sXHmY+ib2SYdQsysElM1vsdKQ4bF289R/SkfwHJ8vdbIWsFQmsaHPSGc4EI/fn88bLhbmcA9W8fnSCRLF4/cDpiYdI3Fcz+AOVwpBPcfLnJ1mV0meZKx7Uz1XujuwYL1dgpn1s8TBbpEOoOZx9+ReALq7rRUZfU3i0bvBI7dLx/AYrY+W126XOl1fdFQmFc+sPADwz6VzHIi3i4wJi8rlHqziUdIJEsUjd0tHSEd9l3SCdEiNETbLMud2KjpMOsGMKOyVjqDSlu4OrBSfPYupMYcuznFBoPuvHEfnwDCwWzqHFzLagaXdV91h4OtEcut6tIClsuy/pAMcyAz+MOXRVmSChwAAIABJREFUAfdQDm8ipKx1YGVs/9XTMtmBBQAlmQKWdzuw8rifT7kh3W5Fgff1OrZ4gHpUnbxTOoSaHwGD0hm8QEXpBInjkdvBI/pr2oWxQli5TDKAFrBUZhX6ancBcOfTdzwJs+sK6RR2LX6VdAL7snQDIcfgsfulU6Qjox1YYovcfevAcrWA5epyeZWcdL/Isv6DTcUljv4yCSDcS29FRTqGagHTsHQEL4Q90gkSp91X3SHCZbQMom/6tIClso0Dp7qweMe34dIFiWmj3tOAcKF0DLsK2SlgcXkdEPtWmGhRRgtYYiOEnv2cUORooYjy/LaMweMPwmy/GGbgouxdHrFfyjuwrGOU9OaBZ/DN0glUaxisi/ZbEZSkEySKh28Fj66WjuEzjpvxhdIhsns3plIACismfz51a+8qMH5LOgsA8OTj4OFfgg5fLh3FDgpAi16R2Q8iM6FoqXSExPDYPdIRUsONbK6/EOvA8m6E0FEZHNdoBY+uhtn00ee8VtDSNyJ4+XdAvSfJBEtDSgWsoHRkBYD1hTUUFLUD62lMv5SOoFoTBBji/Hyf3LkgWx1Y5imn+hr8w3Rz6azG49Ix8vxVn8qLmD8mHeFAZvs3pSNYRYteKR3BrkKWClgZLjzWMroDS0cIWxM4upg2Yx8W5sUxzMZ/Rbymb8a/Nzx6D+IHfhtc3SwQLg2cWgHL0II4lQfPJ1igX4ZPG4vCakZn7rOHjY4QtoIy9JrE+24Bj90rHcNrBIh3XwFawFI5UDizdgeYfiGd42k8dBO42i8dw57Fr5ZOYFf0POkEyclwAYszOkIo14E1KXNup4JsXg3ulbiC+NG3wWw7f+5/rrEX5tE/A0zNTq40pbj/inqOq6b28LkEkX6WmPYLWga9kdETTKwFrFYE2ekKNlt091U3iLEpXFW5XjoHoAUslRNM+DhcWT7FBrz9YukU1mgHlqcaQxnqephBYxBgI50ieeFCoHC49WPZsx1Yzu71iA6TTmCHaSBe+07w0M9a+se5vA5m65dSDpU+TnOBO0ci73EYoXZgAWBy54tSNb9Ad2C1hrLx6837fpHtqQILTEBfonPgxBtnLWCpXCj2Ve4HcJ10jqeZnZcARubLUtto0StytZiYMtKBxWMZX3LJTWBqr3SKVFDpOPuHagErIXlYJ8SIN/xty8Wrp5mtXwWmPP/MmeICd+o9rp7aw+c6Nyxm4xNud7gQ4ybpEKp1zOGQdAYvZOIiJtabB7s3VOit/Ld0iKfl51Olyj0Th58E3KgcozkGs+sq6RR2hAunbyPMi4wscc/DN1Vc3ykdIR2lY+2f6dsIoavfKudgtNFsOx+8u4PXv7gMs/1byQeyKcUOLBa7lynMzoxR5x6lMysZfUHJJg7MiHQGZQcP/Q94/AHpGH5j+jqdDmc6L7SApXKjdFZ5LQNXSud4Gm//unQEexbnZIwwWpqZbrM8FLCyusidSsfbPzTFzpJUOPqtMgW90hFSxRMPw2z+ZOf//V2XJZhGQIq/J0Hp2KnUHj4XykHVdT6E/5GOoNpjAqM7sFoRLpZO0CXtvkpANYrCC6RDHCgbn7SUapEhcw7gxpJNLq8Hj9wpHcMKWvQq6QhWUFb2X3ETPPGgdIrUcW1AOkI6JApYvnVg5WJUzzHxJMzadwGm0fEjuNoPnngkwVCWNUdTezSLdRVSKHSwO5h1fNAzpXpJC1gt8fu1kvfeCJ54WDqG14j5v2nZhFMjt1rAUrnSs7y+mcDflc7xNLP9IukIVtDiX5eOYEdWxgcnHgbiinSM9NW2SidIh8AOLN+WuFPk6LfKro42JsBsORdc2dT1c3ivE5cgdYTT7FQsHiW1IiHvnyXGoqW1e6VDqDbdO55eNTlLwgXSCTrHBuapc6RT+M40I3buBpW8v+ioHApD+g8ATtzHzXtvBLLaBXKA3NxEWMjKAvdfSUewgqv90hFSQSI7sHJQ8LTB0dHGbvHkBpht5yfzrD3XJvIcEWneQihZ/Cwek+c/AL+g10FmfFN1bP9tan598yKB/J0Q5sGrwOX10jF895OeZfXuv3lKmBawVO7Qsup2ENxofeImzA7Pl9K2onQsUDxKOkX6stKBlYf9V4B2YCUpngTA9s/tlPd7PfxiHn8/wMl8xufJDYCvFzCkeQth8UixX8Bg0ctTrMy5jcE/l86gOubZ8kYBvq644ymYp/5LOoX3mPF56Qwz0QKWyqWoGX4WwIR0DgAwOy4BjDMXO6QmD3uwMrMDKycFLK5ukY6QCpEOLABoOvEntTUZuWzBBzx0I3j07mSfOb4m0edZk9UOrEWvzP6bmJmZQhjeKB1CdYi0gDUfXy8WMTsuzex7PIvuKa6oOjkere/gVC7RWeU9YPqydA4AwNQ+mMEfSqdIHS3OfgELUQZGCOs7wFntTDpUcxyoZ/AmwuJRQFCyf27sUQHL0zfl3mEDs/lTyT923M9LJjjFAhYVloptW6bFr3TichwB99Gyyd3SIVSHWAtY8yIPl7jHFZj+c6VTeI+YPiedYTZawFK5FZnKFwA4MYfAA25MNKYpF3uwMrADKzfjg/vx5AbpCKmQ6MLipkfrRFzd6+HqcvkOpbWDhMcfSPyZVqRYwGJEcp80e0/J5+cJxk+kI6hukBaw5hMeJp2gbWbgQqCudeUubQxXVZy9MSWfLzhKAaCzMMnMn5DOAQA88Qh4dLV0jHTlYITQxxf6Q3n7wbBDXM5mAQsSY4TGoz3OEh1qLfHw2+7ZsIHp/2I6j57wswMrzR1YCBfLvacvHuNoRThdBrEWsHxGrAWsrGmOwWx1Y8DGZ0z8mf0XHThJC1gq1wqrapcCeEQ6BwCY7dnuwqKFL3b4Q2MyKPL/BjEef0g6gl0Z7cASWeTuUwdW0COdIPN46Cbw5OPpPHxqxM8bfNNc4h6GqT173rMLz8vjL9TG0opGRl9A8oFYO7Dm5dnNuGbreUBzVDqG1wh4qhDUviedYy5awFK5RufAwPCHpHMAAO/5CVDfJR0jPRSBFr5cOkW6wkXSCbrE/nY2dIjLa6UjpILEbiL0hOTC65wwA+en+nz28PUyzR1YTAvkKljhwjwulfupdADVHYZ2YM2L5P6stK2xB2bgAukU3jPgz9AyOL3XUAtYKvcKZ9ZuBSB/iww3YXZ8SzpFqjK/yN2zb6oOxZVN6Y64OIgn1wMcS8dInkgHVoo3rCWMwgXSEWaWkc4wHl8DHrkr3UM8LGCl+TtCFMrNnzr7C5UixnXSEVSXSDuw5uXR5ITZ8lm/vkhzEAH9haW1y6RzzEcLWEoBMBx/GJCvNpvt3wJMhm+jzvoid987sDy92asrcWW6cJcxEh1YHHu0A8vVm5U8+rAwF955Sfpn1J24g6V1PAWk+TsS9Ai2SlCEoEf8PZQ1hL3RSPUe6RiqS0Y7sOblyZcqXO2H2fld6RjeM6Bz6XWYks4xHy1gKQWgtKKxgQjy7U9T+2B2XSWdIjWZv4nQ8wJW3sYHn1F+TDpB8kRGCD3agZWBCxecFZdhdv8w/XOaI+mfkaS0u1sDwQ4sAMGSN+yVPN8mYrqRViKDrbv5wtqBlRlmy2cA05CO4TUCthSGK5dK52iFFrCU2i+sh59y4UpdHrgAAEvHSEXWRwgp8vtDMeexAwsAlx+VjpA8iVsIfSpgqdSYwR8B8YSFg2rpn5GgNPdfAQCoILrYjY5cnp8/AAGulY6guhfoLYSZwJMbwLu/Lx3Df8SfopXwogqoBSyl9qOzy3vBfK50Dp7cAN53q3SMdERLQD0vlE6RHp93YHEMnnDiQk7rsvh/t8wSd49GCCNHuyV9Wpg7C959pXQEN6XcgcVMou/pacmbHJ3LTRqNh7XKz6VTqAQY+S+tnWfq0gnmZTZ9Mpu7TG0iXhveVbtCOkartICl1AGiqHoeA1ulc5iBr0lHSM/iDI8RelzA4sqTue2g4YkMdmAFPUDhCLtnxj59FnDz7Q95/DcEANDYAx5dbecsDz5YHSTlq90pCGWrnwtf7PkPb2sYfD2dDc9++NRMGOzPzSNSHO905dFV4CH5e7h8Rxx8hM6Bkc7RKjffwSklhJahFjA+Kp2D990KntwgHSMVtCijY4RU8HsB8/ga6QRyGoNAY490isSR5TFCbnpUACXRaavMMnuvt/dNuOMfrJ4j7R1YkrcQAkB42BLR8y0JQNdIZ1DJMBT49K2LDKc7qxlm40ekQ2TB3VFf5QbpEO3QApZShwj7qt8HcLdsCt6/Cyt7aNErpCOkw/POCZ54SDqCqGzuwbI8RuhTB5/nv6+u4j26Gmg2qe/A4kC2KkvhAgSRN9/gd2giDCs/kw6hkmFCr9qGZbC7F9Lx4I/A4w9Ix/Afw7sqoBawlDoEEZhN8D5A9oYZs+sqYGqfZIR0ZLWAFS2WTtAVznMHFgCeyN5NhNb3YMWTds/LIp87w+IKeHSVvfN8u/U19Q4sEt9BFRz5+9ulM6SJGTfQMnjW+qdm01MvagFrPmn/3eqUqcNs/pR0Cv8xflpYURVu2mifFrCUmkHxzMmHiXCxaAhThdn+LdEIaaDeU/0etZsF+VzA4mYmCzjtyGYH1vF2z/OpgOXqsnSPO8N4dJXdvVSu/v9wNqnfQij/L4SOf2+md0MFRFdLZ1AJKo07Wp1xiKMdWGb7xeDqFukYvotNGIqvzemEFrCUmkXI0SdA2CuZwey4GDBe3GjaOgpBC18inSJ5gccfPCcfB0xVOoasLC5y1xHCWXm/LN1BPHK73QODXrvndSvtAhbkO7BoyWuyvAdLxwczhpahCcDlJU/iOHbwvWFzFKb/s9IpvEdMl5XOKK+TztEJLWApNQvqm9jHINnKdH03ePCHohFSsfDXpBMkL/JsnOUAeR8fBACubMxcEc/+Enf9MjvPePhWuwdSwe553Ur/90O8AwvhosOlI6RFxwczS1+45mLc66w2Wz4HTI1Ix/BdLTTs7QymFrCUmkPhrsp3AYhuCDQZXOZOi14mHSF5Pnd0TDwonUAeN8HljN38qR1Ys3N115T8FFhnGkP2x5A9G0VPfYk7IN6BBVAUHv0HA9Ip0hAEyOC3iQpawJrb1Kh0goNwbSvM9m9Ix/Af4wI6q+rt32otYCk1BzoHhhnvAyB2sw5PPAIeuVPq+FTQwgwucvdtofABeFwLWED29mDZ7sBy+7rtQ7hacHY11zx45DYAbPdQ3/7mpt6BJT9CCAB00kcztvcAADAS1qs3SYdQqdAC1lwcu0zKbPqU3V2L2TQSxYVzpUN0QwtYSs2juKJ6L4G/K5kha11YlMGbCL1d4m4a4PJa6RRuyNoerOJRdrtUTN3Zha8qXTx8m/Uzvfubm4sOLACLXn6MdISkEfiHdDb0U3M2aQFrDhY6R1vG42uyuVbFNsbn6S3jw9IxuqEFLKVaEDaijwIQ66PloZvA1c1Sxyev5wQgOkw6RbJCzz5M7ceT6/TbrP24nL2bGO13Ybm3L2NGvo7qOYrHfmX/0MizfeHp78Byo4BF4cLg8OU7pWMkiQ2ulM6gUjMhHcBpDo0Qmk0fhfVO3+zZES2sflU6RLe0gKVUC+js8l4G5JbdsQEPXCh2fBpoYcb2YHm2j+VpPP6QdARnTBewMvbmyHYBq+nJZwEXR/Vc3cs1n3gSXHnS/rmedWC51MmQNnrZhU3pDElhYCBaXbtLOodKB7N2YM2pMSidAADAe68Hj+ivYbcY9Gk6Hd7fWKQFLKVaVAirFwJ4WOp8s/NyGyMI1mRujNC3K92fNi56R4FbmuPgar90imQVbd9E6EkBy0XhAukEHeHyYwDH9g8OPeviTbMDq3i4Ux9IqOeEFyBakokb+wj4Pp0jtwdVpSsgLWDNhRu7pCMApgaz8V+lU3iPgM2FpZVLpHMkQQtYSrWIlqEJg3+EVItGXIbZmYm/O9Oytsjd1w+fE9qBdZCMjRFSyfI6Ggev3J6Vcx1PbkyAtUuqi9OrHVimAZgU6znBItc6noLoNTdslw6RBMPB96QzqPQwSAtYc2kMTf/9EmS2fiV7Xy6K4HPodcjEolItYCnVhsKZ1VVE/G2p882288VfSJJCC18qHSFZQVE6QftMDVxeJ53CKZy1Re6FI+ye58sOLMC9orOvewEnhBqTC8+TObcTae+/Kixx743B4teeguIxHl1NOqPHSisms/WthjoYsxaw5iM5RlgbgNn6JbnzM4PXhXfXMrPLTwtYSrUpLJb+FYDMX/P6LpjBq0SOThotfLF0hESRh0vcp0d/XPviXhaXM1bAsr7E3alJJmUBTzxo/9CgBwgX2T+3Qxyn+xmZgiUu/iEPwtffOyIdoiusy9uzjkHZ2c2REq7LjRHGGz8CxL7XweUR0SeyNAqtBSyl2kRvHhshxgelzuetX0UmFk2Xjve342AmHnZg8fga6QjOyVoHFhWOtHtg+jetJcexEULyqCDzDFMFTz5h/9yi5Z/rbqXegbXUxQIWqHT08cFJ/7pJOkeHTAQtYGVdQMajFy0h1adEjuWRO8B7fixydsY8EJ5RvU46RJK0gKVUB6IV1SsB/rnE2Ty5ATx0k8TRiaMFL5KOkBwfl7jrDYTPVdsGNN25NrprlndgsU/flLp2EyH595aMK5tFujipcJT1M7uS9gUs0WECW/RbE5z6qZNp6Rv2SOdoH99MK6rbpFOolFGgBax5sEQBi5swT37I/rlZxMHHibLQ+fAs/94tKeWImPgfAJmrSM3W8ySOTd6CDI0RuvZhuAU8oR1YM8lUF5btDizjUQHLNYFjO7laUdksc27R8m63bqV8OydR4PKHkzB8zS1L0PtCr0a1CJShW3PUbDjWDqz5cMV+ActsvxhcXm/93Ay6s7BiUqThIk1awFKqQz3L65vB+LTE2Ty6Cjx2n8TRicrUInffRgjjSZnRHw9kaQ8WlZ5v90CPOrDIsRFCBAXpBG3jqtB0WNHy7ZrdSrsDq3S8kyOEz6CgFJ2+vkQLXzIsHaVFw2EjWyM3amasHVjzq1r+oqIxBPPUf9g9M6sYH5OOkAYtYCnVheh51S+BeK3E2Vm4lYMy1YHl1/4anngUYGenTmRNZOjSqaAXsHnBQJxup0miXLuFMChJJ2ifUAcWFQ4XObdT7NPvRWqoJ3zDg4cFx75zq3SS+RDhCjobdekcKn0mSPmGhQzgykar55nNn0y/6J8HzDcVVlTvlo6RBi1gKdUFeh2mAPr/APs3O/DQjdZfVBKXpZsIPfvwKXJzmCe4/Ih0hERZ7cJqlu2dlTWe/Q0B7H+weUbxaJlzO6UfxvajKHj5xSeGr/35JsDdsUcTB9+VzqDsKNULWsCaz9QwUBuwchSP/Qpm539bOSvjDIfhR6VDpEULWEp1qbC8uprA37J+MBvwNr93YdGC05y7CaxT5NmHT9YF7rPiyccBnpKOkZyixYXXRmQtYGdc+9vjWp4WcHWLzMF6C+FBqHSMT+20REvffFp0xugELT19UDrMDB4qnjn5sHQIZUtZC1gt4HELX3ryFMzj/4hM3LQujAlXFc+YzNa3sQfQApZSCQjDnn8DsMv2uWbX94H6btvHJocKoN5TpFMkIzpMOkF7dIH77EwDXN4gnSI5FrtV9BbCLriWZz5xGajvFDnav1sI0/2MzCBK9YA0UHRY+Npbjg5ffYNT3VhM0O6rHNk/KqrjovOw0Zlutn4ZXF6X+jk50DDMn5AOkSYtYCmVAFo2OkrAP1k/2NRgtn/D+rGJysoYoU/dE/GE/+OnacvSInebH/Z1108X/KpBcG273OE2uwoTwCkXsDxGdMQZp0VnjJbpiDOtfwk4g3phqnCldAhlGUF/QeeRdgcWVzbCbPlcqmfkBTEu7umr2b860iItYCmVkKiveg2Aa2yfa7Z/c/qbcE/RgpdIR0iGR90TPP4QwNbXtnmFyxla5G5zB1Y8ae+sbjlWdKbI4rL9JAh1XwEACkfInd2JtAtY0RHOdDB1hKLF4auvOzZ8/b1PIegRu1GRCT+it4z7clOiSgixFrDmw+P3p3fxDxuYDf8AmFo6z8+XckjBf0qHSJsWsJRKUITgHwHYffPTHIPZ4XHHexY6sFy7zWwePKH7r+bDE9npwELRZgHLpxFCv35vXcN1uQ4ssvkznYSULzqjsJDq822hxa86JfqdoZhe+EGR5WrE7HlLu+oEQwtY85oaAY+ns3rCDJwPHs3kZXkC6MvUN+nibsFEaQFLqQRR3+Qggd9v+1wz8HVvl05nYgcW+fXhIa03IVnCOkLYGZ8KWK4JPevAqgl1YAW9/hUfdYSwdRSUwtP+8+Twt3ftoQUvGbF3Lq8t9NXusnaecoeOELaEh29O/pnl9TCb/z3x5+bUUNSofEk6hA1awFIqYVFf7XsAbrB6aG0AvPtqq0cmhXpPlY7QPd8WuOsNhPObGgFq26RTJMPqEnd/x5nFkWdvyaQWuFv8eU5K6juwgoV+LVBrAUVLjg7f+NDS6PX3bkZhcSPt85gD7b7KKx0hbAnvS7iAZRow69+jo4MJYcJ/0dn5+Fn27N2SUn6IQvwdgDGbZ5pt58HLq2dLxwDhIukUXSEqSkdoXXMUXM30bsfE8ERGbiC2ufBaC1idC/zqKmKpHVgeFrDQTPntQNibuQLWfoTFrzo1+t+7w/CV338yxdsKy4VG5fKUnq0cx4xR6Qw+4PE1QGMoseeZJz+UrXUNghjYWqhXL5LOYYsWsJRKAS2rbmfwh2yeyeV14H232DwyMdR7snSE7oQ90glaNn2TjIeFTgE88bB0hERQ6Rh7h8VVe2dlTeDXKLLYEvee42TO7YaOEHaJQjr6D14cLR+vBie+P/FvYAh8ZV46F9RzEcHeqKrPOIYZ/GEijzK7LoPZ8Z1EnqWAAPxxOht16Ry2aAFLqZQUlte+C8KtNs80/Z+3eVxyFpwmnaA7HnWQ6QL31mWmAytcNL03yAZT8+eGS9duDg39GkWW6sCikmcFLBvFq6CU/hlOCBYELzr3lPB3du8Nlrxmb1JPNTo+mG/EevNki3jnpd0/Y/x+mMf/ufswahrjV+Hy2hXSMWzSApZSKSECN5v8XgDWZmp4dBV4dJWt4xJDCzzfg0WhdIKWTXdgqVZkqdhHJZs3EXoyRkiRdIKD+dSBxTEwldwoSVuKFjsKk2ChgEVRb67ez1N42FHB6+4+MnzdHZu7Hitk/Kq4opKdP/aqbcykHVgt4vJj4OHOpz24uhnxI3+ie6+SwyB8gChfoxW5esFTyrbes2pbmPARm2eaLZ+1eVwysnAToS8yVJRJXX0X0NgjnSIZhSPtneVLAcsxZKtLLglTQ2KddlQ6VuTcTnE8IR0hq4iW/Map0Rkj47T41zuupnLA2n2VcwF4n3QGn0x/zuigXlLfCfPQHya6RyvvmHFVoa96j3QO27SApVTKCndVLwRwp63zePjW6UWLHvH+JkJfli9P7QNX+6VTeCUre7Bg8UM/xxVrZ2VK6MnfEQBc3yV3uHcjhOnf58KIsrrEfX5UWBK+/p7Dg5d+fWMH/+2hQm/tB4lnUl5hhFrAagOPrm775nOu9iNecxa4ujmlVLlULQD/Jh1CghawlEoZnQMTg98Ni6OEvnVheT9CGDg2ijQLHtfuq3ZlZeSSCkfYO8zoIveOkEcjhI3E1g+1z7sCloURwqDXnzn2dATB8e9+UfT6e9tb8E70DTod+gcr55iM7sBqU/zEP7d8ozVPPIx4zRlavEocfZFWVLdJp5CgBSylLOjpqz3FoP9r6zweuglcXmvruO6VjvWq+8BXPP6AdATvcDkji9xtjl01fRmZcuwzf+TPEnduyHVg+TZCqDcQWrT4VadEv7Vha4v/dCOawoWp5lFeMLHRHVjtao7BPPxHQG2u+gnDbPsa4geWAfXd1qLlxM4orHh6c1f3tICllCWF5ZWLAf65ndMYpv8Ldo5KBIF6T5YO0TlPOieytJTcmvGMjBDa7MCKJ+2d1QWKHLuF0Kcl7nWh3XDhAiBaInN2h9hCAYuR3wnC5+h54QvD196yab5/jEFX0VsqgrOwyhWloKgdWB3gykY07//fMLsuA0zj2f/AVMGDP0L8qzfAbPw3wNTlQmYUgT9Ky+xN9rhGC1hKWUIEjkL6awBWvunhPT8CVzpZCSHE50XunnSP+bYbzQVc2wpM+f/e1mrXiu7A6owvu/QAoDEociz5Nj4IALGNWwgX+DHHbgktPf204MR/3DLnP8Q4z1Ic5bq7J0bQ0VZyhcYemPV/i+adL0B8328hvu8NaN5xHOK1fwEuPyadLqseCO+uXS4dQpIWsJSyiJZVtxPx+60cxgbc/0UrRyWBek6UjpBtjUGgvlM6hZcysci98Dx7ZxktYHUk7JFO0DJuCI2D+FjA0hFCEcFpnzsBhSWNWf7j24srKtqSrABM76qFpS+XMysugyceAk88qh1X6WIwPrD/Zza3tICllGXR8trlAK61cZbZ/f3pDhIfaAErVVlZRi6By49KR+heZK+Axc3cdrV3hagoHaF1Ukvcfdt/BVi5hVDNgCgKf/3agRn/IybtvlIHIYb/rdYqD64prKjeLR1CmhawlBIQxeHfAkh/iQg3wVu/nPoxSfC5A4vCxdIR5qXjg53Lwu2NVm8hjLWA1RGPlrhLLeSl4jEi53aDbVxqQEWPFqjZQ0vecBKC6KBOBQL6w1WV66UyKTcxaQeWcl45Yli7EMxlWsBSSgCdVd5DjL+zcZbZeRlQ92BPaa+/BSyQ+wt09QbCLmRihPBwe2f5MkIY9EonOBj5s8ZIRwjbYKEDi3WL+2zC4MQP9R/4vzCMr+V9/EbNhLUDS7nuP2hFda5rH3NDC1hKCYlWVH/MwPdSP8jUYba53y3vcweWD3hCRwg7xdXN/u+xCRcAgaUdS3HVzjndChwb2QsduxVxNqYm9vvg5xJ3P27lzKrg+Pcc2J02Uoiq3xILo5zFRPukMyg1O1ofLa2jaqeTAAAgAElEQVR+RTqFK7SApZSgQqn4TwzMuKMhSWbHd4Epx1+bC0f48wHuUK51chyCq/1AY0g6hr/YZGME09Yi99jCyFTWOP435EAsND4IwNMdWOn/PlBQCFM/xFfF5z87m0v09TxfPa9mFwCOv0lWOcYw5u/pdZiSDuIKLWApJYjePDZC4L8EUm5njydhtn0t1SOSQD0nSEfojGudHIfS7quuZWEEkywVsLipHSdtCzxaYTQltMAd8HOE0MZOOPJgjl0KFZ7+Zqwa1QP33wgpEcykO7CUkxi4onBm7Q7pHC7RApZSwgp9tdsApN4WarZ/0/3bkHwtYDmOx/wvvkjLRgfWkXbO8WUHlks8uAjiGYI7FcnDDizWSw1k0fR+MAIuobPLgtVX5TLWHVjKTaMFBLq4/RBawFLKAVGj+jEAj6Z6SHMcZuCCVI/olr97sNye3tD9V93LQgeWvRFCXwpY7jStkEcdWNwQqgEUjwKCkszZ3XD9i6PMIwBoNsFfkk6i3BUwaweWcg4z/Qv1TQ5K53CNFrCUcgCdjbqJw3cAqKV5jtl2PtAcTfOI7vjageXy7i424PGHpFP4r77Tj9s850CRrQKWJx0nLnU9ufw35FBCO7CodLzIuV3TJe7CmBm4pqev9pR0EuWyQHdgKdfcVeirfFs6hIu0gKWUI0pnldcy46OpHtIch9nq7o2E/nZguYsrT+pS7YTw+P3SEbpjqwPLwtLqzLF1Q2QSGkJL3D0cH0RcATiWTpFv3KyC6fPSMZTbDFgLWMol9Tgw7yUCSwdxkRawlHJIoa96Hgi3pnmGGbjI3Rvpel4gnSB7sjD65gge93wU01YHlqnaOSdLPBqN4/pOkXO97MDS7isH8J7iioq2Ias5mcg4+sZY5RP/V88Z9SekU7hKC1hKOYQIHAF/CSC9ZZLxBMy21HfGd6Z4jHSCzkQOjSIdwvuii0O834MVHTb/P5MA9mYHlkO8GiEUGqX18AZC1u5XeVT8snQE5b5Sw/MdASpDaH00XPucdAqXaQFLKcfQ8uoOIvxtmmeY7d8EGnvSPKIjPt4wNc3dP6XeF10cMv3v0t9ubrJUwPJmB5ZLyKMl7vUdMgf3+FfA0g4scSNEdKF0COU+OguTAPQXVkkzIH4vrURDOojL3P3UpVSORcurP2TQZakdEFdg+r+Q2uM7Fi70qxPBdaYBLq+VTpEdzXFwZaN0is5pActdDndxHsQ0AKFbCKnk4Yi57oOTdo50AOUVmflopZ51fmF5dbV0CNdpAUspRxV6Kv9IjE1pPd/s+M70zWqO8bcLyz08uQ4wqV5smT/ja6QTdM5WAYuN/ty1iciPHVhS+68AeDlCiOa4dII8GyOir0mHUF4ZlA6g8ouAzVFc/Zh0Dh9oAUspR9GbMGGI3g6k1EZqajD9Dl7MU3y+dILMYJ+LLY7y+t9paKmABQCxLnJvS+hHAUts/xUA8rGApd2Ikv5DOoDyjhawghJQOg7Ue/Iz/4PC4QCF0smyzjDj/90/yqrmEUkHUErNrthXuX/q1t5PgvHZNJ5vdl6K4IUfBHpOTOPxnSkeLZ2gfa5+SPG52OIoHrtfOkLnbHVgAdO/EwVLtx5mQbhIOkFrpPZfRYfZ/flNCNt6bWBjQHaO8sQ4EX1JOoTyCzF2cY5+j2jBi0BLTweW/CZo4ctBC18MREtn/oe5Ca5uASY3gCefAE9uAI/cJfeakD3nF1ZU75YO4QstYCnluOiu6heab1rQB3Bf4g83DZj+zyF46dcTf3SnqHSsf2uyOZZOMCNd4J48Lj82vQcoKEpHaZu1Je6Y/uCeo88B3SM/3o6xUAeWt6PllgpYbKZiCnqsnOWJz0gHUP5h8CAy/spFvaeAjn0n6Og/BC18aRv/xQi04EXAgheBjnr2f83ldeB9vwDvuxk8epez74ddRsDmUEcH26IjhEo5js6BiZp4FwipbM41Oy+f/lbFFT52YLkongRPPi6dIntMDTzxoHSKzljtwKrYOysLQk+WuNe3y5xbOl7m3G5ZWuJOmJqycpAfxohIr6BXbWOC3Ix0ymjp6QhffR3CNz6K4OR/a694NddzF70CwQs/gPA1NyE6fR2Ck/4vUDgikWfnhGHi9+joYHu0gKWUB+gtlV3E9B4gheYkbsJscejLytIx0gkygSce1m/CUsKjnl4QQxEQLrBzlhaw2uNJR59cB5aHNxACQGzpM0lcbdo5yAuflA6g/BRwsFs6Q9JowYsRvvpahK+9BXTEmQCl+NG/50QEp34a0Zs2IXz5xaDeU9M7KysYXyssr90pHcM3WsBSyhNRX+UGIlyQxrN59w/AlY1pPLptVNQCVhK8XjbuOG8LWIC9UTVbH9yzIuiVTtAaqX0n3o4Q2unA4rhirBzkvn1686DqlAlJqMU0BRQhOPnfEP7mvaAjzrJ7dlACHftOhG9Yg+BF5wLRErvne4PWRwurH5VO4SMtYCnlkTCo/guARxN/sEtdWDpCmAieeEg6Qmbx2D1IoxnSCltjhJY+uGcF2eqM6xLXBmQO7vFzhJCb43YOiqvabjvtw9IBlL8KhWibdIZEFI9G+L9uRHDKJwHJ3XhBEcGJ70d0+loEx/2lXA43NTjAu+h06JXNHdACllIeoWWoGY7/DEDi8zk8+ENweV3Sj20bFQ6XjpANEw9LJ8iuqRFv94sR7FyFzTpC2B4flrjzFKBL3NtjaQcW6tu0gAXsJqJLpEMof9Gbx0YAeP3tCy16JaLXrwY9783SUZ5VOALByy5C+GuXeXmbbCqIP108o6KjEh3SApZSnimtaGxg0AcTfzAbmE0OdLLOdoWv0xyb3ojLzoyEZhWP3iMdoTPRIjvnGP1SsS0ejFhwbbvcXj1fl7hbuoUQI3d6UAFN3fukA6gsYG+7sGjJ6xG+9udA6TjpKDOi5/8fhL9xN2jxq6SjSLsn2lf7rHQIn2kBSykPFfsq3wThx0k/l/fdDB6+LenHtic6DN5dY2zrQ0qLeOJRgB0rqmWMt3uwqGDnnKZbvxPOCzyoP9S2ih1NvhawLHVgxXtvyHvr8jYiukY6hMoELwtYdNhvIPxfNzr/JTAtOG16ofzS35KOIqUch+ZdtBLaNdsFLWAp5aloqvBeBhJfSGI2fUy++KEtxl1hHR9M35inBSxrtxBqAastgfs7sLjaL3NwUASKR8qc3S1blxlU+5fCuVZgq94jHUBlA3lYwKLeUxH++o+AcKF0lNaEixC++jrQ0jdJJ7GOmT7Ys6y+STqH77SApZSn6C3jw2T4L4Bkq/g88TB48OokH9k2cvwbJNdpASt9XO0X2wfUFVsLXfUWwvb4sMS9JnNBF5WOg3ddufuxzcsMOK7ZO8wpjxHRrdIhVDawbwWscAGCV13lX5E/XDhdxFryeukkNl1fXFH5lnSILNACllIeK5xZuwNE5yb93HjzOYCpJ/3Y1vnWgWXrpqlW6Q2EVng5RhgU7Zzj2u+E62yNdnaBpUYIHd3n0hKbo7RxOY+/dAzgz6RDqOzwrQMreNHnQYteIR2jM+EChK+8CvD1ko727IwQvVs6RFZoAUspz0X7KucASPaTdG0bzPZvJPrIthR868Bi6QDPMlXw5BPSKXKBfR0jtICbY9IRvEI+FO2rWsBqm80OrIkH8/hLdzsRrZcOobKDyZ8CFh31+wiO93x6tnQMwpddJJ0ibTGY30F9E/ukg2SFFrCU8hytRNwM+R0ARpN8rtnyOaCZ6CNbF3rwYc5RPPk4wE3pGLngZQeWrf122oHVHnJ/ibtUB5a/C9zt/g7E2y8rWT1QnoF2X6mERaDN0hlaEi5C+OIvSqdIBB1xJuj5fyIdIz1Mny2sqN0uHSNLtIClVAb0Lqv1E/B3iT60OTpdxJLgWQcWxxXpCM+a3CCdIDe4vNZuh0USbC1X1w6s9ri+fJebQH2nzNm+dmBZvsiAh350ApxqB07dD4hoj3QIlS20vLoDgPO3kASnfBToeYF0jMQEp3wCoEyWJVZHUeUc6RBZk8mfFKXyKOqrXkWg7yT5TLP9G0DNfje1F+M0B5LcF3YILq+TjpAfHPvZhWWDdmC1x/El7lzfAbDMrd/U42cHFjctF7dNM7R/qJgG9OZBlR63b4nrOQHBC5L9zloaLXgx6PA+6RhJG22G/A5aBh2LSJgWsJTKkDCuvB+ExxN7oKlPL3S3zfVuhENZ/qZ9LlxeKx0hV3j4dukITuJYO7BaRqH7I4RS+68AwNcRQonXhdq2vOxY+QIR5fXWRZUyBpxeJBqc/BEgyN7EcHDMSukIiSLC3/Quq/VL58giLWAplSF0FiaZgj8DkFhLEO/+AXji4aQel01xVTrBM7QDyy4e/qV0hPbY6hbUDqzWeVCwF7uBEAD5ekOVwHgxD3wzDyOEw0T0cekQKruIydkOLFpwGoJj3ykdIxW09M3SERJD4Iuj5dUfSufIKi1gKZUxxTMmH2HGh5N7IsNs+lhyj2tF0Gv3vG65MkLYHJfbU5NTXF4LTHnU9GCrsGQagHGnsOs0x8cHAch1YFHg7xXrTfsdWPGOi07C9HLzLHuvdACVbRQYZzuwglM+7n7Hbqd6TvDj9XB+j4bV2gekQ2SZFrCUyqBCX/UCANcn9Twevg287+akHjc/Ktg7KwmOLPLW8UEJDB6+TTpEy9jmcnXtwmoJkQejILUBmXMLR/n3evA0iRFC0wzQHB20f7A1G4jox9IhVLaxox1Y1Hsq6Oj/Ix0jXYUjpBN0ayIOzEp6Kxy63Sl7tIClVAYRgSNE7waQWDuO2fgvAE8l9bhsid1YxcFVP25/zhoeuV06QussFpWsFst8Fi2STjAvqRFCKh0jcm4SpPap894bs/qLxwAy/ulduSBqFpzswKIX/HVWb+p7BnnegUXA3/ScUXfy5ydLsv1boFSOUd/EPjC/A0AiV0fx5BMwAxcm8ajMYXZkhLCiBSwJ3uzBMnXAWCy2agdWa3wYmZYaISwcKXNuEmKZn/944ydOEDk4ff9DROulQ6jso7eMDwNwazdA0Ivg2HdJp0ifx+ORRLgo6qteJZ0jD7SApVSGFVbUbgfTZ5N6ntlyLtCwMJ1AYfpnJMmRD+pcfUo6Qi5xtR886cEXbs1Ry+dltREkYUFROsHcuAmu75A5u/h8mXOTILADCwAwtXsh4om9Moenpgngz6VDqFx5RDrAgYLnvw0oPE86hprdg2G9qnuvLNECllIZF0WVcwCsTuRhzXHEmz6RyKPmFLo/UnOQeFI6wbTKRukEucX7fiYdYV5ct7wax5HCrvOiw6QTzK2+C+CmyNFU9HgfiuBuRLPju5ar1an7IhHpHxRlk1PXb9NxfykdwQ4PbuWdwVhMZiWdndwN8GpuWsBSKuNoGZoR8dsBJPKGlnddAR67L4lHZQfHTixy5+oW6Qi5xUPuF7AwNWT1OOd3YAkVZZ4jcHuJu9T+KwBA8Wi5s7sl1YEFwGz+xKlIaH2AA/YQ0UekQ6h8IWZ3OrCKR4GW/KZ0Cjs8HCEk4K97ltd1h4dFWsBSKgdoeW0rJXb1NMM8+UGAs35Td5umRmTPb+zVjhdBPHaPzK1j7WjssXue6z+PxpFLgoIe6QRzk9p/BQDFo+TO7hJL/j0wzYBrA0Jzn4l7p3QAlT8xhc50YAVH/j+ZX97+jLgqnaBdX4v6qtdIh8ibnPw2KKWivuo1BL44iWfx+IMwOxJ51MyMIyN5beAp2YkNrm0TPT/3TAM8fJt0ijlxw/JaHNcLWI6gcLF0hDlJ/m2hgr8FLOmuXF733iy8x7+XiG6WDqHypxhOrgfcGAmjI8+WjmCPK5citYKwKhquflg6Rh5l4cVNKdWisFr7AEAbkniW2fQpoLY9iUc9l3/fwNhfkH2otP5/oVpm9v5UOsLcLI8Q6hL3Fjk+QojagNzZXo8QyhZwzeidL4CpWP6lT1QTwFulQ6h8omVoAlgrnQMg0OG/LR3CGm7Kr+No0e4oppW0Eg3pIHmkBSylcoTeioph+lMAta4fFk8gfuKfug81E6MFrHZxY5fo+QrgvTcAPCUdY1ZcszxR5HoHlisFtrBXOsGcuNovd3jxSLmzuyX9pQYAs+Uz+6QzdOF8IvK5AKc8RyDxPVjUexLgeJduovx4/98A4210ZmWndJC80gKWUjlTWjH5GIM+lMSzeOhn4MGrk3jUwfz5BuYZLP1hpa6vo+KaY+Dh26VTzK5ut5PG+SXurnD91lXBJe7kcQeW9Fg5AJj+L78E7Mqyt7YME9EHpUOofDPM8nuwFr1SOoE9bNz/4gsAA/9SWFG9WzpHnmkBS6kcKvZVLgSQyNLB+MkPA1PDSTzqGdZ39SRBegdWXTuwXMB7rpWOMDvbo2DSRV1fuDxCyAZcF9oFHi4CAre70+bkyM8/D17l43z5n0sHUAoBrZKOQIteIR3BnsYuwLg9kceEK4t91a9K58g7LWAplVMR9/w1AU91/aDGXsRP/HMCiQ4w5eHUg+39QofSDiwnmL3XA9yUjvFcbMC2f0Zs33rYJm46cllEsEA6wewEP1D43H2FuAIYN5YRx+v+5kWA6X5tgD13ENEvpEMoVdhXeQQg2ZYgj29ibRdL3njbmkcLlWpCN7qrbmgBS6mcohUjYyaglUD3Cwh58Brw7isTSLVfY3dyz7KlPih7vu39RmpmU/vA+xz87NUYtF6IYOmi7rxi6QAAAIoWSkeYFVcFbzctHCF3drcc6b6aZoi3f9OXa2qnAPyhdAilAIBWIgbMatEMro+YJ0lwXL0FY3Fo/oTeCh9HsjNHC1hK5VjxjMoaJiSyDyt+4oPg6pYkHuXlOJz0EnX2seiXUWbnf0tHeA6WuEluanh6p4WaGxWlE8xOanwQAApL5M7ukmv73+InPvRiIHak5XBOHycil6p/St0penp0mOjxNvHEo9IRZsMU0Nt7ltU3SQdR07SApVTOFZdXLwDhx10/qDkOs+49AHfZ1VDf6cUSx+eQ7MAyVT//nWUUD/0McG2PW7X7aeG2sXF7HNiVqSqHv2EX/TIh9PiDm4M/92bzf7r+LUc/EX1eOoRSB2G6S/R8V16nLOBR0Wa32RH/e3RG5SbpGOpZWsBSSiEyPe8hoOv2KR77FcxTn+7uGZUnu40hQrIDyvpuIzU3noLZfYV0ioNI/V6xgx/kn+HIjiKEDi8qr8vt/yafOw8c68ACANP/uVMRT7i6mI4BvFU6hFKHiqaq9wMQqyKx9HoKW+JJ8MRD0imei/Dj6Ixadx9sVOK0gKWUenof1tuQwD4s0//Frm5i4/K6biPIaAzJLe/Oyxscj/D27zg1PscVoc73hv5szsvhWwhZcreew51p85oakU4wo3jNmQGmi0WuuYKI1kqHUOpQdDbqAO4TC+D4ZShJ4X23uHgBzmNRs/ouIif/ZuaaFrCUUgD278MC/333T2LE69/bcSGKR+/uPoIIlhsb0yKBc7i6GTzkUMf55BMy504Ny5zbClfeLIeLpRPMTnIHlscdWOzUEvdn8cQjR2LiIYF54jmNAvhL6RBKzY5vETt50tMvddvkWtc6gKGYzB/RWfBhd2DuaAFLKfWMYl/tOwS+uOsHxRWYR1dOdyW1hcEjvhaw5Eb5dITQTWbgAukI+zG4ulnmZNd2gR0oduQyobBHOsGsWLKAFbj772VeU+6NED6t+cDyk8CmKp3jAH9MRO60qyp1CDbh9WJnj67ufres6xp7wUM/l05xoBjEf9qzvC7zxknNSwtYSqmDhMO19wG4p9vncHUL4ofObqsDg0dXO7n8tmUSi7IBwMNbG/OAR+4ETzwiHQOo7ZAr1kw5XMByBJGjI4RsgLrre78d1XRzhBAAYGohr/uLdr9dSsu1RHSbdAil5lI8c/JhAvpFDm+OgyceFjnaFjNwIcBT0jGewcAHC8trv5TOoWanBSyl1EFoJRoR4W0Auq6KcHkt4od/v+Ub8syO73R7pCiudr0Hv7NzJbsk1Jx44ELpCOCy4GqZhssFaUfWWrg6KtfY486YpWd4ys0RwqfFg9eegPGHpLsLJgCsFM6gVEsY+InY2buvlDo6fVPD0wUsRxDTJcW+6tekc6i5aQFLKfUctLy6AwaJLHXn8QcRP/gWoLZt7n+ushG857puj5NVEerAqm6VOVfNywxe08EobbIkb/ZhlxfQtlhYT52jS9zFC+Pk8VtUR3dgHai55rdPBjcnBCP8GRFphVR5gsUKWGbXFUBcljo+VWbrl4BY8s/QQe4NRyp/Kx1Czc/jdwdKqTQVzqyuYtAHkngWTzyM5v1vAg/PMinAMcyGvwOM2E3FiRDbM1TTApazTBVm4HzRCKLjBy4vcXeFowUs1LbLnk+h7Pnd8OHn3jSD5n1vnAIgsWDnJiJy6JYLpeYWDdfuBCDzi90ch9lxicjRaeLKRpe6r7ZHTfpjWtn9F/cqfVrAUkrNqthXuZCYknnVbAwhfuj3ED/29oNHmuo7ED/6tun9V54TGSE0dd1T4ziz/WKgKbfUWbSApTdkzs3V8UE40IFl3NmJ0jYPOrAAAOV1h5vNn+y3fOokgD+yfKZSXaGViBkktszdbPmMeDd30swTH5h+DyuvwoQ/obdUdKGsJ7SApZSa0/522oSuBmTwnusQ/+r1aN59CuJ7Xo3mqpeCh36WzOOl1XdaX5Y93X3lyC4fNbPmGMz2b8qcPbUPqA3InA2AXb6UIXbgdmxXu6+A6b9nkhxa6tsu9qWABcD0f/FUHr3HZvvwu4hIuxyUdwLCD8QOb47BbPqY2PFJ48GrwcNO7EmPKaA/Ly6v3icdRLVOC1hKqTnRSjSiRvjHDCQ7p1bfDa48mbnrgbmy0e6B1bl3iyk3mIELRG4ClNx/BWD/raJuFljZhb89QY90glmxdAHLVGXP74bjS9wPFa9ZfioaQzZaeW8joh9bOEepxIX7Kr8AINaaanZdDh68Wur45DSGED/xIekUAAAGPhSdUfmpdA7VHi1gKaXmRWeX9zIHb8V067+ag+1xLd1/5YnGEMxO+zssePRe62ceHCD2Yx+QEAoXSUeYnfQIoa9M1ct9js1Vpx0Fro+keEQVwO+l+HylUkUrEYNwuWSGeMPfy94snID4yQ/t/3JLFhEuKvZVvyqdQ7VPC1hKqZaUVkw+RkzvgKvtFK4oP2r3vMkNds9THZu+bcfyiOnI7VbPmzGDq3s7XOjwcXqEUHgdiODeuK5MeZrbNEKz6kUl8FRaV4L9FRHZb0NVKkFxYL4DwMgFqCB++I9kdq4mgPdcBx78oXQMgPHTcF/1fdIxVGe0gKWUalm0ovITgD8uncNlPG53ZIvLj1k9T3WhvtvujTtxBTz+gL3zZjO1VzrBzIwDa3jCBdIJZsXStxB6iptpNjGly9SHFsR3nxqBp8YTfvRqIvp+ws9UyrqeZfVNAMSWuQOYvvzowbeAq/2iMdpW34n48X+QTgEQ7ohq1T+nlSI3sKoEaAFLKdWWaHntXAaukM7hKi4/ZnWvF088Yu0s1T2z7StAM+nPhjPjsXvcKNK42oHFDjSThgulE8xsalh8DI5jBzrkOuHZ/qtDcWOot3nXyUVwI6n/Q+oAfjehZyklj/k86QioDSBes8Kf94BsEK/7K2BKvMB/X2R6/oDeCu0G9ZgWsJRSbSECF6rVvwHjV9JZnBRPWlvkzrWt1oohKiFTIzBbv2LlKB65w8o583H2JsI4rUmpNjg6Qii+wB3w9xZCjzuwnjE13NO8/ejF3NibwA9C/F4i0hcqlRmFFbXbAci3N9d3IF7TB97zE+kk8zL9n3fhPcljUSP8PVox4umct3qaFrCUUm2jt6ISBfgTADpjMhNbY1sTOj7oIzNwAWChQMDDt6V+Rksag9IJnsuVJduudmBJ778CAONpAUu+wyAZphHGd73wOIyu3tTxM+LqdUSR6NJrpdJATOdIZwAAxJOIH3s7zMaPAqYunWZGvOcnME/9h2gGYmyKCL9LZ5cd3Wmg2qEFLKVUR2h5dQeD/hjQNtxDmeFfWjmHbS+MV8mIJxFv+liqR3BtK3j8wVTPaJmTBSwHRisBkKM7sNiFGwiNny8t3PR7hPBQzTV9p5l17x4At/npmJvbcdeCt6UUSylR0YrKjQDuk84xjWG2nYf4/jeDHbvYh8fvR7z+ryB8/9OTIbCcllcdeGFTSdACllKqY8W+yv0EiL8yuYaHb4WNfyW2F8ar5PDuq8Gjq9J7/uA1cOXXkusOFrBcGb0lN0cI4UIBy1cZK2ABgNn9gxOatx8Z7u/Gmv8GNo7H8finfpeWoZl+OqWk8P+FKy+0ALi8FvF9b4R56tNO3LLL1X7Ej/6p9duXD0Yboib9Dq2obhMMoRKmBSylVFeivupVAP2ndA6nNPaC0x7vY5NqAUSljWGe/FBqC/958EepPLcjLuxTOgS7sl8pWiSdYGY1BwpYrhQZ2+X5EvdZmVrUXNN3WvOuF9R58KqNaI7vgWmWwc0yuD6CeGIvN/buNHuv3zi16qQP08s/s1Y6slJpKvTV7mKCW7drmgbMls8ivvc3wEM3icXgykbED54J1HeLZQDwaBQHv0NvqTgwE6+SFEkHUEr5L/r/2bvzMDnLMv3751X1VKe7E3ZxwSZd6TSg5sXBFR0FSdINyIjKYgZU0B8uo+M4DDrDzCgqOo7LOOMMoICIiiKIQQiIIpCEoCwiIFsMiHR6yQaBbGTpqq6u57nePxI0QJZequp+qvr7OY4cQC33fXaWDn32vcwe/EL51pYZcp0YOkta+LoFsj1eXb3xNz/UkN/pn0h808NKVlyszIGVvVbaBx+Xb3qwomOOh5eC/g/sjgX9jvB2Mi2hE+yQp+EMrDrVaFsIX6C0riX+wxkH7eIVNzR1FS6pWR4goJx0dnnrLZv7hM6yPS/0Kn7oZNleb1Jm+rmyfY6s3dzP/E7xw3OkUtDjpu6Nyrlj7diN60KGQHWwAgvAuJgzLfIAACAASURBVJnJo8HCaZLq5D7f6vO1t1R3/Bqds4XqSno+Lx8c+xnJO+JPzq3oeOM2tFop2mWxVVrOV8o0hU6wY2lYNRdvDp1gbBp1BdbIrI6U+UjoEECt2OzCSnP/p9A5dsafuVvx/ccqfuD4mpyLmay6TPH9bw9cXvlNUbYwi/KqcVFgAagIO16DUazjZeKGD0m+4Q55caB64z/186qNjRpKCkoe/VjlthImJSWrvleZsSrFh6XSmtApnislh7gru2foBDvkaSiwUnqj1m6VG+QWwjEws49Y15YUHnoHVE/UXfyRpKtD59gVX7dQ8b1HKF78XvnmKuzuHXpS8eJTlTz690Fv+TXZ96Ns8XibqTr9DghGggILQMXYMYXlSnSipJR8dRiQJ/JVVbo9vLhCvvG+6oyNmvMNdykZ+N/KjLX66tBnTuxQ6raklTeFTrBVNoWHuCdFaXht6BTytGzzHK3hiVlgmfvF0ezBG0LnAEKISoUPS74kdI5dc/lT1yn+3RsV3/92+VPXj/+bZ+WNSvq+pvJvX711vJDMz426Bj/E5RGNjwILQEXlugt3uFllD/WpU8kTl0u++wubRj3u6rlK3ZYsjEvS+0X5ukXjG8TLSvq/XplAlZa2c7BSsrrHUngLoRdXhI6wVVpKxlHy4Ym4a8WXZIvFT4dOAYRix2ljnPV3S0rZcuMd8/W/Vrz4VJXv6FTyx3+Qr50/8r8XPZZvuEPJY2epfMdBW289DLvlu2Dy03Kzi18MGQK1wyHuACquafbgpeWFLa921ydDZwmquFy+7lbZfl2VG9NjJSu+U7nxkA4eK17yAUVvuEtqbhvTEMmqyyt+nlal+NATstAhthdwi8NzRHuFTvBCQykpsFJSMo7axNtCWEg8e6odrzpdMgdURvPMoZ7Sra3HWuILJaXwk/sOlFYrWfl9aeX3pUyTbPKrZHscJrXkpdyLZLm95fGWrRefFJfJNy+Wb3wgFat0JcmlAbmdkOsuPBA6C2qHAgtAVWTXFs4q79fyKrlmh84SUjLwTWUrWGD5mhul4vKKjYcUKa1R/OC7lH3tzVLTi0b53tVKlp5TnVyVkLIthF7eGDrCVik8xN3T8vklKYROMHrljek5X61GXPbPk7q3LA6dA0iDplmDvy8tbDnaXL+StG/oPKOSlOSbHkzVLca7ZFqYy0Sn2MxNdbHqDZXDFkIAVWFzFEfDuTnmSueSkBrx9bfJ199WocFiJb2skG5kvuVRxQ8ev/UL4RG/KVb8yMfSffZOGg4F316cku1pmebQCV4oLVsIpdH9OUgBH55wX0dd19Q1eGHoEECaNM0u3BNb8kaZ/hg6S4NKJPtKtLZwDOXVxESBBaBq7NiN6+Js9t3SxL4NJHnsUxXZDpOs+qF88yMVSIQ0800PKb5vprywdESvT3rOka+9ucqpxic1q3qeFfa8jr+IUngLYZp+rdKy1XOkJtD5Vy4tj8q5D4XOAaRR8+yhpVFm0ptduip0lkbi0nIlPivXNfhZm6MKXd+MekOBBaCqJs3avMRMZ2gCnzruW/6opPc/xjdGoVdJz2crlAhp51seVXzPEfInf6qd/tFJSkoe/Xsly86rabYxGUpRKSKlZ2VPKrcQpmgFVt0VWOk4F6YGYjN/vx27ceI0dsAo2cwNG5q6Cqea632SNoTO0wCuyZVzh+WOLv46dBCERYEFoOqi2YWrJX0zdI6QkoH/3VZGjEE8qGTxe6XyM5UNhXQrb1C85P8pvvcoJU/8aOs2PB+WhlYpWfVDxXe/Tsmqy0KnHJFUlSKSVE7HCizLtISO8EIpKhu93m4iLD0dOkFtuH05N7v4m9AxgHoQdReujGK9WtKtobPUJdPTJj8t11U4mdIcEoe4A6iRaF3hX8v7trxG0qzQWcJwxY98RFkflr3s/SN/2/A6xQ+eIN/0cPWiIdV8473yR+5VEjrIeJQ3bv2Rki1znpYzsKI9Qid4gVSVjXV2kLtPjC2Ev4nWD45vSTEwwdgxheV+rrqH39r6YZP/p6RR3tQyMbn041wmOouzrrA9VmABqAmbozgqZU9xKT3f3q81Lyt+5KOKl3xYGlq5+5ev+aXie4+Ub7y3BuGA6krVOVhpKbAsZVsIh9dJ8ZbQKf6i7rYQNnyB9VSU2KmcPQOMnp2rpKlr8JIoG73S5N+R6vv7UtVkrh555timrsJplFd4PlZgAagZO27z06UFrSdJfrukSaHzhOJPXqny6rmyfY+S7XW4bM83SE37b32yvEm+4U75mpsortBYhlZIU2aETrFVWramZVtDJ3iOVJWMUmq2eo5Y6anQCaoplpL329Fpu1IUqC/bCpmPlW5t/a4l/i1JbwqdKUU2SPpydn3hApujUugwSCcKLAA11dQ1eG9pfusnzfyS0FmC8rJ87QL52gWhkwA14cXlstAhnpWGFVjZyaETvNBQirYPSlIyGDrBqHh5fegIVWT/mesamh86BdAommYN/t5dfx0vbH2Xy78g6bDQmQIqmXRpNht9gRVX2B22EAKouabuwe+66yehcwCooRSt7knF4eCpvIEwPb9GkuRxva3AatBbCE0Lo3WDXwodA2g0ZvKoa/C6aHbhtSY7QdKDoTPVWMncLy5n/ZCoq/AJyiuMBAUWgCByav64SX2hcwCoDS8uCx3hL9Jwo2d2SugEL1ToD53gucobQycYneGG/Nrricgz7+PcK6B6nlNkmU6UdEfoTFW2xaRvR1lNj7qLH2+ZWewPHQj1gwILQBDWvf6ZxHSKxB53YEIopKSv9uFUFCOWsvOvJMkHHw8d4bnSUDSOgg833AqsWImfal1bVocOAkwEZvJodmFerqtwRBJnDzXpQkn19YlwF0zqlfTpKDupLeoq/IPNLKRs3zrqAQUWgGCaZhfukeuc0DkAVJ8P9oSOsFVabopL2w2EUnpKxmeloGgclbT83qoY/3zu6OKvQ6cAJqJJx2z+Q9RV+ESULbS520cl3Rc60xgV3DTX3N6RvaNwUK6r8E2buWFD6FCoXxziDiCoqKvw3+WFzbMlOyZ0FgBVNLxu64qaaK+gMTwtJUO0R+gEz+WxvNAbOsVz1VOBNbxO8kbaZec3RbOLXw2dApjobKY2S4PflfTdwqLmfDa2d5n0LklHSsoGjrczJcl+7Zb8JJe0XGtd6xtmFRnCo8ACEJSZ3BdkP1BW8qCkl4bOA6B6vNAr2+M1YUOUng47/7MyLaETPIcXl0tJunZ0ex1tIfQGOv/KpP6scu83K3roLAD+YttZUedJOs8X7LFfrOF3uNk75XqbpP3CptMql83PyH+RLRVuseO07TsQxbCp0HAosAAEZ11bVpfnt37Mza8LnQVAFQ0ulUIXWGlZgZW2WwjTdv6VVF8rsIYa5pioYpKxk6NZmxruQC+gkVjXprWSfijph+6y0i1TZlg2OTIjvc7lr5U0Q1KuStMXJC0x+f1y3Vk23dHcVUzZEl40KgosAKkQdQ9eX1rQcpVJp4TOAqA6vNArC51heH3gBNtEe4ZO8BxeWBo6wgvV0QqsRrmB0N0/0TSr8PvQOQCMnJlc2vwHSX949jGfq6bSXlMOzmaTTjfvtETtntEBcr1Y0osl7SlpkqR9njfckKQNMq2Xa72k1ZIG3DWQyai/bMkjk9YM9XAzKUKhwAKQGrls9MlyXO6S9KLQWQBUwWAKSpLhp0InkCRZpjl0hOdKw6/N89XRCiwv1f8KLDP/bq6r+P3QOQCMn81R6fmlFtAIuIUQQGrYzE1rTPpk6BwAqsMLKbiJkC2EO5SaWyK3U09nYKlU9yuw7suuLf5D6BAAAOwKBRaAVIm6CldJ4iwsoAH5pj9ICnsudGq2EGbTtYVQKSyw6mkFlkpPhk4wdqanI9dJW1dsAACQXhRYAFInSuwTklLyVSaAiok3yQsDYTMMrQo7/7Myk0In+AsflhcD/7rsSFKUkqHQKUbE63cFVixP3mfdhWWhgwAAsDsUWABSx44eXOVunw2dA0AVbH447PxDK8PO/6wUnYHlg72Sl0PH2LF6WYU19EToBGPkn8t1Dc0PnQIAgJGgwAKQSrn1g5dIejB0DgCV5ZvDnifrxZQUWGmy5ZHQCXaqbs7BGl4bOsFYXBPNLn4tdAgAAEaKAgtAKm29ntf/MXQOAJXlmxeHm7z8jBRvDjf/9jLpuQjaNy8JHWHnSk+HTjAiXn9nYC2OCoXTzQIfSgcAwChQYAFIrVxX8XZJ80LnAFA5vvGBcHOnafVVZnLoBH8WelXcLg3XQYEVD279UT/WxPJ32/Gqq9AAAFBgAUi1RPE5kuLQOQBUSHHZ1h8hpOX8q7QJuSpuN7yU/q15dbb6KlbipzR3FXtDBwEAYLQosACk2qSu0iMu+3HoHAAqxzfcEWZeCqwXijfJC/2hU+xcPZRDdXT+lUufzh1dXBg6BwAAY0GBBSD1EiVfkpTSK7IAjJavD1NgKU1bCFPCNz4opfkYpOF1oRPsXp3cQGiyy5q6CueFzgEAwFhRYAFIveauYq9LPwudA0Bl+IY7w8xbSNGuqZQcJu+b7g8dYZe8tDp0hN3yejho3vW7bGnwY6FjAAAwHhRYAOqD23+FjgCgMnzwcWkowNawLY/Wfs6d8XQc7ecb7wsdYdfqYXve0KrQCXZnVZTRSXachkIHAQBgPCiwANSFpu7BB2Ti3A6gQfj6X9d4wkQ++KfazlkPNv4+dIJdKz0VOsHupXtratEzOtFmF1IdEgCAkaDAAlA3LNEloTMAqIxk7U01nc+Ly6R4sKZz7pKnYDFMaU26D3BXfWzP86EVoSPsjJv8w02zCr8LHQQAgEqgwAJQN7LrC9dJqoNvxwPYHV9zk+TDtZtwyx9rN9dIxIXQCeTP/DZ0hN0bXqtUHzIvSam93dK+GnUVrwidAgCASqHAAlA3bI5Kkn4cOgeACig/I99wV82m8y2P1GyuEYk3hU4gX/+b0BF2z2OplO5zsDydtxDOi2YPnhM6BAAAlUSBBaCuuOvq0BkAVIavqd02Qk/TAe6SvBz+FsK6KLAkeZoPci9v3PojXR6ICoX3m6V96RoAAKNDgQWgruS6Cr+TlNoDRwCMnK+5sXaTPXNP7eYaiXhL2PnLG+RbloTNMFIpvuXP07d98Ikoq3fa8UrRgW8AAFQGBRaAumImN+n60DkAjJ8PPi7feG/1JyqtkQ8+Xv15RiMJ2y/4+t9IngTNMFIpPiQ9bedfDXpGJ9jMQop/wgAAGDsKLAD1x7UodAQAleFPXFn9OTakcKvc8Pqg09dy++a4FZeFTrBTnp7VYW6uj3DjIACgkVFgAag72Sj6tVJ/LRWAkUhWz5WSUnXnSGNZM7wu4OSuZO3NAecfpcLy0Al2rpiWFVj25ai7UP02GACAgCiwANQdm7lpjWR/DJ0DQAUMr5ev+VX1xvdh+dr0FVheejrc3JsektJ5c94OeYpXYKVhC6FLV0SzB78QOgcAANVGgQWgLrn54tAZAFRGsup7VRvbn/6lVFpTtfHHLN4sJUNBpq5qYVgNxfSuwAperpnuzK0rnMGNgwCAiYACC0BdMvkjoTMAqAxfu1C+uTqddLLq+1UZtyICbSP0p28IMu9Y+dDy9B44P7g02NTm6omGsifYHFV3Dy4AAClBgQWgLpmzhRBoHK5k4LzKj1ockK+7teLjVoqXnqr9nFselW96sObzjktSkkqrQ6d4IS/LQ60OMz1djpK323Gbw+1FBQCgxiiwANQld0/hVzMAxspXz634VjFffmF6V+5IUoAb7PzJuTWfsxKCb9XbAS8ul7wcYuqS5Cc3zxzqCTE5AAChUGABqEtJNuK7zkAj8bKSvq9WbrzSU0pWVu9srUqo/eodl6/+aY3nrJAUFlgafDzErG7yM3Kzi78JMTkAACFRYAGoS03ma0NnAFBZyRM/km+8vzJjDXxTigcrMlbVDK2o6XS+4U55ob+mc1ZKsK16u+Cbl4SY9bNRV/GKABMDABAcBRaA+lROmkJHAFBhnij50z9L47xQzQv9SlZ8tzKZqqjWpUyy4js1na+iigOhE7xArQssl66IZhe/VtNJAQBIEQosAACQGv7M3UpWjufmQFfyx09ISaFimaqmlgVWcbn8qetrN1+F+WAKj3va/HAtZ7s1t65whtk4210AAOoYBRaAujRkHoXOAKA6kj/9y5hvyktW/kC+blGFE1WHF2q3qihZcUmoA8crwrek7OLZeLN8y6O1mm1x5M0n2hyVajUhAABpRIEFoC5lE3tZ6AwAqiQpKln8Pqm8YVRv8433Knn87CqFqoKhlVJ5Y/XniTcrWXVZ9eeppqEnavNzNUK+8T7J41pMtSLK6jjrXv9MLSYDACDNKLAA1CXLamroDACqxwt9in/fLZVWj+z1g48rfuik9B/c/jy1WMWTLL9YGq7/ey/StArLN/y2FtM8k3jmOJtZqO1p/wAApBQFFoC65K4DQ2cAUF2+eYni+7rkmx7a9euevkHxvUdKpTU1SlY5VS+w4s1Klp9f3TlqpIZb9nbLn/ldtacoyfzESd1bFld7IgAA6gUFFoC65NJrQmcAUH1eWKr43rcoeeyf5IXe5z634S7Ffzhd8cOnSOU63WFV5VImWX5xXRZ7O1TbQ9N3weUb763qBCY/Ize7eGs1JwEAoN5wCDKAupSR3sRVTMAE4cnWQ8hXXCJNOkDW9BL50PKGKGZ88yPVGzze1DCrryTJN94fOoIkyTc/Kg2vr+IE+kzUXbyiehMAAFCfKLAA1B2/qfVlZXk+dA4AAQytkg+tCp2iYnzjvZInklV+UXwycF5DlHzP8s2Ltx6cbtmwOdZXb2GUmS6Kugpfq9oEAADUMbYQAqg7w7nk2NAZAKAiyhvlW5ZUftyhJ5UsO6/y44YUD6biIHdfu7BKA+vn2bWFT1ZncAAA6h8FFoC6Y4lODp0BACqlGjfaJX1fluItFR83tCqfPbV7SUm+4Y7Kj2v6dVQsnGpzFFd+cAAAGgMFFoC64vP32Utms0PnAIBK8Q13VXa8zY8oWfWjio6ZFr7+9rDzP/O7ahSDD0dJ87vseA1WemAAABoJBRaAujKs4umSJoXOAQCVsnVFT6WupXAlj50peblC46WLbwhcYK2r7PZBc/VEpWyXda+v02s0AQCoHQosAHXDz1UmI/1j6BwAUFFDq+Qb76vIUMkTP5ZvuLMiY6VScYW80Bdsel9X0QPcV5TNj7HjNj9dyUEBAGhUFFgA6kb8ltbj3dQZOgcAVJqv/tn4Bxlep6Tns+MfJ+V87YIwEw+tlG+6v1KjrUs8c1xzV7G3UgMCANDoKLAA1AV3mZt/JnQOAKiG5KnrNN5thPEf/0EqralMoBTzp68PMm/y1DzJk0oMNegZHTepe8viSgwGAMBEQYEFoC7Et7acIumNoXMAQFUUl289IHyM/Mkr5U9dV8FA6eXrfyMNr6v9vKuvqcQwJVlyQtOswth/sQEAmKAosACknt+oSXJ9JXQOAKimZPmFY3qfD/5J8WOfqnCaFPOykqd/XtspC0vlz9wz3mFiM30wN3volkpkAgBgoqHAApB65abmf3UpHzoHAFSTP3Xd6A8oL29U8tAcqbyxOqFSyld8R5W7uXEE8628bLzzucv/Lppd+ElFAgEAMAFRYAFItdItkw+T7JzQOQCg6ryspGcUn+6SIcWL3ysf/FP1MqWUb3pIvnZhjSYbVvLE5eMawd0+0dRV/F6lIgEAMBFRYAFILZ+rJsskP5SUC50FAGrBn5o3srOskpLixafK191a/VAplfR9pVKHqu+SPzVPKj019vdLZzV1D15UwUgAAExIFFgAUqu8b8tXJL06dA4AqKX40Y/JNz2w8xcMPaH4gbfL19xUu1Ap5M/crWT5t6s8SaKk/7/G/n7TvzR1Fc6rXCAAACaubOgAALAj5fktc2T6H0kWOgsA1FQyJF/9M9mkl8n2OFR//jTow0pWfk/xktOlLRNv2+CO+IY7Zfu+TdbcVp3xn56nZMV3xvhm/1yuq/i1yiYCAGDi4gtDAKkzNH/yoRlL7pbUGjoLAAQ16WWyvd4oxQX5M3dPuMPaRyTaU9nXLZRNmVHZcZOS4nsOl295bAxvti/luga/UNlAAABMbBRYAFLFb5yyf5yL73JTZ+gsAIA60bS/sq+9STb5lRUbMun7mpLeL43lrV/PdRX+rWJBAACAJAosACniN6i13Nxyq0yHh84CAKgzuf2Ufc0Nsj0OG/dQPvi44t8dLiXF0b3R9L+52YVPjTsAAAB4AQ5xB5AKPlfZcnPLTyivAABjMrxW8e+Pka+9eXzjlDcqWfze0ZdX0jcorwAAqB4KLACpEO/XcoFM7wydAwBQx+JNih86WUn/NyRPRv9+H1b88CnyzUtG+T77z1xX4ezRTwgAAEaKWwgBBFda0Pr3kjjsFgBQAS5ff9vWGwr3frMst+/I3hZvVvzwe+XrFo5uOvNzcl2FL44+JwAAGA0KLABBlW9tfafcLxMrQgEAlVQckK/8nlR+ZusNhdEeO32pr1uk5KGT5RvvHd0crrNzXcWvjTMpAAAYAQ5xBxBM6daWwy3RrZJaQ2cBADQwy8n265Ltd7Rs8iukaE+p/Ix804Py1dfKN9432hHdXWc2dRcuqEZcAADwQhRYAIIoLprUmU0yd8m1f+gsAACMQuKyjzd1DV4SOggAABMJWwgB1JzfOGV/My2SdGDoLAAAjEJs7mfkugvfDx0EAICJJgodAMDE4jeotZyLb5CpM3QWAABGoWTS6VF38aehgwAAMBFRYAGoGZ+rbLm55ScyHR46CwAAo7BFnjkp6t5yc+ggAABMVBRYAGom3q/lArneGToHAACjsM4zOq5p1pbfhQ4CAMBERoEFoCaG57f8m7s+HjoHAACjsDJRfPSkWaVHQgcBAGCi4xZCAFVXXtD8PpddLj7nAADqx58i86NtdnEgdBAAAMAXkwCqbHhBc5dkv5TUFDoLAAAj9Psozh5nx2x+KnQQAACwVSZ0AACNq3Rry+GSXa/GL6+GJK0KHQIAUBGLolJhFuUVAADpQoEFoCqKiyZ1musGSa2hs1TRSpmfE5WyB0al7GGS7g0dCAAwLtdEpcLb7ThtDB0EAAA8F1sIAVScL2ppi2Pd5tL00Fmq5C6Tzs/uXbjWXq/hZx/0RZpSLrdeI/OjQ4YDAIzJN6M7Cv9i5yoJHQQAALwQBRaAivL5++xVtuLtkg4NnaXChlx2lTK6oGnW4O939iKfq6bhfVt+ZNLf1jIcAGDMYjf9U9PswrdCBwEAADtHgQWgYnyumsr7tvxK0qzQWSpopdwvjpLokpGeh+LnKhMf0fJ/7vpktcMBAMZli2XsvdGswZ+HDgIAAHaNAgtARfhcZcv7tlwj6V2hs1TIb7dtE7xm+22CozE8v/kcmf1HpYMBACriSZe9s6lrkPMLAQCoAxRYACqivLDlQnd9PHSOcRpy2U+V6IKmowfvq8SApQWtHzX5hZKylRgPAFAJ9kg5Tt7RckyxL3QSAAAwMhRYAMZteEHz5yX7Yugc4/CE3C+MLPtd69qyutKDlxe2nOCuKyU1V3psAMCo3RZNajrRjnhmfeggAABg5CiwAIxLaX7rx838wtA5xuhuk84bzzbBkRpe2Hyk3K6TtE815wEA7JzLfpRbN/gRm6NS6CwAAGB0KLAAjFl5Ycup7rpc9bU9bsilq5XYeZXaJjjiiRc0vcqU/ZVJU2s5LwBAsUz/lptd+O/QQQAAwNhQYAEYk/Ktrcd54vMkNYXOMkJPSH5xpOx3qrFNcKT8ltYDyhn/laRXh8oAABOLbbSMTo1mDd4YOgkAABg7CiwAoza8oPkIyW6S1Bo6ywjcba4LsvsUrq72NsGR8hu1Z7mp9RrJu0JnAYBGZtLSWPE7J3WVHgmdBQAAjA8FFoBRKd0y+TDLJLdJ2it0ll0ouTRXsvPTej26z1XT8L4t3zPp/aGzAECDujUq595jx25cFzoIAAAYPwosACNWvGXSQdls5k659g+dZSeelPyiKJu9xGZueTJ0mN1xl5VvbfmKXP8WOgsANBIzXZTdq3BmWlbeAgCA8aPAAjAivqilrRzrt5LaQmd5AdfvTDo/u77ws3q8Waq0oPUTJj9P9XUYPgCk0bC7ndnUPXhR6CAAAKCyKLAA7JbfOGX/clN8h6SDQ2fZTsmlq2U6v2l24Z7QYcarvKD13S6/UlJL6CwAUKeelHxOrqt4e+ggAACg8iiwAOySz99nr7IVF0l6Tegs2zwpt+9EkV1cD9sER6O0sOWN5rpe0ktDZwGAumK6M4ptjh09uCp0FAAAUB0UWAB2ym9Qa7ml5VeSjgydRdI9Jj8/u654dT1uExypws3N06KsbpBsRugsAFAnzo/2Lvwz510BANDYKLAA7JDPVVN5n+Z5MjsuYIySm34m0/lNswq/C5ijprauehv6meRdobMAQIoNmusjUXfhytBBAABA9VFgAXgBn6tsed+Wn0o6KVCEJyW7JMraRY22TXCk/D7l4g3NF7rsw6GzAEAKPZ545qRJ3VsWhw4CAABqgwILwHP4ucoMv6XlMjOdFmD6e01+frZUvNqO01CA+VNneEHzv0v2n+LzNQA864YoO+l0m7lhQ+ggAACgdviCCBNG54EHTh+M4ydWrVo1GDpLWrnL4oXNF7vsozWcdthNVyvRBU3dhbtrOG/dKC9seY+7fiSpOXQWAAioLNM50azCf5nJQ4cBAAC1RYGFCWP61PxFMh3SPDj5nUueXrJ5++c62tvPyJhN7env/w9JcaCIwQ0vbPmmXGfVaLrVkn0nKutiO3bwiRrNWbeGF7S8WdJ1kl4cOgsA1JpLy0w6JddV+G3oLAAAIAwKLDSkjqkdXZKKvct673j2sWnTpr0xk/hdJj1upg8+3t//50PBO9o6DrJs8rCk2wrDpZOam5tzuTje97GBgb4Q2l4dtQAAIABJREFU+UMYXtD6Jck/V4Op7jPz87NDxblsExyd4oLmjqzZL+V6RegsAFBD10eKPmRdm9aGDgIAAMLJhA4AVEUm2d8suXV6Pv93zz7U19d3j5s+6dIrEvc7OqdOO/nZ53pX9D6+7ZyhY1ubmq7LlMttZemeznz+i52dnXsG+RhqaHhhy79Wubwadukqd70511V4QzS7eDnl1eg1dxV7o6amv5a0KHQWAKiBkrs+Fc0unEB5BQAAWIGFRpXtaM/fZ9Jhkn956cDAn8uZjvZp3zL5JyRtcvnHewcGrpCktra2lknZaEDS/ib9IEkyF1omWShpuWczJ/b29v4p0MdSVaX5LZ800/lVGn61zL4bDetCtglWjs9VU7xf87fc7SOhswBANZjUlyQ2p+nowftCZwEAAOlAgYWGdVA+f3jiuktSRqbzl/b3n7ntqez09mm/lvwtkuSuf+td1v91SeqYmv+Cmc6VJDO92xMdItPXJZVM/vc9AwPfC/GxVEtpfvMZZnapKv+54D5zvyA7XPwpK62qp7Sg5R9N+h9JUegsAFBBV0fZSR/llkEAALA9thCi7k1vz887KJ8//PmPbz3jyr8pSXL9Y2c+/+/bnorN/BvPvs5M/9k5ddrxkuRZm7fdEJ/IxcPfk1SS1OSy7zy77fDgqVM7Dpo27cgqfUg1UV7YfJqZXaLKlVfDLl0l01tyXYU3RN3FH1FeVVdTV+F8KTlO0vrQWQCgAra420dzXYU5lFcAAOD5KLDQCA5LXLd3trd/SlJ2+yeap0z5rEsPSpK7vtKZz58lST39/b+Q9OS2l2Xd/PLOqVNn9PX1LZa8vO31Rwxms4m7btvudRfm8/m9k0zmUE/8lJp8dFVQXthyqrv9QM/7+Rqjp2T25cg0ramrcGpuduGuCoyJEcp1Dc2Pk+Rwmf4YOgsAjMM9cTY5rKl78LuhgwAAgHRiCyHqXmd7+9+77Nvb/vMRmT67tL//ekkuSQe1t78ykR6WLJIkky5y+dWSXSZp6nZDPSHXzTJ9cLvHBiTfT7Ipf3nIPufurRnTcT0D/YdV8UOrivL8ljluulLjL69+b/ILsqXiVay0Cs/n77NX2QpXSXZs6CwAMAplyb4aZQe/ZDNVDh0GAACkFwUW6l5bW1tLczZa4dK+2z18t+SfXjowcJckTW/P3y/pNRWasrTtn9nmwcl7L3l6yeYKjVt15QUtJ7t0lcZeXg27aZ5J57HSKn18rrLlfVu+LunTobMAwO6Y1Oum0/j7BAAAjAQFFurSjP1nTBlq3fyBRJkOcx+Q6UuS9nrey1yy+6XEJXt9NXK4/B29AwO/rMbYlVae33Kim66SlBv1m01PK7FLooxfZLMLKyufDpVUWtj8QXO7WNKk0FkAYEfM7QfZlsEz7a3aFDoLAACoDxRYqEsd7e2Xm+z9oXOY9P2egf4Phc6xO+UFre92+U8lNY3yrfe7+QW5oeJP2CZYX4YXtvy1XNdKeknoLACwnTXm+ljUXbgmdBAAAFBfKLBQl6a356+RdGLoHJIk12VS8q2ly5Y9ICkJHef5ygta3+HyazTy8mrrNsFY5+eOLtxZzWyoLr+55cByVtercttnAWDsTNdG5ezH7ZjNT4WOAgAA6g8FFupSR3v7cSZL1dY9lx7MyD/UMzBwf+gszyovbH27u1+nkZRXpqfl9t0o6xfZzMKK6qdDLfjNmlzOtvxA0ntCZwEwYa016R+irsJVoYMAAID6RYGFujW9PT9P0rtD53gB09VL+/vnhI4xvGDysVJynXZ/DtL9bv6tXKb4E5upYi2yobbcZeVbmz8jty9q/LdPAsBozIuU+bh1bVkdOggAAKhvFFioW51Tp53s5leHzrEDibl9oG1Z+1W36bYgV4IPL5x0tDxznaSWnbyk7KZrzf1bua7i7bXMhnCGF0zqljJXSnpR6CwAGt46c30y6i5cGToIAABoDJnQAYCxSuQvD51hJzJufvmK9r43hJh8+Jbm2fLMPO24vFoj2VejrKY1zS78LeXVxJLrGpofuV4n6d7QWQA0tOujbGYG5RUAAKgkVmChbh1wwAGtLU1Nd8t1aOgsO1AYisv7rVixolDLSYfnNx8ls19Kan3eUw+6+flsE4Qk+Y2aFDc1n+eyvwudBUBDedJcZ0bdhbmhgwAAgMZDgYW6Nr29/T8kOyd0jh14eOlA/1/VcsLhhc2z5HaD/lJelSVdJ/n5rLTCjpQWNn/Q3C6S1Bw6C4C65mZ+aTbTfLbN3LAhdBgAANCYKLBQ1w4+4OAXlXOlX5h0eOgsz+OSX7p0YOCjtZhs25lX87S1vFoj06VRRt/mNkHsTumWyYdlMsm1Lk0LnQVAXXpM8o/wjRIAAFBtFFhoCIcceOABsUWz3ZLvSxaFzrOV37d0YKDq52Btu21wnqQ/uvxbuWzxCrYJYjT89r32KQ+VLpf0N6GzAKgbJbl9NRoe/Kodp6HQYQAAQOOjwEJDmTZtWns2Ube7v16mdkkvkbSXpI6ahzH9aGl//weqOcXwgsnHuiWnWeyX5I4u/rqac6GxucvKC5vPkexcccEHgF27I1H8d5O6So+EDgIAACYOCiw0vI62jkMtmzykWv9+d/1w6bL+D1Zt+HOV0dsmv9hmbnmyWnNg4hmeP/kYWXKFpP1CZwGQMqanXf6vuVnFy8zkoeMAAICJhQILDWt62/ROZeIvy3SypGygGI+Z/IKegYGLJCWBMgCj4gub28tuP5P0+tBZAKRCYtLF2eykz3JIOwAACIUCCw2nra2tZVI2+0XJzpTUFDrPNrcOxeX3rFixYl3oIMBI+CI1x+WWb7jpE+LvCmAiu9vNPtE0e/D+0EEAAMDExhclaCgdUzveahb/QLLO0Fl2YInlopk9PT1Phw4CjFR5Qeu7XX6p2FIITDRr3Ozfc7cPft/OZQUxAAAIjwILjSIzvb393yWdm55bCHfAdfPSZf3Hho4BjIbPb5laNv1Y0hGhswCourJJl2TLuc/ZsRtZNQwAAFKDAgt1r62tbd/mKLrKXd2hs4yMv2XpwMBdoVMAo+GLFJXj1s9L/hmFO1MOQHXd5knmrKajtzwYOggAAMDzcVU66lpHW8dBk6Lo7vopryQzOzp0BmC0bKbKua7Bz0veLWlF6DwAKsdcPWY6MddVmEl5BQAA0ooVWKhbnfn82+S61qV9Q2fZgY0m/3riFpvZHmYeJ9IfLZtdGMdxqb+/n1ucULf8pj33HY6GLzTpb0NnATAuGyR9OVpXuMDmqBQ6DAAAwK5QYKEudebz73LXXKXnlsHtFZKMvbmvr++h0EGAaiovbDnVXd+WtE/oLABGZes5V9noCzZz05rQYQAAAEaCLYSoO9Pz+VPcdbXSWV5J8pwl/oHQKYBqi2YXfhLF+ivJFoTOAmDErksU/1XUVfgE5RUAAKgnrMBCXZmez39QrkuV/kOk3eSv6xkYeCB0EKDa3GXDC1s+adLXJLWEzgNgB0x3Sjo7N7vAJSIAAKAuUWChbnS0t7/PZJerfn7fFl1+Uu/AwI2hgwC1ULx10iHZJHOppLeGzgLgWfaIuT4TdQ9eHzoJAADAeNRLEYAJrqO9/W9Mdq1Su21wx0xal4nLr/7TihUrQ2cBasFdNryg9WNm+prke4bOA0xgK13+hVy2+EObqXLoMAAAAOPFGVhIvYPy+cNNltYD23fJpX3jbPafQucAasVM3tQ9eFGU9RmSfhk6DzABrZHr7Ki1cFBTV/F7lFcAAKBRsAILqdbR1nFoJpvc5tK+obOMna8ZiuOpK1asKIROAtRaeUHLKS6dJ+nFobMADW6d5P8TZYvn20xtDh0GAACg0liBhTSzTDa5vL7LK0myF03KZo8NnQIIIeoqXBVlJx0i6XyJlSBAFTwjty9G3tyR6yp+hfIKAAA0KgospFbn1Gknu/RXoXNUgsuOCJ0BCMVmbtiQ6yqcmSj+K5kWhs4DNIjNkn0lKuc6ct2D51r3+mdCBwIAAKgmthAilWbMmNFU3LLlPrkODZ2lIkz3Lu3vf2PoGEAalBe2nCDXf7vUEToLUH9so6RvRdns/9rMTWtCpwEAAKgVVmAhlQqbB/+3YcorSXK1hY4ApEU0uzAv21r4/+Q6W9La0HmAOrFW8s9Hk3L5XNfgZymvAADARMMKLKRO59Rpp7n5j0LnqCST1vUM9O8XOgeQNj5/n73KNvRpyc+SNCV0HiCFVsv031GmcDHnWwEAgImMAgupclB7+ysT2X2SWkNnqSi2EAK75DdPeXE5G39W0sckNYXOA4Tm0nK5vpGbXLjU/lrcYgsAACY8thAiNY7SUZG7XaZGK68kyX0odAQgzeyYzU/lugpnRrE6zXSRJP7MYKJ60OSn5fYuTG/qLlxAeQUAALAVK7CQGtPbp50j+X+EzlElDywd6H9t6BBAvfBFLW1xorPd9RFJzaHzAFXmkt8i6b9zXcUFocMAAACkEQUWUqGzvf01Lrtbjbt16LqlA/0nhA4B1Bu/qfVl5ayfLdNH1YirMzHRlVz2E3f7n0ndWxaHDgMAAJBmbCFEcDP2nzHFZT9R45ZXctcDoTMA9ciOHXwi1104K4qz0yT7kiRuXkP9Mz0tsy9HiU1r6hr8IOUVAADA7rECC8F1tue/79L/C52jimLF2VcsXbG0J3QQoN75DWodbm05I+M6y6WO0HmAUbrf5OdnS8Wr7DjOeQMAABgNCiwE1dHefpLJfhY6R3X5N5YODJwdOgXQSHyusvF+LSe662xJrw+dB9iFYTfNs1jn544u3Bk6DAAAQL2iwEIw+Xx+76zrUUkvDZ2lihJPMm/qXd57b+ggQKMqzW95kzL6pLlOVgNvRUbdWSnZ9yLzS2x2YWXoMAAAAPWOAgvBdLRP+7bJ/z50jiq6TfIvLR0YWBQ6CDAR+KLJLy3H/nHJP6rGLsaRXonkN5tnvpNdP/gLm6M4dCAAAIBGUXcF1owZM5qGNgy92HLll8eZzBO9vb3LQmfC6E2bNu2NmcR/qwa9SMClB3PNk4587LHHNoXOAkw0PldN8T4tJ7vp7yQdGToPJoRVcvtBlEm+a7OLA6HDAAAANKLUFVjTpk17iSXJ602ZV0nJwZK9SNI+ku8n6aXb/vvPTFrnrttNdo2astf39PRsDJMco5Cd3p6/V9JrQgepDvu95bJv7+npeTp0EmCiG7q56RWZbPYjkk6X9KLdvR4YhWFJN5rbD7L7DN5or9dw6EAAAACNLBUFVseBHa+3bPIeuY6X9MqxjuPSFskuszjzf9z4ll4dU/Nnmun/QueosIJM8126rlQuX7VixYpC6EAA/sJv1KS4qeUEN31YrllKyd9/qEuL3fWDXJK9wo7Z/FToMAAAABNFsP+Bz+fz+azbaZK/T9IhFR4+kXSd5Je628G9y/rPq/D4GKOD29peHmejRyTtGTpLBax3+S8lXTelWLzp4dWrt4QOBGD3igsnTc+6vc9kp7s0PXQe1IV15royydplTbMGfx86DAAAwERU8wJr+tSpb5FlPiXp3arN+UdJkthRfcv7bq/BXNiN6fn8D+U6PXSOMdposhuk5K44k7mzr6/vDxIH9AL1yl1WXtjyJpN/wGXvkbRv6ExIlUF3XZ/J2E+yew3exBZBAACAsGpWYHW2t7/GZd+UdFSt5tzOk5KvSTKZD/X19d0TYH5ImjZt2l9lEr9f9Xpwu+tfly7r/6/QMQBU3rYthse76VS53i6pJXQmBDEs9/lmujKbLV5vM7U5dCAAAABsVfUCq62tbd9J2ez/Sfb+Wsy3GwOWi97A4dphTG/Pz9PWlXd1yeS/6BkYOD50DgDV5Xdoj3io5R3umiPpWEnNoTOhqobltshN1+Sy2Wtt5qY1oQMBAADghapaKHW0t/+Nyb4r6WXVnGdUXMsl/dI98/3e5b33ho4zUWw980xLVa+rr7byJLG3sR0VmDj8Ru0ZNzUf725zZDpalFmNoiRpvptfk/Pcz61r09rQgQAAALBr1SqwrDOfP9ddn6viHONVNLfTe5b1XR06yEQwPZ//P7nODJ1j3EyLD+zPv/Y23VYOHQVAbfnNmhxHLUcrseM94++Qa//QmTAatlHym01+fTbb/EubuWFD6EQAAAAYuYqXS69+yUsmDza3/tDlJ1V67Cpwk3+kZ2Dge6GDNLJDDjzwgHIm26MGOVPG5J/uGRj4ZugcAMLxucqW92l5s0zHa+vW6INDZ8ILmdQv0w3uyQ3RuqFf2xyVQmcCAADA2FS0wJqx/4wpxclbbpTriEqOW2Xu8tN6BwauCB2kUXXk8z83VyOdHbUxG5df9acVK1aGDgIgHQo3N0/LRpljTN4t12xJe4XONEGVJN0h6eZEmZsmdW15OHQgAAAAVEbFCqxDDjlkj3KxeKNkb63UmDVUknzm0oGBu0IHaTTT8/kPyvWD0Dmq4KqlA/2nhg4BIH18kaLycMvhytgxkndLer2kKHSuRmWuHplultv8bDS4kJsDAQAAGlNFCqwZM2Y0FTdv+ZWkWZUYL5CnrBy9rmdlz4rQQRrFwW1tL4+z0WJJ+4TOUgWeMb358f7+34UOAiDd/A7tUS5M/muZHynzt8n1BklNoXPVL3vUlNwu6fas22+su7AsdCIAAABUXyUKLOtsn3a5y99XgbFCe6B5yuQ3LVmyhDMyxs+mT83/SqZjQgepoluXDvTPDh0CQH3xu9RSHmx+k0xHyvVmyd6oxiz6KyGW9JCk2831m+xw9nY7bvPToUMBAACg9sZdYHVMzX/BTOdWIEsqmOlLPf39Xwido9515vNnuavhDzq3jB3T09d3S+gcAOpb8ZZJB0UZe6PL3iDpjZJeI6k5cKwQNkl6ULI7zHR7dmjwTjtOG0OHAgAAQHjjKrA68/lj3PVLSdkK5UmDYY8zr+td0bs4dJB61dne/lqX/VYTY4vMbUsH+meGDgGgsfh9ypU2TH5lVvGhLjtU7oe62aEmHRg6WwWtlPSg3B408wfLljwwadZQr5k8dDAAAACkz5gLrOnTpx+ocvl+yV5UyUCpYLp3aX//4RL/Ez1ar3j5y/cbjnL3SOoInaVWTP7anoGBB0LnAND4fNHee5fj4qHumVeYeadMnXJ1SOqUNCV0vp3YIKnPXX8004NS8kBUyj3IVkAAAACMxpgKrG2Hti+S9NcVzpMeplOW9vf/NHSMOpPtzOd/5a7u0EFqyvSjpf39HwgdA8DE5osmv7ScJB3mPs1lL5GpzV0vNulAmV4sV5uqU3IVJOuTJ/1m1udSn7n6E1lvrjnXb0c8s74KcwIAAGCCGVOB1dE+7X9M/qlKh0kV0+MH9udfdZtuK4eOUg/y+Xxz5PZjl58UOksApSRjU/v6+laHDgIAu+Jz1aT999hzKB7eM5PJ7GNxsodlM3sqSfZIlJm8wzeZt8ptMOO+WaaSyze4Z9bmEl+jUmGtHa/BGn8YAAAAmIBGXWB15vPvcte8sby33pj8wz0DA98LnSPtDjnwwAOGM9lrTTo8dJZQzO20nmV9Pw6dAwAAAACARpQZzYsPOeSQPdz1bU2A8kqSXPYpTZCPdaymt7efUM5k75/I5ZUkuSVHhs4AAAAAAECjGlWBVS6WviDp5VXKkkav6szn3xY6RBp1dHRMnZ7P/1SyayW9JHSe8IzfJwAAAAAAVMmIC6zOqVNfJfk/VjNMKrk+EjpCmszYf8aU6e3TzrE4+aNcc0LnSZGD8/n8S0OHAAAAAACgEY24wHJlvikpV8UsqeTSuw855JA9QucI7YADDmid3j7tn4utW3ol/w9JLaEzpU1Gmhk6AwAAAAAAjWhEBdZB+fzhMh1T7TAp1VoeGpodOkQoBx9w8Is629s/05Jr6pX8G5L2D50prSzR0aEzAAAAAADQiKKRvMjdz5nIZ5mb6z2Srgudo5Y62joOymSTs2KVPiBZa+g8dcHUHToCAAAAAACNaLetVGd7+2tc9vuRvLaRuevfepf1fz10jmpqa2trmRRFczzRGWY6QhP813xMkuyhS5cv/UPoGAAAAAAANJLdrsBytzNlFBlm+lpHe/4lvQP9/yIpDp2nUvL5/CuyiXV7xrvNfaZcU2zC/2qPnWXjbkkUWAAAAAAAVNAuq4q2trZ9J2WjFeLA7u3dFsnPeGxgoC90kDGwzqlTX5lkMkdmXEe4dJSkA0KHajDzlg70nxg6BAAAAAAAjWSXK7Caouh0OeXV8xw1LFvckc//c29//8Whw+zOwW1tL48zueNk/nbJj3DZi8wlDx2scR0eOgAAAAAAAI1mlyuwpufzD8t1aK3C1Bs33ZCL4489tnz5qtBZtpM5KJ9/Q+L+Dsn+RtJh4iyrmkoy9tK+vr7VoXMAAAAAANAodlpsdHR0HGxx8lgtw9Qjl7aY6YqM2RWP9/XdISmpdYZ8Pt+ccZ9lZu+S63hJL6t1BvxFktiRfcv7bg+dAwAAAACARrHzLYRJwjk+I2DSZLk+mrh/dHp7/inJf9g8OOVLS55esrma8776JS+ZvLml5Z1yP9Hcj5VsCvsC0yGT9emSKLAAAAAAAKiQnRZYJlFgjd6LJfuXYuuWkzoPPPDonuXLl1Z4/GxHe/sxJjtts3S8uSazOzB9PNFeoTMAAAAAANBIdlhgTZ8+/UCV49fXOkwD6fBM5rbOl3e+uWdlz4rxDtb58s62JFv+kJnOkDRVorZKtQwXHwAAAAAAUEmZHT46nLxbI+9INkmSXD+U1F+JUI3B2jxXvrGtrW3fsY4wbdq0Q6a3t//Io+E+M52rbeUV0s3ch0NnAAAAAACgkex4C6H5rJG82aSLJL9U0pvcMgdInq9gtvrnOnRSNvqFpLdqFIe75/P5V0Ru53jip0iWrV5AVINLT4TOAAAAAABAI3lBgXWUjoqWq++tu12A5fppz7L+T0qKJd0/vT0/UJ2Ide/NnVOnva9nWd/lu3vhQe3tr3TZOe46xeU7Xh2H1MuYrQydAQAAAACARvKCkmTF1IETJXvRLt7zJ7kua95j8unaWl5t4/8kqVjxhA3AzS/O5/P5nT1/UHv7K6e3569MZH9w6b3a2dZO1IVSkjwcOgMAAAAAAI3kBUWJm87e1RtcWr90Wf//W7JkSWn7x5cODMzLmI7Ss2diYXutGbd/fv6D+Xz+Fc8WV5JOFcVVI1i6bNmy9aFDAAAAAADQSJ5TmOTz+VdI/rqdv9xXRHH5pJ0O5v6UpFzF0jUQU/KBfD6/t7T1cPbO9mk/zrqWiOKqsZjuDx0BAAAAAIBG85wzsLLuf7Pzs6+87En2hD+tGNjp+T7DZueZq7miCRuGTclK/97ZPu3lnvipTmnVkFwUWAAAAAAAVNpzCiw3e5v5zl6a+a/e5b337ezZg6ZNOzJJ/PhKhms4rrNdO/0JRgPImFFgAQAAAABQYc8psMy14+2DpsXNk1u/uKuB3P2cCuYC6pJnMg+GzgAAAAAAQKP5837B9vb2l0WyVTt+mc9aOjCwaGeDdLR1HGTZ5DHtfP8hMBE8s3Sgf+/QIQAAAAAAaDR/PocpcnvPjl5gpvm7Kq8kybLx6aK8AnpDBwAAAAAAoBH95SBx89N28LwnceYzux/G3vq8BwbHlQqoR65loSMAAAAAANCIMtLWLYCSvX4Hz8/b1cHt22Ql3/69SyX/fMUSAnXCTOtCZwAAAAAAoBFlJMmyfsyOnjT5f+5ugM58/gjJpvz5PW6fMbOmykUE6oPLHgmdAQAAAACARpSRJDc/ekdPutmLdzeAu3Vv95/L2pa1X5skylUoH1A3LCnPC50BAAAAAIBGlJGUMddRO3l+5m5HMO/887/Kz7tNt5UzGW2qTDygbiRty6cPhA4BAAAAAEAjyuTz+YMl7fG8x1e76SxLdlps/YX7vtv+ZXPZ7PuSFJvdWtmYQOo9eptuK4cOAQAAAABAI8pk3F/7woft0t7+/vPcbDifz++96yEs2vbPG/r7+zdIUl9f30OS7q5wViC13HV16AwAAAAAADSqTMbs1c9/0MwXSHJT8o9Z9zfvcgTX6q3/8F8+52HPfE6STHZF5eIC6ZTN6PrQGQAAAAAAaFQZT5R/7kNeHiyV7pGknoGB+2OzB3Y5gtkdkhKLovnbP9y7rHeBy98vJf9/e3caJVd533n8979VrdZCjCQkRFChqu4usCcYYo9sjAzE2LGDx4m3OZmYnMQ5tpPgmRzvsWUP8XKSYRLOMITE8TiZZPCMt4yXGAzCBmLHUQIRICOMYvcYSbXcarUElkCbhZbuqvufF5JwS5a6q9VV9dSt+n7eoL791L1fHeDN/zz3qVtbWgx0oSST2Rm6AQAAAACAXhXJdNEplzbv3Lnz0Imf4jh+arobzD+08P/IdE+5XN516u9MOuSyr7cqFuhSD5/uv38AAAAAANAakUs/e/KlZMNsbjC6e/Tg0Xr9+lOvX5LLrXTZNZLOn1Mh0O08+WDoBAAAAAAAellk0smHtJuNzvYm4+Pjh0+91shkrjDXr0qaf/Z5QPfzJMvuKwAAAAAA2iiStGDqBU+SUituXK7V7pT0zbP46I8lPeZStRUdQFuZ7q6MV1ry/wwAAAAAADi9rE7ZIZVEUbkVNy4WCle6661NLN0t6UE3/bMlyQPlsbHHJTUk2UihcLNca1vRA7SDu41L8tAdAAAAAAD0sqyko5IGT1yIomhvK24cJcmuhkUn7e4yaY9L97tpXZQkm83Mt9VqPzzDLdzdzjNmA+hqydnsMgQAAAAAALOQlXREUwZYrbJ1bKxSXDX0lsT0ClPyZJJE/5zfnn9ovdbXm/n8cD7/GyZ/R6u7gNbxg9HAwLdDVwAAAAAA0OtsJF+IJeVPXCjX4qyOvcIX1Ei+sEHSmtAdwDS+Xq7Fbw4dAQAAAABAr4sk7Zh64dLlly44w9pOWxE6AJiOye8J3QAAAAAAQD+ITIqnXjg6/0BXDI5cdl/oBmAaiWez60JHAAAAgJEqAAAWoElEQVQAAADQDyKXV6ZesExmWaiYqawR3aZjB8wDXcel75bL5V2hOwAAAAAA6AeRebRx6gVP7PxQMVOVx8slM90cugM4HZPx+iAAAAAAAB0SaV7m4akXEkuWh4o5VS4u3CT5TZL2h24BpvKG3RW6AQAAAACAfhGVSqXdkkafu+KWC5dzsvVaXy/Xah+T6+OhW4ATXKpWxivfD90BAAAAAEC/iCTJXV997or5ZcFqzsRsXugE4ASTfzF0AwAAAAAA/SSSpCTSl09cMFn3DbCUdMU3IwKS3BuZz4WOAAAAAACgn0SSFMfxE3Ldf/xa8fIVKxYFbPopJt0hvpEQXcG+UxmvbAtdAQAAAABAP4me+0PG/vj4HzPPDi58R6Ce0yrVag+ZfI1cf+VSNXQP+pd7409CNwAAAAAA0G9s6g8jhcJdcr1BUu2iWqG4XuvrgbqmNZwbvtgyjc9IdnXoFvSVh8u1eE3oCAAAAAAA+k100k+ZzLskPygpP76qdn2YpJlVxivb5P6+0B3oN35j6AIAAAAAAPrRSQOscrm83aV3SpJHvlan7NDqJuWxsU2S9obuQH8w2dfKtdo/hu4AAAAAAKAfRadeqNRqfyvZrXJdNpzPvy5EVDNyudwCSQtDd6AvHMko+VDoCAAAAAAA+tVPDbAkqVyrfkimvzbpI50Oata8bPZ6SYOhO9AP7GNbajW+PAAAAAAAgEBOO8CS5OU4/o+uaPPw8PC5HS1qkic2HroBfWFDuVa9LXQEAAAAAAD9rGvPuGrGyKqhd8uSP5UsG7oFPWmLN6LXV8Yr20KHAAAAAADQzzKhA+Zi7/59G5csXrzDZG8M3YLeY24fKG+vcnA7AAAAAACBnekVwtSIBga+GLoBPeeo3G4ojVU/HzoEAAAAAABIaX71zooriysbjcbSSHKl/HVIdI2dkv+H8li8IXQIAAAAAAA4Js07sNwH6h+MEn9EDK/QGg9lk8ZLy7UawysAAAAAALpImgdYmr9o0VrJ/iF0B9LPZbfbQPaVW7Zv3xm6BQAAAAAAnCzVh7jv3r27sXTJ4kOSrg/dgvQy0x+Va/EH9uzZ0wjdAgAAAAAAflqaz8CSJEVSnISOQFq5mX6/FMe3hQ4BAAAAAABnlupXCCUpajR2SXomdAfSyNYyvAIAAAAAoPulfoB1/MyiraE7kC7HXhus/vfQHQAAAAAAYGapH2Ad96PQAUgTu7UUx58IXQEAAAAAAJqT6kPcT9i7f99Xli4+d1KyV6h3hnJoC7+pXItvDF0BAAAAAACa1xMDLEnau3//A+ctWRxJujZ0C7rSpNz+U3ks5rVBAAAAAABSpmcGWJK0+JylOyLTgzK70KS9kpaLHVmQdiWJ/Uple/XO0CEAAAAAAGD2LHRAm2QkaaRQuFWu94aOQVDf80z0pkqlMhY6BAAAAAAAnJ1e3Z3UkNRIzP5EkoeOQSCuLx+enLia4RUAAAAAAOnWqzuwnjOSL2yWdHnoDnSUS/aJcq16kxhgAgAAAACQer26A+s5Znpn6AZ01GFz+7VyrfpfxPAKAAAAAICekA0d0G51aV9PnVSP6ez0JHpjeXvl0dAhAAAAAACgdXp+B1YhLpQkfzp0B9ru/3kmWlNheAUAAAAAQM/p+c1JseJk6ZIlRUmrQ7egXexfjjbqv1Sr1Z4KXQIAAAAAAFqv5wdYkrR3375vLlmyeJ/Jr5ZsXugetJDp+0cb9V8YHx//cegUAAAAAADQHj3/CuFxSSWO/+xoo5E30x+FjkHruNvG8fHxw6E7AAAAAABA+/TLAEuSND4+vidxf0TSWOgWtEbkvjt0AwAAAAAAaK++GmBJ0oJzzvl2JH+tpAOhW9ACkSZCJwAAAAAAgPbquwHW6OjoxLZa7Ydye3foFszZpEvV0BEAAAAAAKC9LHRAQDaSL3xb0qtCh+Cs7HBpolKLh0OHAAAAAACA9uq7HVhTeFb+O5L2hg7B7Ln0lcj0/tAdAAAAAACg/fp5gKUttVrV5b8pqRG6BbNk2lqK47tCZwAAAAAAgPbr6wGWJFVqtW+a/J2SPHQLmhc1bGfoBgAAAAAA0Bl9P8CSpFKtdrvL3yrpcOgWNGXf4JGF3wkdAQAAAAAAOoMB1nGVWu2L5vaW0B2Y0S65rR3dPXowdAgAAAAAAOiMbOiAbtLIqBYlOippMHQLnuMmu8Pll0l60uV/UxmLvxg6CgAAAAAAdI6FDug2Q0NDl1viXzdpKHRLn5uQNM9d71M2utcajUvNo3NyY/n/u17r66HjAAAAAABA5zDAOo1LcrmVjUx2g6RVoVv6lZluVGI/KI1V1029LA7bBwAAAACg72RCB3SjZw4c+PF5i8+NTNHTkl7o0iGT5oXu6g/+AzO7oWH2rUqtujF0DQAAAAAACI8dWDMoFAovyDYakx5lbpf0itA9PeyIZJs8Y79cqVT2h44BAAAAAADdgwFWkwqFQiHjelzSuaFbeoVJT7h0oUxfknTn/GcXPci3CwIAAAAAgFMxwJqF4VXDV5sl90taGLol5RqS/aErqUw0GveOj4/vCR0EAAAAAAC6FwOsWRoaGloRJf64pAtCt6TUYUvs+tL26t2hQwAAAAAAQDowwDoLw7nhiy2TrJN0SNKLQ/ekyKEksddWt1cfCB0CAAAAAADSgwHWHORyuaWDmew3JF0ZuiUF3NyuL41VvxI6BAAAAAAApEsmdECaHThw4PBwceRzR549fNBNRZOWhG7qVi67rTxWvS10BwAAAAAASB92YLVQMV/4tEtvkvSzoVu6zC4byF5cKpUOhA4BAAAAAADpE4UO6CWlWvzuSU8uddmnQ7d0FbebGF4BAAAAAICzxQCrtRpjY2N7F5yz8P2S7gsd0yW8bsnfhY4AAAAAAADpxQCrDUZHRydk2hq6oyuYHqzVak+GzgAAAAAAAOnFAKtN5i9a9CHJPyhpX+iWkCyxT4VuAAAAAAAA6cYh7m12yYWXLGsMTDwsaSR0SwB755+z6ILR0dGJ0CEAAAAAACC92IHVZlt3bn1aplskJaFbOs1ldzC8AgAAAAAAc8UAqwPKcfw/JY2H7ui0KNHdoRsAAAAAAED6ZUMH9AszvceT5GmZucx+Ta53ScqE7mqnxGxP6AYAAAAAAJB+nIEVyEg+v12yXOiOdjL5vy3Vat8L3QEAAAAAANKNVwgDcdmS0A1ttv/cZct+EDoCAAAAAACkHwOsMDImLZrys0s6GiqmLUz/tGnTpsnQGQAAAAAAIP0YYIXRkPQjSYclPeym35bpbZIOBa1qJfeNoRMAAAAAAEBv4BD3QDyJXq8Bba1UKvtPXLs4n9+cyB6VtDBgWmu43xc6AQAAAAAA9AYGWIFUtle+e+o1NztXroEQPS3yHUnLJFtXHhvbFDoGAAAAAAD0BgZYXSRxX2nSZ026wGW/ErpndryeRNHvVavVLaFLAAAAAABAb7HQATitaCRfeErScknf07ED3y8JmzQD0yfLcfze0BkAAAAAAKD3sAOrOyVy+6jLL5hI6rdks9kVGde/SvqZ0GFnsNOj6OOhIwAAAAAAQG9iB1ZKFPP5dd36WqG5vaU0Vv1K6A4AAAAAANCbotABaE7iNi90wxncy/AKAAAAAAC0EwOsFFi9evWATFeF7jiNp6yevSF0BAAAAAAA6G0MsFJg/+7dF9uxg9y7yaHI9KbSjtJ46BAAAAAAANDbGGClgJtdELrhFG5ub98Wx4+EDgEAAAAAAL2PAVYKuLQgdMNUZvoDzr0CAAAAAACdwgALs/WlUhzfHDoCAAAAAAD0DwZYKZAxezp0w3GV7PzBGyR56BAAAAAAANA/LHQAmjOSLzwm6cUBExomv6ZUqz0UsAEAAAAAAPQhdmClhMn/R8jnu+u/MbwCAAAAAAAhMMBKi4GBL8i0LdDTn4nmZTn3CgAAAAAABMEAKyVKpdJRSe8J8Wxzfb5UKh0I8WwAAAAAAAAGWClSjuP7XLqt08+1jN3Z6WcCAAAAAACcwCHu6ZMZyeefkmxZJx5m0p5SLT5fUqMTzwMAAAAAADgVO7DSpyFFWzr1MJd/QwyvAAAAAABAQAyw0si9U4e5exJFt3boWQAAAAAAAKfFACuFLNLWTjzHTfdUq9XNnXgWAAAAAADAmTDASqFGYo924jme2F904jkAAAAAAADTYYCVQpa1jZKSNj/GM/Myj7T5GQAAAAAAADNigJVClUplv+SPzeIjfhaP2VUqlQ6cxecAAAAAAABaigFWSpnZ3za/WK/TrHds+e7ZrQcAAAAAAGgPBlgpNfjsor+RtK+ZtZHZIUl3z+b+Zvbk2XQBAAAAAAC0GgOslBrdPXpQ8v/VzNpGw681Tz4qeb3pB7h//azjAAAAAAAAWogBVop5JvMXzQylzPTK0tjYqLl9qumbJ8n9c4oDAAAAAABoEQZYKVapVMbc7N4mll5ZLBYHBw8v+phL1WbunUTR8+eYBwAAAAAA0BIMsFIuSuxzTSybb43Gy0Z3jx6MZH/c1H2lF8wxDQAAAAAAoCUYYKVcPfJ7JB2YaV2j4ddK0pHG5B2SJmZa72bswAIAAAAAAF2BAVbKxXF8xKSvzbTOTK+UpPHx8T1uauZ8q38z5zgAAAAAAIAWYIDVA1z+hSaWvaxYLA4e+4B/qYmb8gohAAAAAADoCgywekC5VlsvaecMyxb45OTLJWmi0bhPUmOG9ctzudzSFuQBAAAAAADMCQOs3pDI9HczL4teLR17jVDSd2daPT+bvWzOZQAAAAAAAHPEAKtHJA2bcYDl8l888Wcz/f2M691fMtcuAAAAAACAuWKA1SOq26v/ImnHdGtMekmhUFgsSZ4kMw6wZPay1tQBAAAAAACcPQZYvSORzfhthJmMdK0kXTQ2/IikQ9Mtdhc7sAAAAAAAQHAMsHpIU68Rur1aktZrfV3SxunWmjRULBaXtygPAAAAAADgrDDA6iHHXyN8cro10ZRzsCTbMNM9k8nJl845DAAAAAAAYA4YYPWWRKavTrfApRdcksutlCR3e2imG0acgwUAAAAAAAJjgNVjmnmNMIkGXiVJE8nEBkk+w/I1regCAAAAAAA4WwywekwzrxG6Ja+RpPHx8T2Stk671n2NpEzLAgEAAAAAAGaJAVbvSeS6e/ol9qoTf3LZgzOsPWdoaOiFrQgDAAAAAAA4GwywepBl7I4Zlqwcvmj4JZIUKZnxHKxMklzVkjAAAAAAAICzwACrB527dOk/Sto/3Zook/yqJJk04zcRutl1LUoDAAAAAACYNQZYPWjTpk2TLl833Rp3XS8p2larPWHSnmlv6P6q1atXD7SyEQAAAAAAoFkMsHqUKZr2cHZJ+eF8/rWS3GUzvEZo5+x/5pmXt6oNAAAAAABgNhhg9ShzPTHjGtnvHPtnMuNrhEkiXiMEAAAAAABBMMDqXdbEml8uFovLZTbjAMvMX9OCJgAAAAAAgFljgNWjEtnOJpbNU73++4cmJjZKXp9+qb24WCw+ryVxAAAAAAAAs8AAq0dFUbKomXXu+vCCgcE/kPT4DEszqtfXzL0MAAAAAABgdhhg9aBisTgot7c2/wn/z5Lmz7jK/eo5ZAEAAAAAAJyVbOgAtJ5P1u+X9IpZfMQke2ETyxhgAQAAAACAjmMHVm+xkULhzyX9QpvuvyaXyy1o070BAAAAAABOiwFWDxnO598s13vU3DcQno3B+QMD17Tp3gAAAAAAAKfFAKtHjORGiib7aruf4+6/2O5nAAAAAAAATMUAqweM5EaKyjS+pU78+3S9pu3PAAAAAAAAmKJdr5qhQ4YvGn6pRck6SSs69EhvmIbjOI479DwAAAAAANDn2IGVXjZcKHzEosYGdW54JUkWSdd38HkAAAAAAKDPsQMrhYbz+XeY7F2SXhwo4UlvRNdF86OtpVLp6Axro4sLhcsTqWCJDXjki+S2XEl0r5tfIGsMKpP5fqVSGetIOQAAAAAASB0GWClRKBTmR4nWmuktkn5umqX/6vI/N9ntHchKJO2WaZdckaQFkn5G0iJJDUl1SYOSFs5wH5frbg1kbiiXy7vaWgwAAAAAAFKHAVYKXHrppfOOHHx2vaQ10y40PdCQ3jBgdnmS+D91JK6FTNp8aHLi5Tt37jwUugUAAAAAAHQPzsBKgSMHD63V9MOrCXPdfLRevy6O432e6IZOtc3RUffomiSyQuL2S4ns0QUDAy8KHQUAAAAAALoLO7BSYCSf3y7ZIjN90l0fljT/5BV+S7lWW3ts7dAHJb8lQGYzXD/5b87d9IFKHP9ZyCAAAAAAAND9sqEDML3Vq1cP7Hv6maVJZK+sVqsbi6uGSh75WrnON1dN5p/N1Yb+enKVL5mnaK3LPxK6eYqHItPvNZIoZ9Zo2MDAo8nk5BWS5h8/uH1r6EAAAAAAAND92IGVAoVCoRDHcXy6343kRorK1D8s2W/o2CHqp3PAXbdmIt1t9fruJBpY4/I/lemitkUf86TJPu7mdUvsYMbrG7Zs377z1EXFYnF5MjFxeRRFl7vbpLs9oazGKpVKqVAonD84OPjsli1bftzmVgAAAAAA0KUYYKVYcdXQW938dkkDZ17l4w2za04MwEZWrbrKFX3cTK9WmDPQtkoqH//zCkkrj//zVJM69i2Hg8d/fsZcn9e87CdKpdKB9mcCAAAAAIBuwQArpYqrhl7v5ndp+n+Hh5LIXl6tVjdLUrFQeKO7vqyfDIVSx6TNjciuq1arPwrdAgAAAAAAOoMzsFJouFD4dXf/jKYdXnndpd+tVuNjw6ticbkm65/RNMMrk/a4tLTVvXPjdVN0lyvZKbMV7rrKEr9L0pWhywAAAAAAQGcwwEqZ4ULh1831eUmZU39n0h7J7nUlP0yi6J4TO68kyScnf0uyJSb9pZsWyfVbJ33W9C13jyX73fb/LWYjen+pVv3U1CvDw8PnhqoBAAAAAACdxwArRYZzw5eZJ7dLilx63KQX/eS3/mA0OfjmrTu3Pn26z7r0IpluLMfxzYVCYXFWlnH5tZIOSP6N7GT95np24B+8I3+TMzrqpr83t61ybY0seWBbLf7hqYsqlcr+EHEAAAAAACAMBlgpYpnkZknz3PTblTj+3yP5/L+T9HMuVZcsW7Zu06ZNk2f8bDZ7Y7lcHpekOI73SfrNqb8ezg99yuQ/396/wYwGzfV6ySdl+kY9ih4O3AMAAAAAALoAh7inRC6XWzCYyf7I5W+v1Gpfa9Fto4vz+ecnsk9LurZF92whr5vZfy3F8R9KCrw5DAAAAAAAhMIAK0VesHLleU/s2PHMXO9TKBTmZ6Sb5XqbpGbOk6pItvfUiyZf5NI8l1aYtGiuXado6Pg5Xy7/QqVWe9vxawAAAAAAoM8wwOovUTGff7vLPiTp+U1+pjJQn7xiusHZ6tWrB/bt3n2FzK416UqXLXNpvknPk/x5ki2buv7Ytx36YzIblOsK/fQ3I24ZqE9eVc/Me52b3yJphUyfLMfxe2f1twUAAAAAAD2BAVafuPDCCxcuyM67Q6brmvzIDnN7f24sf+d6ra/P5dm5XG7pYBQNJcoszUZ+4HnnnffYifO6RkZGzvdG499bop830zyZtmfcP7ulVqtK0rED5/U+T5Qvj8Vvn0sHAAAAAABIJwZY/SEzUijcIdcbZlj3lMk/6u6PezZb4tv+AAAAAABAN+BbCPvA8KrCR+V6g7k2uimRdOWUX8eSfyCJonK1Wh0V50wBAAAAAIAu8/8BxHdM8fnx1RkAAAAASUVORK5CYII=;" vertex="1" parent="1">
          <mxGeometry x="40" y="40" width="709.82" height="530" as="geometry" />
        </mxCell>
      </root>
    </mxGraphModel>
  </diagram>
</mxfile>
